<svg width="40" height="40" viewBox="0 0 40 40" fill="none" xmlns="http://www.w3.org/2000/svg">
<path d="M20 40C31.0287 40 40 31.0287 40 20C40 8.97133 31.0287 7.84298e-07 20 1.74846e-06C8.97132 2.71261e-06 -2.71248e-06 8.97289 -1.74846e-06 20C-7.84435e-07 31.0271 8.97133 40 20 40ZM20 3.09836C29.3184 3.09836 36.9016 10.6801 36.9016 20C36.9016 29.3199 29.3184 36.9016 20 36.9016C10.6801 36.9016 3.09836 29.3199 3.09836 20C3.09836 10.6801 10.6816 3.09836 20 3.09836Z" fill="#5F5F5F"/>
<path d="M11.1539 17.8621L18.8999 25.608C19.5041 26.2091 20.48 26.2091 21.0842 25.608L28.8302 17.8621C29.3274 17.2827 29.3274 16.426 28.8302 15.8466C28.274 15.1975 27.2949 15.1216 26.6458 15.6778L19.9998 22.3237L13.3383 15.6777C12.7341 15.0766 11.7581 15.0766 11.1539 15.6777C10.5528 16.2819 10.5528 17.2579 11.1539 17.8621Z" fill="#7BC244"/>
</svg>
