<svg width="25" height="30" viewBox="0 0 25 30" fill="none" xmlns="http://www.w3.org/2000/svg">
<path d="M24.1031 5.89689L18.4781 0.27189C18.3012 0.0964016 18.0617 -0.00139129 17.8125 1.49589e-05H2.8125C1.25918 1.49589e-05 0 1.25919 0 2.81251V27.1875C0 28.7408 1.25918 30 2.8125 30H21.5625C23.1158 30 24.375 28.7408 24.375 27.1875V6.56251C24.3765 6.31331 24.2786 6.07384 24.1031 5.89689ZM22.5 27.1875C22.5 27.7053 22.0803 28.125 21.5625 28.125H2.8125C2.29471 28.125 1.875 27.7053 1.875 27.1875V2.81251C1.875 2.29472 2.29471 1.87501 2.8125 1.87501H16.875V5.62501C16.875 6.66054 17.7145 7.50001 18.75 7.50001H22.5V27.1875Z" fill="#7BC244"/>
<path d="M20.625 22.5H18.75V24.375H20.625V22.5Z" fill="#7BC244"/>
<path d="M20.625 13.125H3.75V15H20.625V13.125Z" fill="#7BC244"/>
<path d="M20.625 17.8125H3.75V19.6875H20.625V17.8125Z" fill="#7BC244"/>
<path d="M16.875 22.5H3.75V24.375H16.875V22.5Z" fill="#7BC244"/>
</svg>
