<svg width="22" height="22" viewBox="0 0 22 22" fill="none" xmlns="http://www.w3.org/2000/svg">
<path d="M21.3046 10.3047H16.8477V2.24108C16.8477 1.85707 16.5363 1.54572 16.1523 1.54572H5.84765C5.4636 1.54572 5.15229 1.85707 5.15229 2.24108V10.3046H0.695362C0.311351 10.3046 0 10.616 0 11V19.7589C0 20.1429 0.311351 20.4543 0.695362 20.4543H11H21.3046C21.6886 20.4543 22 20.1429 22 19.7589V11C22 10.616 21.6887 10.3047 21.3046 10.3047ZM10.3046 19.0636H1.39072V11.6954H5.84765H10.3046V19.0636ZM6.54305 10.3046V2.93648H10.3047V3.86929C10.3047 4.25334 10.616 4.56465 11 4.56465C11.384 4.56465 11.6954 4.2533 11.6954 3.86929V2.93648H15.457V10.3047H11H6.54305V10.3046ZM20.6093 19.0636H20.6092H11.6954V11.6954H16.1524H20.6093V19.0636Z" fill="#7BC244"/>
</svg>
