<svg width="22" height="22" viewBox="0 0 22 22" fill="none" xmlns="http://www.w3.org/2000/svg">
<g clip-path="url(#clip0_462:335)">
<path d="M20.4286 1.57144H17.2857V0H15.7143V1.57144H6.28575V0H4.71431V1.57144H1.57144C0.705122 1.57144 0 2.27656 0 3.14287V20.4286C0 21.2949 0.705122 22.0001 1.57144 22.0001H14.9286C15.1373 22.0001 15.3368 21.9172 15.4841 21.7699L21.7698 15.4841C21.9171 15.3368 22 15.1373 22 14.9286V3.14287C22 2.27656 21.2949 1.57144 20.4286 1.57144ZM15.7143 19.3176V15.7144H19.3176L15.7143 19.3176ZM20.4286 14.1429H15.7143C14.848 14.1429 14.1428 14.8481 14.1428 15.7144V20.4287H1.57144V7.85718H20.4286V14.1429H20.4286ZM20.4286 6.28575H1.57144V3.14293H4.71431V4.71437H6.28575V3.14293H15.7143V4.71437H17.2857V3.14293H20.4286V6.28575H20.4286Z" fill="#7BC244"/>
</g>
<defs>
<clipPath id="clip0_462:335">
<rect width="22" height="22" fill="white"/>
</clipPath>
</defs>
</svg>
