<svg width="24" height="26" viewBox="0 0 24 26" fill="none" xmlns="http://www.w3.org/2000/svg">
<path fill-rule="evenodd" clip-rule="evenodd" d="M23.6208 0.119812C23.7367 0.191483 23.8323 0.291565 23.8987 0.410569C23.9651 0.529573 23.9999 0.663555 24 0.799812V24.7998C24 25.012 23.9157 25.2155 23.7657 25.3655C23.6157 25.5155 23.4122 25.5998 23.2 25.5998H18.4C18.1878 25.5998 17.9843 25.5155 17.8343 25.3655C17.6843 25.2155 17.6 25.012 17.6 24.7998V22.3998H16V24.7998C16 25.012 15.9157 25.2155 15.7657 25.3655C15.6157 25.5155 15.4122 25.5998 15.2 25.5998H0.8C0.587827 25.5998 0.384344 25.5155 0.234315 25.3655C0.0842855 25.2155 0 25.012 0 24.7998V15.9998C0.000127435 15.832 0.053037 15.6684 0.15124 15.5323C0.249443 15.3962 0.387965 15.2944 0.5472 15.2414L9.6 12.2238V7.19981C9.60001 7.05137 9.64131 6.90585 9.7193 6.77954C9.79729 6.65323 9.90889 6.55111 10.0416 6.48461L22.8416 0.0846119C22.9637 0.0235012 23.0994 -0.00534625 23.2358 0.000815168C23.3722 0.00697658 23.5047 0.0479419 23.6208 0.119812ZM9.6 13.9102L1.6 16.5758V23.9998H9.6V13.9102ZM11.2 23.9998H14.4V21.5998C14.4 21.3876 14.4843 21.1842 14.6343 21.0341C14.7843 20.8841 14.9878 20.7998 15.2 20.7998H18.4C18.6122 20.7998 18.8157 20.8841 18.9657 21.0341C19.1157 21.1842 19.2 21.3876 19.2 21.5998V23.9998H22.4V2.09421L11.2 7.69421V23.9998Z" fill="#7BC244"/>
<path d="M3.20001 17.5998H4.80001V19.1998H3.20001V17.5998ZM6.40001 17.5998H8.00001V19.1998H6.40001V17.5998ZM3.20001 20.7998H4.80001V22.3998H3.20001V20.7998ZM6.40001 20.7998H8.00001V22.3998H6.40001V20.7998ZM12.8 14.3998H14.4V15.9998H12.8V14.3998ZM16 14.3998H17.6V15.9998H16V14.3998ZM12.8 17.5998H14.4V19.1998H12.8V17.5998ZM16 17.5998H17.6V19.1998H16V17.5998ZM19.2 14.3998H20.8V15.9998H19.2V14.3998ZM19.2 17.5998H20.8V19.1998H19.2V17.5998ZM12.8 11.1998H14.4V12.7998H12.8V11.1998ZM16 11.1998H17.6V12.7998H16V11.1998ZM19.2 11.1998H20.8V12.7998H19.2V11.1998ZM12.8 7.9998H14.4V9.5998H12.8V7.9998ZM16 7.9998H17.6V9.5998H16V7.9998ZM19.2 7.9998H20.8V9.5998H19.2V7.9998ZM19.2 4.7998H20.8V6.3998H19.2V4.7998Z" fill="#7BC244"/>
</svg>
