<svg width="20" height="20" viewBox="0 0 20 20" fill="none" xmlns="http://www.w3.org/2000/svg">
<path d="M19.7195 1.77565L18.3379 0.410522C17.9641 0.0366922 17.3465 0.0366922 16.9564 0.410522L10.0649 7.30183L3.04358 0.280494C2.66959 -0.093498 2.05196 -0.093498 1.66204 0.280494L0.280494 1.66204C-0.093498 2.03587 -0.093498 2.6535 0.280494 3.04358L7.28573 10.0488L0.410522 16.9565C0.0366922 17.3304 0.0366922 17.948 0.410522 18.3381L1.79207 19.7196C2.1659 20.0935 2.78353 20.0935 3.17361 19.7196L10.0649 12.8282L16.9564 19.7196C17.3302 20.0935 17.9478 20.0935 18.3379 19.7196L19.7195 18.3381C20.0933 17.9643 20.0933 17.3466 19.7195 16.9565L12.8117 10.0651L19.7032 3.17377C20.0933 2.78336 20.0933 2.16573 19.7195 1.77565Z" fill="#5F5F5F"/>
</svg>
