<svg width="124" height="40" viewBox="0 0 124 40" fill="none" xmlns="http://www.w3.org/2000/svg">
<path d="M62.3021 32.3872L64.3779 36.4314C63.4251 37.451 62.0298 38.3006 60.2262 38.9123C58.4226 39.558 56.5168 39.8639 54.543 39.8639C49.8468 39.8639 46.0013 38.4025 43.1087 35.5138C40.1821 32.6251 38.7188 28.7849 38.7188 24.027C38.7188 19.4391 40.114 15.6668 42.8705 12.6761C45.661 9.68546 49.5065 8.22412 54.4069 8.22412C58.3545 8.22412 61.4853 9.27765 63.7654 11.3507L61.3492 15.3269C59.2733 13.9675 56.9592 13.2539 54.4069 13.2539C51.5143 13.2539 49.1322 14.2394 47.2264 16.1765C45.3547 18.1477 44.4019 20.7645 44.4019 24.027C44.4019 27.2216 45.3888 29.8044 47.3626 31.8095C49.3363 33.8146 51.8887 34.8002 55.0195 34.8002C57.7419 34.8681 60.1581 34.0525 62.3021 32.3872Z" fill="white"/>
<path d="M69.7207 39.4235V8.73535H75.1316V23.2808L87.2465 8.73535H93.7464L81.121 23.0089L94.5291 39.3896H87.6889L75.1316 23.5867V39.3896H69.7207V39.4235Z" fill="white"/>
<path d="M99.1914 39.4235V8.73535H104.602V23.2808L116.717 8.73535H123.217L110.592 23.0089L124 39.3896H117.16L104.602 23.5867V39.3896H99.1914V39.4235Z" fill="white"/>
<path d="M30.8579 32.2855C30.5176 31.6058 30.0752 30.7901 29.4626 30.1784C28.9862 29.7026 28.4417 29.2948 27.8972 28.921C27.5909 28.6831 27.2506 28.4792 26.9443 28.2073C26.9103 28.1733 23.5753 25.5565 23.0308 25.2506C22.7245 25.0467 22.3162 24.7409 22.0099 24.503C21.9758 24.367 21.9418 24.2651 21.9078 24.1971C21.9418 24.0612 21.9418 23.9592 21.9078 23.8233C21.9418 23.8233 21.9758 23.8233 22.0099 23.8233C22.2481 23.8233 22.4523 23.7553 22.6224 23.6194C22.8606 23.4494 22.9287 23.1096 22.9287 22.8377C23.201 22.8717 23.4732 22.7698 23.6774 22.5998C23.9496 22.3619 24.0517 21.9881 24.0177 21.6143C23.9837 21.4444 23.9496 21.2744 23.8816 21.1385C24.0517 21.0705 24.2219 20.9346 24.324 20.7647C24.4601 20.5268 24.5282 20.2209 24.4601 19.8471C24.4601 19.7451 24.4261 19.6771 24.392 19.5752C24.8004 19.4053 25.2088 18.9635 25.2088 18.5217C25.2088 18.3178 25.1747 18.1478 25.1067 17.9439C25.9234 17.1623 26.9443 16.1767 27.4548 14.9193C27.7951 14.1037 27.7611 12.6083 27.5909 11.6568C27.7611 11.3509 27.8972 11.079 28.0333 10.8071C28.4077 10.0595 28.816 8.97196 28.2715 8.12234C28.2035 8.02039 28.1014 7.91844 28.0333 7.85047C28.1694 7.57859 28.2715 7.37468 28.3396 7.13679C28.5438 6.49108 28.3056 5.57349 27.8632 5.06372C27.9993 4.75786 28.1014 4.48598 28.1694 4.24809C28.3396 3.7723 28.5098 3.19456 28.3736 2.61682C28.2375 2.10705 27.8632 1.7672 27.4208 1.69924C27.4548 1.46134 27.4888 1.15548 27.3867 0.883602C27.2506 0.475786 26.8082 0.135939 26.3658 0.237893C26.0595 0.339847 25.8554 0.57774 25.7192 0.849618C25.447 1.25743 25.2088 1.73322 24.9365 2.24299V2.20901C24.8685 1.97111 24.6983 1.73322 24.4941 1.63127C24.4601 1.63127 24.4261 1.59728 24.392 1.59728C24.392 1.5633 24.392 1.52931 24.392 1.49533C24.4261 0.985557 24.1198 0.407817 23.5753 0.237893C23.0989 0.101954 22.6565 0.373832 22.4182 0.645709C22.146 0.917587 22.0099 1.25743 21.8738 1.5633L21.8397 1.59728C20.9549 3.50042 19.8659 5.26763 18.5047 6.86491C18.4026 6.8989 18.2665 6.96687 18.1984 7.03483C17.8922 7.23874 17.6539 7.54461 17.4498 7.81648C17.1775 8.19032 16.6671 8.97196 16.1566 9.68564C15.8163 10.2294 15.4419 10.7732 15.1697 11.147C15.1697 11.113 15.1357 11.045 15.1357 11.011V10.9091C15.1016 10.8071 15.1016 10.7052 15.1016 10.6032V10.5353C15.1016 10.3993 15.1016 10.2974 15.1016 10.1954C15.7823 9.58369 16.2587 8.83602 16.7011 7.91844C17.2115 6.93288 17.3817 6.11725 17.2796 5.36958C17.1775 4.58794 16.7011 3.80629 16.0205 3.3305C15.4079 2.8887 13.3661 1.90314 12.4132 1.80119C12.4132 1.7672 12.4132 1.73322 12.3792 1.69924V1.66525C12.3451 1.5633 12.3111 1.46134 12.2771 1.35939C11.8007 0.203908 10.3714 0.0339847 9.55463 0C8.39758 0 7.51278 0.305862 7.00232 0.883602C6.79813 1.08751 6.66201 1.3254 6.55992 1.59728C6.55992 1.63127 6.52589 1.66525 6.52589 1.73322V1.7672C6.49186 2.10705 6.45783 2.41291 6.49186 2.71878C6.62798 4.07817 7.51278 5.23365 8.70386 5.67545C9.01013 5.7774 9.31641 5.84537 9.62269 5.84537C10.6776 5.84537 11.6645 5.26763 12.0729 4.41801C12.141 4.31606 12.175 4.18012 12.209 4.04418C12.3792 4.0102 12.7195 3.90824 13.0258 3.73832C13.9446 3.56839 14.6252 3.90824 14.9655 4.11215C15.7482 4.58794 16.1566 5.36958 16.1566 5.87935C16.1566 7.91844 13.8085 8.32625 10.5075 8.87001C10.1672 8.93798 9.82687 8.97196 9.48656 9.03993C9.01013 9.1079 8.1934 9.34579 7.92115 10.0595C7.92115 10.0935 7.88712 10.1274 7.88712 10.1614C7.85309 10.2294 7.85309 10.2634 7.81906 10.3314C7.78503 10.3993 7.71696 10.4333 7.6489 10.4673C7.44472 10.6032 7.24053 10.6712 7.00232 10.7732C6.49186 11.011 5.9814 11.215 5.70915 11.7587C5.33481 12.5404 5.84527 13.424 6.35574 14.0017C6.4238 14.0697 6.49186 14.1716 6.62798 14.2396C6.8662 14.3415 7.13844 14.2396 7.41069 13.9337C7.6489 13.6619 7.98921 13.424 8.43161 13.254C8.66983 13.1521 8.87401 13.1181 9.01013 13.1861C9.07819 13.2201 9.14626 13.288 9.18029 13.356C9.28238 13.5599 9.07819 13.8318 8.87401 13.9677C8.63579 14.1376 8.36355 14.2056 8.02324 14.1716H7.92115C7.751 14.1376 7.58084 14.1376 7.41069 14.1716C7.17247 14.2396 6.90023 14.4435 6.90023 14.7154C6.90023 15.2931 7.10441 15.633 7.51278 15.7349C7.71696 15.7689 7.88712 15.7689 8.05727 15.7349C8.1934 15.7349 8.32952 15.7009 8.46564 15.7349C8.9761 15.8029 9.28238 16.4486 9.28238 16.9924C9.31641 17.9779 8.77192 18.8955 8.22743 19.7791V19.7451C8.15936 19.8811 8.05727 20.017 7.98921 20.1529C7.44472 21.0705 7.00232 22.0901 6.66201 23.1096C6.38977 23.9932 6.08349 25.1147 6.4238 26.2362C6.45783 26.3042 6.49186 26.4061 6.49186 26.4741C6.55992 26.712 6.66201 26.9159 6.62798 27.1538C6.62798 27.3237 6.55992 27.4596 6.49186 27.6296C6.15155 28.5472 5.70915 29.6007 5.23272 30.6542C4.79032 31.6737 4.31389 32.7273 3.97358 33.6788C3.93955 33.8148 3.87149 33.9847 3.80343 34.1546V34.1886C3.59924 34.8003 3.327 35.616 3.05475 35.9558C2.78251 36.2957 2.37414 36.6015 1.9998 36.8734C1.89771 36.9414 1.79562 37.0433 1.69352 37.1113C1.65949 37.1453 1.52337 37.1793 1.45531 37.2133C0.978877 37.3832 0.19617 37.6211 0.0260166 38.3348C-0.0760757 38.7426 0.128109 39.0824 0.536478 39.2523C0.672601 39.3883 0.910816 39.4562 1.21709 39.4562C1.45531 39.7621 1.9998 39.8301 2.34011 39.7961C3.327 39.966 4.41598 39.932 5.40287 39.7281C5.47094 39.7281 5.539 39.6602 5.57303 39.5922C6.4238 37.3492 7.2065 35.65 7.85309 34.5624C7.98921 34.3246 8.15936 34.0527 8.32952 33.7468C8.70386 33.1011 9.11223 32.3874 9.45253 31.9116C9.69075 31.5718 9.92896 31.198 10.1672 30.7222C12.5493 33.305 17.756 34.2226 19.8659 34.2566C20.2743 35.2421 20.8869 36.1937 21.7376 37.0093C20.4785 36.8734 19.2194 36.8734 18.0963 36.9414C17.722 36.9414 17.3136 37.0093 16.9393 37.0773L16.6671 37.1113C16.0545 37.2133 15.7142 37.689 15.544 37.9609C15.3739 38.2668 15.2378 38.7086 15.3058 38.9465C15.4419 39.2863 15.7823 39.5242 16.1566 39.5242C16.633 39.898 17.5859 39.966 18.0963 39.966H18.1984C18.5387 40 18.9131 40 19.3214 40C19.9 40 20.4445 39.966 20.989 39.966L26.1276 39.7621C26.3658 39.7621 26.604 39.7281 26.8763 39.7281C26.9443 39.7281 26.9784 39.7281 27.0464 39.6941L30.5176 39.6262C30.7217 39.6262 30.9259 39.6262 31.1641 39.5582C31.5725 39.4223 31.9469 39.1164 32.151 38.6406C32.3212 38.3008 32.3893 37.893 32.3893 37.3832C32.3893 35.582 31.6406 33.8488 30.8579 32.2855ZM0.842754 37.9609C0.672601 38.1648 0.570508 38.3687 0.468416 38.6066C0.468416 38.5387 0.468416 38.5047 0.468416 38.4367C0.536478 38.2328 0.63857 38.0969 0.842754 37.9609ZM27.7611 38.5047C27.659 38.1988 27.4548 37.9609 27.2166 37.757C26.0936 36.6355 24.8685 35.582 23.5753 34.6644C23.4732 34.5964 23.3371 34.6304 23.269 34.6984C23.201 34.8003 23.235 34.9363 23.303 35.0042C24.5622 35.9218 25.7873 36.9754 26.9103 38.0629C27.1145 38.2668 27.2846 38.4367 27.3527 38.6406C27.4208 38.8105 27.3867 39.0484 27.2506 39.1504C27.1825 39.1844 27.1145 39.2184 27.0124 39.2184H26.6721C26.6381 39.2184 26.604 39.2184 26.57 39.2523C26.3998 39.2523 26.2637 39.2523 26.0936 39.2863L21.023 39.4902C20.1042 39.5242 19.1513 39.5582 18.2325 39.4902H18.1304C17.9602 39.4902 17.688 39.4562 17.4157 39.4223C17.3477 39.3883 17.3136 39.3543 17.3136 39.2863C17.2796 39.1844 17.2796 39.0484 17.3136 38.9125C17.3136 38.8105 17.3136 38.7086 17.3477 38.6406C17.4157 38.4707 17.5518 38.3348 17.756 38.2668C17.8581 38.2328 17.9942 38.1988 18.1304 38.1988C18.1984 38.1988 18.3005 38.1988 18.4026 38.1988C18.4707 38.1988 18.5047 38.1988 18.5728 38.1648C18.6068 38.1308 18.6408 38.0629 18.6749 38.0289C18.6749 37.9609 18.6749 37.9269 18.6408 37.859C18.6068 37.825 18.5387 37.791 18.5047 37.791C18.1644 37.757 17.8922 37.757 17.6539 37.859C17.3477 37.9609 17.0754 38.1988 16.9733 38.5047C16.9393 38.6406 16.9053 38.7766 16.9053 38.9125C16.9053 39.0484 16.9053 39.1844 16.9053 39.3203C16.633 39.2523 16.4288 39.1164 16.3608 38.9805C16.3608 38.9805 16.3608 38.9465 16.3608 38.8785C16.4629 38.4027 16.8712 37.9949 17.3136 37.825C17.4157 37.791 17.4838 37.6551 17.4498 37.5531C17.4157 37.4851 17.3817 37.4511 17.3136 37.4172C17.5859 37.3832 17.8581 37.3492 18.1304 37.3152C19.4576 37.2812 20.8869 37.2472 22.3162 37.4851C22.3842 37.5531 22.4523 37.5531 22.5544 37.5191C22.7245 37.5531 22.8606 37.5871 23.0308 37.6211H23.0648C23.7114 38.1988 24.324 38.5387 24.9706 38.6406C25.1067 38.6746 25.3109 38.6066 25.413 38.4707C25.481 38.3687 25.447 38.2328 25.3789 38.1648C25.3449 38.1308 25.2768 38.0969 25.2428 38.0969C25.1747 38.0969 25.1407 38.0969 25.0726 38.1308C25.0386 38.1648 25.0046 38.1988 25.0046 38.2328C23.9156 38.0629 23.0648 37.1113 22.3502 36.2277C21.6355 35.3441 20.989 34.4605 20.7848 33.441C20.6486 32.6253 20.8188 31.7417 21.2952 31.062C21.7717 30.3823 22.4863 29.8726 23.303 29.7026C23.7114 29.6007 24.1538 29.6007 24.6643 29.6686C25.6852 29.7706 26.6721 30.1444 27.5229 30.6882C27.625 30.7562 27.7611 30.7222 27.8291 30.6202C27.8632 30.5862 27.8632 30.5183 27.8632 30.4503C27.8632 30.3823 27.8291 30.3483 27.7611 30.3144C26.8422 29.7026 25.7873 29.3288 24.6983 29.1929C24.1538 29.1249 23.6434 29.1589 23.201 29.2608C22.2821 29.4647 21.4314 30.0085 20.8869 30.8241C20.7848 30.9941 20.6827 31.164 20.5806 31.4019C20.4445 31.7077 20.4104 31.8437 20.4104 31.9116C20.2743 32.4554 20.2403 33.0331 20.3083 33.5429C20.5125 34.6644 21.1931 35.616 21.9418 36.5336C22.0779 36.7035 22.2481 36.9074 22.4182 37.1113C21.3293 36.1597 20.5466 35.0382 20.1042 33.8488L20.0701 33.7808L19.7638 33.8148C17.1094 33.7468 12.3111 32.5913 10.3033 30.3144C10.7797 29.4647 11.2221 28.6151 11.5965 27.7995C11.6305 27.6975 11.5965 27.5616 11.4944 27.4936C11.3923 27.4596 11.2562 27.4936 11.1881 27.5956C10.5415 28.989 9.79284 30.3483 8.94207 31.6398C8.60176 32.1495 8.15936 32.8972 7.81906 33.5089L7.78503 33.5429C7.61487 33.8148 7.47875 34.0867 7.34263 34.3246C6.69604 35.4121 5.94737 37.1113 5.0966 39.3203C4.24583 39.4902 3.327 39.5242 2.47623 39.3883C2.47623 39.0824 2.61235 38.7426 2.85057 38.4707C3.12281 38.1648 3.46312 37.9609 3.83746 37.9269C3.90552 37.9269 3.93955 37.893 3.97358 37.859C4.00761 37.825 4.04164 37.757 4.04164 37.689C4.04164 37.5531 3.93955 37.4851 3.80343 37.4851C3.327 37.5191 2.85057 37.791 2.51026 38.1988C2.23802 38.5387 2.06786 38.9465 2.03383 39.3543C1.79562 39.3543 1.52337 39.2523 1.45531 39.1844C1.45531 39.1844 1.42128 39.1164 1.52337 38.9465C1.79562 38.3687 2.37414 37.9949 2.95266 37.6211L3.19088 37.4511C3.56521 37.2133 3.90552 36.6355 4.10971 36.3297C4.27986 36.0578 7.3086 29.1929 8.1934 26.61C8.22743 26.5421 8.1934 26.4741 8.15936 26.4401C7.6489 25.5565 7.44472 24.8088 7.51278 24.1291C7.58084 23.4155 8.12533 22.6338 8.87401 22.5319C8.94207 22.5319 8.9761 22.4979 9.01013 22.4639C9.04416 22.4299 9.07819 22.3619 9.04416 22.294C9.04416 22.226 9.01013 22.192 8.9761 22.158C9.04416 22.124 9.01013 22.124 8.94207 22.124C7.92115 22.226 7.27457 23.2455 7.17247 24.1291C7.10441 24.8768 7.3086 25.6924 7.85309 26.61C6.90023 29.3628 3.93955 35.9558 3.83746 36.1597C3.56521 36.6355 3.25894 37.0093 3.05475 37.1453C2.98669 37.1793 2.91863 37.2472 2.85057 37.2812L2.81654 37.3152C2.20398 37.723 1.59143 38.1308 1.25112 38.8105C1.21709 38.9125 1.18306 38.9805 1.14903 39.0824C0.910816 39.0824 0.876785 39.0144 0.876785 39.0144C0.876785 39.0144 0.842754 38.9805 0.910816 38.8445C1.14903 38.1988 1.72755 37.757 2.34011 37.2812C2.74848 36.9754 3.15685 36.6695 3.46312 36.2957C3.80343 35.8879 4.07568 35.0722 4.27986 34.3925C4.34792 34.1886 4.38195 34.0187 4.45001 33.8828C4.79032 32.9652 5.23272 31.9116 5.67512 30.9261V30.8921C6.11752 29.8726 6.59395 28.819 6.93426 27.8675C7.00232 27.6636 7.07038 27.4936 7.10441 27.2557C7.13844 26.9499 7.03635 26.678 6.93426 26.3721C6.90023 26.3042 6.90023 26.2362 6.8662 26.1682C6.55992 25.1827 6.83217 24.1291 7.10441 23.3135C7.44472 22.328 7.85309 21.3424 8.39758 20.4588C8.46564 20.3229 8.56773 20.1869 8.66983 20.017C9.24835 19.0654 9.82687 18.1138 9.79284 16.9924C9.75881 16.2447 9.35044 15.4291 8.60176 15.3271C8.43161 15.2931 8.26146 15.3271 8.0913 15.3271C7.92115 15.3271 7.78503 15.3611 7.6489 15.3271C7.58084 15.3271 7.41069 15.2591 7.37666 14.7494C7.37666 14.7154 7.47875 14.6474 7.54681 14.6134C7.6489 14.5794 7.78503 14.6134 7.92115 14.6134H8.02324C8.43161 14.6474 8.83998 14.5794 9.14626 14.3415C9.52059 14.1037 9.82687 13.6279 9.62269 13.1861C9.55463 12.9822 9.4185 12.8462 9.21432 12.7782C8.9761 12.6763 8.63579 12.7103 8.29549 12.8462C7.78503 13.0501 7.37666 13.322 7.10441 13.6619C6.96829 13.8318 6.8662 13.8658 6.83217 13.8658C6.79813 13.8658 6.7641 13.7978 6.73007 13.7638C6.45783 13.4579 6.25364 13.1521 6.15155 12.8802C6.18558 12.8462 6.25364 12.8462 6.28767 12.8122C6.3217 12.8122 6.3217 12.8122 6.35574 12.8122C6.52589 12.8122 6.73007 12.8462 6.90023 12.7443C7.17247 12.6083 7.37666 12.2685 7.27456 11.9626C7.24053 11.8946 7.17247 11.8267 7.10441 11.8267C6.90023 11.7927 6.66201 11.8607 6.49186 11.9966C6.35574 12.0986 6.25364 12.2345 6.15155 12.3364L6.11752 12.4044L6.08349 12.4384C6.08349 12.3025 6.11752 12.1665 6.18558 12.0306C6.35574 11.6568 6.79813 11.4528 7.24053 11.2829C7.47875 11.181 7.71697 11.079 7.92115 10.9431C8.02324 10.8751 8.12533 10.8071 8.22743 10.6712C8.29549 10.5692 8.32952 10.5013 8.36355 10.3993C8.36355 10.3653 8.39758 10.3314 8.39758 10.2974C8.60176 9.7876 9.28238 9.61767 9.65672 9.5497C9.99702 9.48173 10.3033 9.44775 10.6096 9.37978H10.6776C14.1828 8.76805 16.7011 8.36024 16.7011 5.94732C16.7011 5.19966 16.1226 4.31606 15.3058 3.80629C14.9655 3.60238 14.421 3.3305 13.7064 3.3305C13.6383 3.16058 13.6723 3.09261 13.6723 3.05862C13.7064 2.8887 13.6383 2.75276 13.5362 2.58284C14.421 2.92268 15.4079 3.43246 15.7823 3.70433C16.3608 4.11215 16.7691 4.75786 16.8712 5.43755C16.9733 6.08326 16.8032 6.83093 16.3267 7.74851C16.0545 8.32625 15.7142 8.90399 15.2718 9.41376C15.2718 9.20986 15.2378 9.00595 15.1697 8.80204C15.1357 8.73407 15.1016 8.70009 15.0336 8.6661C14.9655 8.63212 14.8975 8.63212 14.8634 8.6661C14.353 8.93798 13.7404 9.07392 13.1619 9.1079C13.0598 9.1079 12.9577 9.1079 12.8556 9.1079H12.8216C12.6514 9.1079 12.4813 9.1079 12.3111 9.1079C11.9027 9.14189 11.5284 9.24384 11.1541 9.41376C11.086 9.44775 11.052 9.48173 11.052 9.5497C11.0179 9.61767 11.0179 9.65166 11.052 9.71963C11.086 9.82158 11.2221 9.88955 11.3583 9.82158C11.6645 9.68564 12.0048 9.58369 12.3451 9.58369C12.5153 9.58369 12.6855 9.58369 12.8556 9.58369C12.9577 9.58369 13.0938 9.58369 13.1959 9.58369C13.7404 9.5497 14.3189 9.44775 14.8294 9.20986C14.8634 9.58369 14.7613 9.9915 14.4891 10.3314C14.1828 10.7052 13.7064 10.9091 13.1619 10.9431C12.9917 10.9431 12.7875 10.9431 12.5834 10.9431L11.7326 10.9091C11.6645 10.9091 11.6305 10.9091 11.5624 10.9771C11.5284 11.011 11.4944 11.079 11.4944 11.147C11.4944 11.2829 11.5965 11.3849 11.6986 11.3849L12.5493 11.4189C12.7535 11.4189 12.9577 11.4528 13.1619 11.4189C13.7404 11.3849 14.2849 11.147 14.6592 10.7732V10.8071L14.6933 11.045C14.6933 11.113 14.7273 11.215 14.7273 11.2829C14.7273 11.3509 14.7613 11.3849 14.7613 11.4528L14.7954 11.5208C14.7954 11.5888 14.8294 11.6228 14.8294 11.6907C14.8634 11.8267 14.9315 11.9626 14.9655 12.0986C15.1016 12.4044 15.2378 12.7103 15.3739 12.9482C15.4419 13.0841 15.51 13.1861 15.5781 13.322C15.6461 13.424 15.7142 13.5599 15.7823 13.6958C15.8503 13.7978 15.9184 13.9337 15.9524 14.0357L16.0545 14.0017H16.0205C16.1566 14.2736 16.2587 14.4775 16.3267 14.6814C16.3267 14.7154 16.3267 14.7494 16.3608 14.7833C16.3608 14.8173 16.3948 14.8853 16.3948 14.9193C16.3608 15.1572 16.3267 15.3951 16.3267 15.599C16.2587 16.2107 16.1906 16.8224 15.9184 17.3322C15.4079 18.3178 14.2509 18.8275 13.2299 19.2693C13.0938 19.3373 12.8556 19.4393 12.7535 19.6092C12.6514 19.7451 12.6174 19.8811 12.6174 19.983C12.5153 20.6287 12.5153 21.2744 12.5153 21.9201C12.5153 22.0901 12.5153 22.294 12.5493 22.4639C12.5493 22.5998 12.5153 22.7698 12.5153 22.9397C12.4813 23.2116 12.4472 23.5174 12.4813 23.7553C12.4813 23.8913 12.5153 24.0272 12.5834 24.1631C12.4472 24.7069 12.3451 25.3866 12.3451 25.8624C12.3451 26.1003 12.3792 26.3381 12.4813 26.576C12.5834 26.7799 12.8216 26.9839 13.1279 26.9839C13.1619 26.9839 13.1619 26.9839 13.1959 26.9839C13.4001 26.9499 13.6043 26.78 13.8085 26.4741C13.9106 26.61 14.0127 26.712 14.1147 26.7799C14.2509 26.9159 14.4551 27.0858 14.6933 27.1198C14.8634 27.1538 15.0336 27.0178 15.1357 26.9159C15.1697 26.8819 15.2037 26.8479 15.2378 26.8139C15.3058 26.9159 15.4079 27.0178 15.51 27.0858C15.6461 27.2218 15.8503 27.3577 16.0545 27.3577H16.0885C16.4288 27.3237 16.6671 27.1198 16.8032 26.712C16.9733 26.8479 17.1435 26.9159 17.3477 26.9159C17.5859 26.9159 17.8922 26.78 18.0623 26.4741C18.0963 26.5081 18.1304 26.5421 18.1644 26.5421C18.5047 26.746 18.879 26.8139 19.2194 26.678C19.4916 26.576 19.6618 26.3721 19.7298 26.1342C19.8319 26.1342 19.9 26.1342 19.968 26.1342C20.2062 26.1003 20.4445 25.9303 20.6146 25.6585C20.7167 25.4885 20.7507 25.3186 20.7507 25.1487C20.8188 25.1487 20.8528 25.1487 20.9209 25.1487C21.1931 25.1147 21.4654 24.9788 21.6696 24.7749C21.7036 24.7749 21.7036 24.8088 21.7376 24.8088C22.0439 25.0467 22.6565 25.4885 22.6905 25.4885C22.7245 25.5225 26.0255 28.0034 26.7402 28.5472C27.0464 28.785 27.3867 29.0229 27.727 29.2608C28.2375 29.6347 28.782 30.0085 29.2244 30.4503C29.8029 31.028 30.2113 31.8097 30.5516 32.4554C31.3343 33.9847 32.0489 35.616 32.0489 37.3832C32.0489 37.825 31.9809 38.1988 31.8448 38.4707C31.6746 38.8105 31.4364 39.0484 31.1301 39.1504C30.96 39.1844 30.7898 39.1844 30.6197 39.2184L27.8632 39.2523C27.8632 39.0144 27.8291 38.7086 27.7611 38.5047ZM15.9184 38.8105C15.9184 38.8445 15.8843 38.9125 15.8843 38.9465C15.8163 38.9125 15.7823 38.8445 15.7482 38.7766C15.7482 38.7426 15.7823 38.4707 15.9524 38.1988C16.0885 37.9949 16.3608 37.6211 16.7691 37.5531L17.0414 37.5191C17.0414 37.5191 17.0414 37.5191 17.0754 37.5191C16.4969 37.723 16.0545 38.2328 15.9184 38.8105ZM24.8004 3.67035C25.2088 2.68479 25.6171 1.80119 26.0595 1.05353C26.1616 0.883602 26.2977 0.679694 26.4339 0.645709C26.6381 0.57774 26.8422 0.781648 26.9103 0.985556C27.0124 1.25743 26.9443 1.5633 26.8763 1.83517C26.1616 4.65591 24.392 7.03484 22.8266 9.1079C22.7926 9.07392 22.7245 9.07392 22.6905 9.07392C22.7926 8.83602 22.8947 8.59813 22.8606 8.32625C22.8266 7.98641 22.6224 7.61258 22.2141 7.57859L24.0517 4.96177C24.324 4.55395 24.6302 4.11215 24.8004 3.67035ZM17.8241 25.6245C17.4838 25.1487 17.2456 24.6729 17.1435 24.2311C17.2796 24.2311 17.4157 24.1971 17.5518 24.1291C17.756 24.0272 17.9262 23.8233 17.9602 23.5854C17.9942 23.9932 18.0963 24.367 18.1984 24.6729C18.2665 24.9448 18.3686 25.2506 18.5728 25.4885C18.6749 25.5905 18.777 25.6924 18.845 25.7604C18.9811 25.8624 19.1173 25.9643 19.2194 26.0323C19.1853 26.1682 19.1173 26.2362 18.9811 26.3042C18.811 26.3721 18.5387 26.3381 18.3346 26.2022C18.1644 26.0323 17.9942 25.8284 17.8241 25.6245ZM14.0807 24.7069C14.1147 24.6729 14.1488 24.6389 14.1828 24.5709C14.3189 24.6729 14.4891 24.7069 14.6592 24.7409C14.6933 25.3186 14.7613 25.8963 14.9655 26.3721C14.9655 26.4061 14.9315 26.5081 14.8294 26.576C14.7613 26.644 14.7273 26.644 14.7273 26.678C14.6252 26.644 14.5231 26.576 14.421 26.4401C14.2849 26.3042 14.1488 26.2022 14.0807 26.0323C13.9106 25.7604 13.8425 25.3866 13.8425 24.8428C13.9106 24.8428 13.9786 24.7749 14.0807 24.7069ZM15.6461 24.401C15.6802 24.401 15.6802 24.435 15.7142 24.435C15.7142 25.0127 16.0205 25.5565 16.2247 25.9643C16.2927 26.1003 16.3608 26.2022 16.4288 26.3042C16.3267 26.712 16.2247 26.8819 16.0205 26.8819C15.9524 26.8819 15.8503 26.8139 15.7482 26.712C15.2037 26.2362 15.1016 25.4206 15.0676 24.6729C15.3058 24.6729 15.51 24.537 15.6461 24.401ZM16.2927 24.5709C16.4629 24.5709 16.599 24.469 16.7351 24.367C16.8712 24.8428 17.1094 25.3526 17.4838 25.8624C17.5518 25.9643 17.6199 26.0323 17.688 26.1342C17.6539 26.4061 17.4157 26.4741 17.3477 26.4741C17.0414 26.4741 16.8032 26.1003 16.633 25.7944C16.4629 25.4545 16.2247 25.0127 16.1906 24.6049C16.2247 24.5709 16.2587 24.5709 16.2927 24.5709ZM18.6408 24.537C18.5387 24.1971 18.4366 23.8573 18.4366 23.4834C18.5387 23.4494 18.6068 23.4155 18.7089 23.3475C18.811 23.2795 18.9131 23.1776 18.9811 23.1096C19.0492 23.3135 19.1513 23.5174 19.2194 23.6534C19.3895 23.9932 19.5256 24.3331 19.7979 24.6389C19.934 24.8088 20.1382 24.9448 20.3083 25.0127C20.3424 25.1487 20.3083 25.3186 20.2403 25.4545C20.1722 25.5905 20.0361 25.6924 19.934 25.7264C19.7298 25.7604 19.4916 25.6585 19.2194 25.4206C19.1513 25.3526 19.0492 25.2846 18.9811 25.2167C18.777 25.0127 18.7089 24.7749 18.6408 24.537ZM13.2299 24.9108C13.264 24.9108 13.332 24.9448 13.3661 24.9448C13.3661 25.3526 13.4341 25.7264 13.5362 25.9983C13.3661 26.3721 13.1959 26.5421 13.1279 26.5421C13.0258 26.5421 12.9237 26.4741 12.8556 26.3721C12.7875 26.2362 12.7535 26.0663 12.7535 25.8624C12.7535 25.5565 12.7875 25.1147 12.8896 24.7069C12.9917 24.8088 13.0938 24.8768 13.2299 24.9108ZM23.8475 13.4919C23.8475 13.7298 23.8475 13.9677 23.7795 14.2056C23.7114 14.4095 23.6093 14.6474 23.5072 14.8513C23.3711 15.0892 23.235 15.3611 23.1329 15.633L23.0989 15.667C22.9627 15.9048 22.8606 16.1427 22.7245 16.3806C22.6565 16.3806 22.5544 16.3466 22.4863 16.3466C22.4523 16.3466 22.4182 16.3466 22.3842 16.3466C22.2821 16.1427 22.18 15.9388 22.0099 15.8029C22.5203 15.0892 22.9968 14.3755 23.4392 13.6619C23.5413 13.4919 23.6434 13.322 23.7114 13.1181C23.7114 13.0841 23.7454 13.0501 23.7454 13.0161C23.7454 13.0501 23.7795 13.0501 23.7795 13.0841C23.8475 13.2201 23.8475 13.356 23.8475 13.4919ZM23.6434 16.6865C23.4732 16.6185 23.3371 16.5506 23.1669 16.4826C23.269 16.2787 23.3711 16.0748 23.4732 15.8709C23.6093 15.599 23.7795 15.2931 23.9156 15.0212C23.9837 14.9193 24.0177 14.7833 24.0858 14.6814C24.1878 14.6474 24.2899 14.6814 24.358 14.7154C24.4601 14.7833 24.5282 14.9193 24.5622 15.0552C24.6302 15.4291 24.4601 15.8029 24.2559 16.2107L23.9496 16.8224C23.8475 16.7884 23.7454 16.7545 23.6434 16.6865ZM20.4785 20.6287C20.4445 20.6967 20.4445 20.7986 20.4785 20.8666C20.5466 21.0026 20.5125 21.1725 20.4104 21.2744C20.3083 21.3764 20.1042 21.3424 20.0021 21.2404H19.968C19.934 21.2065 19.9 21.2065 19.9 21.2065H19.8659C19.8319 21.2065 19.7638 21.2065 19.7298 21.2065C19.6958 21.2065 19.6618 21.2404 19.6277 21.2744V21.3084C19.5937 21.3424 19.5937 21.3764 19.5937 21.4104V21.4444C19.6277 21.7502 19.6277 22.0221 19.4916 22.226C19.4235 22.328 19.3214 22.3959 19.1853 22.4299C19.1513 22.4299 19.0832 22.4299 19.0152 22.3959C18.9811 22.3619 18.9471 22.3619 18.9131 22.328H18.879C18.845 22.328 18.811 22.328 18.777 22.328L18.7429 22.3619C18.7089 22.3959 18.7089 22.3959 18.6749 22.4299V22.4639C18.6749 22.4979 18.6408 22.5319 18.6408 22.5658V22.5998C18.6749 22.8037 18.5387 22.9737 18.3686 23.0756C18.2325 23.1776 17.9942 23.2455 17.8241 23.1436C17.756 23.1096 17.6539 23.1096 17.5859 23.1436C17.5178 23.1776 17.4838 23.2795 17.4838 23.3815C17.5178 23.5514 17.4157 23.7553 17.2796 23.8233C17.1775 23.8913 17.0754 23.8912 16.9733 23.8573C16.9393 23.8233 16.8712 23.7893 16.8372 23.7893C16.8372 23.7893 16.8372 23.7893 16.8032 23.7553C16.7351 23.6873 16.633 23.6873 16.565 23.7213C16.4969 23.7553 16.4288 23.8573 16.4288 23.9252C16.4288 24.0612 16.3267 24.1971 16.1906 24.1971C16.1226 24.1971 16.0885 24.1971 15.9864 24.1631C15.9524 24.1631 15.8843 24.1291 15.8843 24.1291C15.8163 24.0952 15.7482 24.0272 15.6461 23.9932C15.5781 23.9592 15.51 23.9252 15.476 23.9592C15.4079 23.9592 15.3739 24.0272 15.3399 24.0952C15.2378 24.3331 14.9655 24.401 14.7613 24.401C14.5571 24.401 14.2849 24.3331 14.1828 24.0952C14.1147 23.9932 14.0127 23.9592 13.9106 23.9932C13.8085 24.0272 13.7404 24.1631 13.8085 24.2651C13.8425 24.3331 13.8085 24.435 13.7404 24.469C13.6383 24.5709 13.5022 24.6389 13.3661 24.5709C13.0598 24.469 12.9237 24.0952 12.9237 23.7893C12.8896 23.5854 12.9237 23.3475 12.9577 23.0756C13.0598 23.1436 13.1959 23.1776 13.298 23.1436C13.3661 23.1436 13.4682 23.1096 13.5362 23.0756C13.6723 23.2455 13.8765 23.3475 14.0807 23.3815C14.2509 23.4155 14.421 23.3815 14.5571 23.3135C14.7954 23.4155 15.0676 23.4155 15.3399 23.3135C15.5781 23.2116 15.7823 23.0416 15.8843 22.8037C16.1566 22.8377 16.4288 22.7358 16.633 22.5319C16.8372 22.3619 16.9393 22.158 17.0074 21.9541C17.1775 21.9541 17.3477 21.9201 17.4838 21.8182C17.6539 21.7162 17.756 21.5803 17.7901 21.4104C18.0283 21.4444 18.3005 21.3764 18.5387 21.2065C18.7429 21.0705 18.9131 20.8666 18.9471 20.6287C19.0152 20.6287 19.0832 20.6287 19.1513 20.6287C19.4235 20.5947 19.6958 20.3908 19.8319 20.1529C19.968 19.8471 19.968 19.5412 19.9 19.2693C19.934 19.2693 19.968 19.2353 20.0021 19.2353C20.2403 19.1334 20.4445 18.8615 20.4785 18.5896C20.5125 18.4197 20.4785 18.2498 20.4785 18.1138C20.4785 17.9439 20.4445 17.808 20.4785 17.672C20.5125 17.5701 20.5806 17.4342 20.6486 17.3322C20.7167 17.2302 20.7507 17.1283 20.8188 17.0263C20.9209 16.7884 20.9209 16.5166 20.8188 16.3466C20.9549 16.2447 21.057 16.1427 21.091 15.9388C21.091 15.9388 21.091 15.9388 21.091 15.9048C21.2612 15.9048 21.3973 15.9388 21.5334 16.0408C21.5675 16.0748 21.6015 16.0748 21.6355 16.1088L21.6696 16.1427C21.8397 16.2787 21.9758 16.4826 22.0439 16.7205V16.7545C22.0439 16.8224 22.0779 16.8564 22.0779 16.9244C22.112 17.0943 22.0779 17.2982 22.0439 17.4681L21.9418 18.3178C21.9078 18.4877 21.9078 18.6916 21.8057 18.8275C21.7376 18.9295 21.6355 18.9975 21.5334 18.9635C21.4314 18.9295 21.3293 18.9635 21.2952 19.0314C21.2272 19.0994 21.2272 19.2014 21.2612 19.3033C21.3293 19.4053 21.5675 19.8471 21.3973 20.1529C21.2612 20.4248 20.9549 20.5947 20.6827 20.5607C20.6146 20.5268 20.5125 20.5607 20.4785 20.6287ZM23.3371 12.9822C23.269 13.1521 23.1669 13.288 23.0648 13.4579C22.6224 14.1716 22.18 14.8853 21.6696 15.565C21.4994 15.497 21.3293 15.4291 21.1591 15.4291C21.1591 15.3951 21.1931 15.3611 21.1931 15.3271C21.2272 15.2931 21.2272 15.2251 21.2612 15.1912C21.2952 15.1232 21.3633 15.0212 21.3973 14.9193C21.4654 14.6474 21.3633 14.3755 21.2612 14.1716C22.112 13.4579 22.5544 12.5064 22.9627 11.5888L23.0989 11.2829C23.303 11.4189 23.4051 11.6907 23.4392 11.9286C23.5072 12.3025 23.4732 12.6423 23.3371 12.9822ZM22.8266 10.8411C22.7926 10.8751 22.7586 10.9091 22.7586 10.9771V11.011C22.7245 11.045 22.7245 11.113 22.6905 11.147L22.5544 11.4189C22.146 12.2685 21.7717 13.1521 21.023 13.7638C20.9209 13.5599 20.8188 13.356 20.7167 13.1861C20.8869 12.9142 20.9549 12.5743 20.8869 12.2345C20.8528 12.0986 20.8188 11.9966 20.7507 11.8607C21.4314 11.181 22.0099 10.3653 22.4863 9.48173C22.5544 9.48173 22.6224 9.48173 22.7245 9.5497C22.8947 9.68564 23.0308 9.95752 22.9968 10.2294C22.9627 10.4673 22.8947 10.6712 22.8266 10.8411ZM22.4182 8.36024C22.4182 8.56415 22.3502 8.80204 22.2481 9.00595C21.8057 9.95752 21.1931 10.8071 20.4785 11.5208C20.4445 11.4868 20.4104 11.4868 20.4104 11.4528C20.4785 11.215 20.4104 10.9091 20.2062 10.7392C20.0701 10.6032 19.8659 10.5353 19.6618 10.5353L21.6696 8.32625C21.7036 8.32625 21.7376 8.29227 21.7376 8.25828L21.7717 8.2243C21.9418 8.05438 22.0779 7.98641 22.18 8.02039C22.3162 8.02039 22.4182 8.19032 22.4182 8.36024ZM19.9 11.045C20.0021 11.147 20.0021 11.3169 19.934 11.4189C19.9 11.4868 19.9 11.5548 19.9 11.6228C19.934 11.6907 19.968 11.7247 20.0361 11.7587C20.2403 11.8267 20.4104 12.0646 20.4785 12.3025C20.5466 12.5743 20.4785 12.8122 20.3083 12.9822C20.2403 13.0501 20.2403 13.1521 20.2743 13.254C20.4785 13.5939 20.6827 13.9677 20.8528 14.3415C20.9209 14.5115 20.989 14.6814 20.9549 14.7833C20.9549 14.8173 20.9209 14.8853 20.8869 14.9533C20.8528 15.0212 20.8188 15.0892 20.7848 15.1232C20.7167 15.2591 20.7167 15.4291 20.6827 15.565C20.6827 15.633 20.6827 15.7009 20.6486 15.7689C20.6146 15.8369 20.6146 15.9048 20.3764 15.9728C20.3083 16.0068 20.2403 16.0748 20.2403 16.1767C20.2403 16.2787 20.2743 16.3466 20.3764 16.3806C20.4785 16.4146 20.4785 16.6185 20.4104 16.7884C20.3764 16.8564 20.3424 16.9584 20.2743 17.0263C20.2062 17.1623 20.1042 17.2982 20.0701 17.5021C20.0021 17.706 20.0361 17.9099 20.0361 18.1138C20.0361 18.2498 20.0701 18.3857 20.0361 18.4877C20.0361 18.5896 19.934 18.7256 19.8319 18.7596L19.5937 18.7256H19.5597C19.5256 18.7256 19.5256 18.7256 19.4916 18.7596C19.4235 18.7935 19.3895 18.8955 19.3895 18.9975C19.4576 19.3373 19.5256 19.6432 19.3895 19.915C19.3214 20.017 19.1853 20.1189 19.0492 20.1529C18.9811 20.1529 18.9131 20.1529 18.879 20.085C18.811 20.017 18.7089 19.983 18.6068 20.017C18.5047 20.051 18.4707 20.1529 18.4707 20.2549C18.5047 20.4928 18.3686 20.6627 18.1984 20.7647C18.0623 20.8666 17.8241 20.9346 17.6199 20.8326C17.5518 20.7986 17.4498 20.7986 17.3817 20.8326C17.3136 20.9006 17.2796 20.9686 17.3136 21.0705C17.3477 21.1725 17.2456 21.2744 17.1775 21.3424C17.0754 21.4104 16.9733 21.4444 16.8712 21.3764C16.8032 21.3084 16.7011 21.3084 16.633 21.3764C16.565 21.4104 16.5309 21.5123 16.5309 21.6143C16.565 21.7842 16.4969 21.9881 16.3267 22.124C16.1566 22.26 15.9524 22.328 15.7823 22.26C15.7142 22.226 15.6461 22.226 15.5781 22.294C15.51 22.328 15.476 22.3959 15.476 22.4639C15.476 22.6338 15.3399 22.7698 15.1357 22.8377C14.9655 22.9057 14.7613 22.9057 14.6252 22.8037C14.5912 22.7698 14.5231 22.7358 14.4891 22.7358H14.4551C14.387 22.7358 14.3189 22.7698 14.2849 22.8377C14.2509 22.9057 14.1488 22.8717 14.1147 22.8717C13.9786 22.8377 13.8085 22.7358 13.7744 22.6338C13.7404 22.5319 13.6723 22.4639 13.6043 22.4639H13.5703C13.5022 22.4639 13.4341 22.4979 13.4001 22.5658C13.3661 22.5998 13.332 22.6338 13.264 22.6338C13.1959 22.6338 13.1279 22.5998 13.0598 22.5319C12.9577 22.4299 12.9577 22.192 12.9577 21.9201C12.9577 21.3084 12.9577 20.6627 13.0598 20.051C13.0598 19.983 13.0938 19.915 13.1279 19.8471C13.1619 19.7791 13.264 19.7111 13.4001 19.6771C14.421 19.2353 15.7142 18.6916 16.3267 17.5361C16.633 16.9244 16.7011 16.2787 16.7691 15.633C16.8032 15.4291 16.8032 15.2251 16.8372 15.0212L16.8712 14.7494C16.8712 14.6814 16.9053 14.5794 16.9053 14.5115C17.2115 13.254 18.1304 12.2345 18.9811 11.3169L19.2534 11.011C19.3214 11.079 19.4576 11.079 19.5256 11.011C19.6277 10.9431 19.7979 10.9771 19.9 11.045ZM19.3895 8.73407C19.4235 8.76805 19.4576 8.76805 19.4916 8.80204L19.5256 8.83602C19.5937 8.87001 19.6277 8.93798 19.6618 9.00595C19.7979 9.24384 19.8319 9.5497 19.7979 9.7876L18.6749 11.045C17.8922 11.9286 16.9733 12.9142 16.599 14.1376L16.565 14.0697C16.5309 14.0017 16.4969 13.9337 16.4629 13.8658L16.4288 13.7978C16.3948 13.7298 16.3608 13.6619 16.2927 13.5599L16.1566 13.288C16.599 12.5064 18.5387 10.0595 18.5728 10.0595C18.879 9.65166 19.1513 9.20986 19.3895 8.73407ZM20.8528 24.7069C20.5806 24.7409 20.3083 24.6049 20.0701 24.3331C19.8659 24.0952 19.6958 23.7553 19.5597 23.4494C19.4916 23.3135 19.4235 23.1776 19.3555 23.0076L19.2874 22.8037C19.5256 22.7698 19.7638 22.5998 19.9 22.3959C19.934 22.328 19.968 22.26 20.0021 22.158C20.1722 22.4299 20.3424 22.7018 20.5125 22.9057C20.8188 23.2795 21.1251 23.5514 21.4314 23.6873C21.4994 23.9252 21.4994 24.1631 21.3633 24.367C21.2612 24.5709 21.057 24.6729 20.8528 24.7069ZM27.4888 7.85047C27.4888 7.88445 27.4548 7.88445 27.4548 7.88445C27.3867 8.02039 27.2846 8.15633 27.2166 8.29227C27.1485 8.39422 27.0805 8.49618 27.0124 8.59813C26.7402 9.00595 26.5019 9.44775 26.2977 9.88955C25.8553 10.6712 25.413 11.4868 24.8344 12.1665C24.7664 12.2345 24.6983 12.3025 24.6302 12.3704C24.4941 12.5404 24.324 12.7103 24.1878 12.8802C24.1198 12.7443 24.0177 12.6423 23.8816 12.5743C23.9156 12.3364 23.9156 12.0986 23.8816 11.8946C23.8475 11.7587 23.8135 11.6568 23.7795 11.5208C25.3789 9.75361 26.6721 7.7825 27.6249 5.57349C27.8632 5.98131 27.9993 6.62702 27.8632 7.03483C27.7951 7.3407 27.6249 7.64656 27.4888 7.85047ZM20.2743 21.7502C20.4104 21.7502 20.5466 21.6822 20.6827 21.6143C20.7848 21.5463 20.8869 21.4104 20.9209 21.2744C21.4314 21.7502 21.9418 22.226 22.4523 22.6678C22.5544 22.8377 22.4863 23.2116 22.3842 23.2795C22.2481 23.3815 22.0099 23.4155 21.7717 23.3475C21.4654 23.2455 21.1591 23.0076 20.8528 22.6338C20.6827 22.3959 20.4445 22.0561 20.2743 21.7502ZM21.8057 20.3229C21.9078 20.1529 21.9078 19.949 21.9078 19.7111C21.9758 19.7451 22.0439 19.8131 22.112 19.8811L22.7926 20.4928C22.9627 20.6627 23.1329 20.8326 23.303 21.0026C23.3371 21.0365 23.3711 21.0705 23.3711 21.1045L23.4051 21.1385C23.5413 21.3084 23.6093 21.4783 23.6093 21.6483C23.6434 21.8862 23.5753 22.124 23.4051 22.26C23.269 22.3959 22.9627 22.4299 22.7926 22.328C22.2481 21.8862 21.7036 21.3764 21.1931 20.8666C21.4654 20.7986 21.7036 20.5607 21.8057 20.3229ZM23.9496 20.5268C23.8816 20.6287 23.7795 20.7307 23.6434 20.7307C23.4732 20.5268 23.269 20.3229 23.0989 20.1529L22.4182 19.5412C22.2821 19.4053 22.146 19.3373 22.0099 19.2353C22.0779 19.1674 22.146 19.0994 22.18 19.0314C22.3162 18.7935 22.3502 18.5557 22.3842 18.3517V18.2498C22.6905 18.3857 23.235 18.6236 23.4051 18.7935C23.6093 18.9975 23.7795 19.2353 23.8816 19.5072C23.8816 19.5072 23.8816 19.5412 23.9156 19.5752V19.6092C23.9496 19.7111 23.9837 19.8471 24.0177 19.949C24.0517 20.1869 24.0177 20.3908 23.9496 20.5268ZM24.2559 19.1674C24.1198 18.8955 23.9496 18.6576 23.7454 18.4537C23.5072 18.2498 22.9627 18.0119 22.5884 17.842L22.4863 17.808L22.5203 17.5361C22.5544 17.3322 22.5884 17.0943 22.5544 16.8904C22.5544 16.8904 22.5544 16.8904 22.5544 16.8564C22.7926 16.8564 23.1329 16.9584 23.4732 17.1283C23.6093 17.1963 23.7454 17.2642 23.8816 17.3662C23.8816 17.3662 23.9156 17.3662 23.9156 17.4002L23.9496 17.4342L23.9837 17.4681C24.1198 17.5701 24.2559 17.6381 24.358 17.74C24.6302 17.9779 24.7664 18.3178 24.7664 18.5896C24.7664 18.7256 24.4941 19.0314 24.2559 19.1674ZM24.8685 17.5701C24.8004 17.5021 24.7323 17.4342 24.6643 17.3662C24.5622 17.2642 24.4601 17.1623 24.2899 17.0943L24.6302 16.4486C24.7664 16.1767 24.9365 15.8029 25.0046 15.4291C25.8554 14.4435 26.57 13.424 27.2166 12.3364C27.3187 13.1521 27.2846 14.2056 27.0464 14.8173C26.57 15.9388 25.6512 16.8224 24.8685 17.5701ZM24.9365 14.7833C24.8685 14.6134 24.7664 14.4775 24.6302 14.3755C24.5282 14.3076 24.392 14.2396 24.2219 14.2396C24.2559 14.0357 24.2899 13.8318 24.2899 13.6619C24.358 13.254 24.6643 12.9482 24.9706 12.6423C25.0386 12.5743 25.1067 12.5064 25.1747 12.4044C25.8213 11.6907 26.2637 10.8411 26.7061 10.0255C26.9443 9.61767 27.1485 9.17587 27.4208 8.76805C27.4888 8.6661 27.5569 8.56415 27.5909 8.46219C27.659 8.36024 27.727 8.25828 27.7611 8.15633C27.7951 8.19032 27.8291 8.2243 27.8632 8.25828C28.2715 8.93798 27.8972 9.88955 27.5909 10.5353C26.8763 12.0986 25.9915 13.4579 24.9365 14.7833ZM23.5753 11.113C23.5072 11.011 23.4051 10.9431 23.303 10.8751C23.3711 10.6712 23.4392 10.4673 23.4392 10.2974C23.4732 9.95752 23.3711 9.61767 23.201 9.41376C24.7664 7.3407 26.536 4.99575 27.2846 2.14104C27.5909 2.17502 27.8291 2.37893 27.9312 2.75276C28.0333 3.19456 27.8972 3.67035 27.727 4.11215C26.8082 6.69499 25.413 9.07392 23.5753 11.113ZM23.6774 4.72387L21.4314 7.95242C21.3973 7.98641 21.3633 8.02039 21.3293 8.05438L20.2062 9.27783C20.1722 9.07392 20.1042 8.90399 20.0021 8.73407C19.968 8.70009 19.968 8.6661 19.934 8.63212C21.4314 6.83093 22.7926 4.85981 23.9156 2.78675C24.0858 2.51487 24.1878 2.27698 24.2899 2.03908C24.358 2.07307 24.4601 2.20901 24.4941 2.34494C24.7323 3.12659 24.1878 3.97621 23.6774 4.72387ZM23.5413 2.58284C22.4182 4.62192 21.091 6.55905 19.5937 8.32625C19.5937 8.32625 19.5597 8.32625 19.5597 8.29227C19.8659 7.47664 19.6618 7.06882 19.3895 6.8989C19.3214 6.83093 19.2194 6.79694 19.1513 6.79694C20.3764 5.23364 21.4314 3.56839 22.2481 1.7672L22.2821 1.73322C22.4182 1.46134 22.5544 1.15548 22.7586 0.917587C22.9627 0.679694 23.269 0.57774 23.5072 0.645709C23.8475 0.747664 23.9837 1.1215 23.9837 1.46134C23.9496 1.83517 23.7795 2.20901 23.5413 2.58284ZM19.0152 8.46219C18.777 8.97196 18.5047 9.37978 18.1984 9.75361C18.1304 9.85557 16.4969 11.8607 15.8843 12.8122L15.6802 12.4384C15.6461 12.3704 15.6121 12.3025 15.5781 12.2345L15.544 12.1665C15.51 12.0646 15.476 11.9966 15.4079 11.8946C15.4079 11.8607 15.3739 11.8267 15.3739 11.7927V11.7587C15.6802 11.3509 16.1566 10.6372 16.565 9.9915C17.0414 9.27783 17.5518 8.49618 17.8241 8.12234C17.9942 7.88445 18.1984 7.61257 18.4366 7.44265C18.5047 7.40867 18.5728 7.37468 18.6408 7.3407C18.6749 7.3407 18.7089 7.3407 18.7429 7.30671C18.845 7.27273 19.0152 7.23874 19.1173 7.3407C19.4235 7.47664 19.2194 8.02039 19.0152 8.46219ZM13.2299 2.99065C13.2299 3.09261 13.0938 3.19456 12.9237 3.29652C12.7535 3.3305 12.5493 3.39847 12.3792 3.46644C12.4132 3.36449 12.4132 3.26253 12.4132 3.16058C12.4472 2.95667 12.4813 2.65081 12.4813 2.37893C13.2299 2.71878 13.2299 2.95667 13.2299 2.99065ZM6.96829 2.0051C8.60176 1.93713 10.3714 1.93713 12.0048 2.0051C12.0389 2.37893 12.0048 2.75276 11.9708 3.09261C11.9027 3.46644 11.8347 3.84027 11.6986 4.18012C11.2221 5.13169 9.92896 5.60748 8.87401 5.23365C7.85309 4.85981 7.10441 3.84027 6.96829 2.65081C6.90023 2.41291 6.93426 2.20901 6.96829 2.0051ZM9.52059 0.475786H9.58866C10.3033 0.475786 11.5284 0.64571 11.9027 1.52931C11.052 1.49533 10.2012 1.46134 9.35044 1.46134C8.60176 1.46134 7.85309 1.46134 7.13844 1.49533C7.2065 1.35939 7.27457 1.25743 7.37666 1.15548C7.78503 0.713679 8.5337 0.475786 9.52059 0.475786Z" fill="white"/>
<path d="M9.3506 11.5551C9.55479 11.4532 9.69091 11.2833 9.75897 11.0454C10.0312 11.0454 10.2694 11.0114 10.5417 10.9434C10.6438 10.9094 10.7459 10.8075 10.7118 10.6715C10.6778 10.5696 10.5757 10.4676 10.4396 10.5016C9.86106 10.6376 9.24851 10.6036 8.70402 10.4336C8.60192 10.3997 8.49983 10.4336 8.43177 10.5356C8.29565 10.8075 8.32968 11.1473 8.53386 11.3852C8.66999 11.5212 8.87417 11.6231 9.07836 11.6231C9.14642 11.6231 9.24851 11.6231 9.3506 11.5551ZM9.28254 11.0454C9.24851 11.1133 9.21448 11.1473 9.14642 11.1813C9.04432 11.2153 8.9082 11.2153 8.80611 11.1133C8.77208 11.0794 8.73805 11.0114 8.73805 10.9434C8.94223 10.9774 9.11239 11.0114 9.28254 11.0454Z" fill="white"/>
<path d="M18.3006 13.3218C18.2326 13.3558 18.1985 13.3898 18.1645 13.4238C18.1305 13.4918 18.1305 13.5257 18.1645 13.5937C18.4367 14.4773 18.5048 15.4289 18.3006 16.3805L18.2326 16.6863C17.9603 17.8418 17.3478 18.8953 16.531 19.643C15.7823 20.3227 14.5572 20.9344 13.5363 20.4246C13.4682 20.3906 13.4342 20.3906 13.3662 20.4246C13.2981 20.4586 13.2641 20.4926 13.23 20.5266C13.162 20.6285 13.23 20.7645 13.3321 20.8324C13.6384 20.9684 13.9787 21.0703 14.353 21.0703C15.1698 21.0703 16.0886 20.6625 16.8373 19.9828C17.6881 19.2012 18.3346 18.1816 18.6409 16.9922L18.709 16.6863C18.9472 15.5988 18.9132 14.4773 18.5729 13.4578C18.5388 13.3558 18.4027 13.2878 18.3006 13.3218Z" fill="white"/>
<path d="M10.6776 13.4923C10.7116 13.1184 10.5415 12.6086 9.45249 12.3028C9.35039 12.2688 9.21427 12.3368 9.18024 12.4387C9.14621 12.5407 9.21427 12.6766 9.31636 12.7106C9.65667 12.8126 10.2352 13.0165 10.2012 13.3903C10.1671 13.7641 9.62264 14.1719 9.52055 14.2059C9.45249 14.2059 9.41845 14.2399 9.35039 14.2739C9.31636 14.3079 9.28233 14.3759 9.28233 14.4438C9.28233 14.5798 9.38442 14.6477 9.52055 14.6477C9.86085 14.6477 10.6095 14.104 10.6776 13.4923Z" fill="white"/>
<path d="M13.1957 15.1236C13.468 15.0557 13.8763 14.7498 14.0805 14.376C14.2166 14.1041 14.3187 13.6623 14.0125 13.1185C13.8423 12.8466 13.502 12.7107 13.2297 12.8127C13.1617 12.8127 13.1277 12.8806 13.0936 12.9146C13.0596 12.9826 13.0596 13.0166 13.0596 13.0845C13.0936 13.1525 13.1277 13.1865 13.1617 13.2205C13.2297 13.2545 13.2638 13.2545 13.3318 13.2205C13.4339 13.1865 13.5701 13.2545 13.6041 13.3564C13.7742 13.6283 13.8083 13.9002 13.6721 14.172C13.6041 14.342 13.468 14.4439 13.3659 14.5459C13.3659 14.172 13.1617 13.7302 12.7873 13.3224C12.7533 13.2884 12.6853 13.2545 12.6512 13.2545C12.5832 13.2545 12.5491 13.2545 12.4811 13.3224C12.447 13.3564 12.413 13.4244 12.413 13.4584C12.413 13.5263 12.413 13.5603 12.4811 13.6283C12.8894 14.0701 13.0256 14.4779 12.9235 14.7838C12.8554 14.9877 12.6853 15.1236 12.5491 15.2256C12.5491 14.9877 12.5151 14.7498 12.413 14.5119C12.413 14.5119 12.1408 13.9342 11.8685 13.7982C11.8005 13.7642 11.7664 13.7642 11.6984 13.7982C11.6303 13.8322 11.5963 13.8662 11.5963 13.9342C11.5622 14.0021 11.5622 14.0361 11.5963 14.1041C11.6303 14.172 11.6643 14.206 11.7324 14.206C11.8005 14.24 12.0046 14.5459 12.0387 14.6818C12.1748 14.9877 12.1748 15.2256 12.1067 15.4635C12.0727 15.4975 12.0727 15.5314 12.0727 15.5654C12.0387 15.6334 12.0046 15.6674 11.9706 15.7014C11.8685 15.8373 11.7324 15.9053 11.6303 15.9393C11.6303 15.7353 11.6303 15.4635 11.5282 15.2256C11.3921 14.8857 11.1879 14.6818 10.9157 14.5459C10.8476 14.5119 10.8136 14.5119 10.7455 14.5459C10.6774 14.5799 10.6434 14.6138 10.6094 14.6818C10.5753 14.7498 10.5753 14.7838 10.6094 14.8517C10.6434 14.9197 10.6774 14.9537 10.7455 14.9877C10.9497 15.0557 11.0518 15.2596 11.1198 15.3955C11.2219 15.6674 11.2219 15.9732 11.1879 16.1092C11.1539 16.1432 11.1198 16.1771 11.1198 16.2111C11.0177 16.3471 10.8816 16.449 10.7455 16.517C10.6094 16.551 10.4392 16.585 10.235 16.483C10.167 16.449 10.1329 16.449 10.0649 16.483C9.99683 16.517 9.96279 16.551 9.92876 16.585C9.8607 16.6869 9.92876 16.8229 10.0309 16.8908C10.201 16.9588 10.3712 17.0268 10.5413 17.0268C10.6774 17.0268 10.7795 16.9928 10.8816 16.9588C11.1198 16.8908 11.324 16.7209 11.4942 16.483C11.7324 16.449 12.1067 16.2791 12.3449 16.0072C12.413 15.9393 12.447 15.8713 12.5151 15.7693C12.5832 15.7014 12.9915 15.4635 13.1957 15.1236Z" fill="white"/>
</svg>
