<svg width="13" height="16" viewBox="0 0 13 16" fill="none" xmlns="http://www.w3.org/2000/svg">
<path d="M3.75 2.375V10.625C3.75 10.9897 3.89487 11.3394 4.15273 11.5973C4.41059 11.8551 4.76033 12 5.125 12H10.625C10.9897 12 11.3394 11.8551 11.5973 11.5973C11.8551 11.3394 12 10.9897 12 10.625V4.60388C12 4.4207 11.9634 4.23937 11.8923 4.07054C11.8212 3.90172 11.7171 3.74879 11.5861 3.62075L9.30706 1.39187C9.05019 1.1407 8.70521 1.00004 8.34594 1H5.125C4.76033 1 4.41059 1.14487 4.15273 1.40273C3.89487 1.66059 3.75 2.01033 3.75 2.375V2.375Z" stroke="#7BC244" stroke-width="2" stroke-linecap="round" stroke-linejoin="round"/>
<path d="M9.25 12V13.375C9.25 13.7397 9.10513 14.0894 8.84727 14.3473C8.58941 14.6051 8.23967 14.75 7.875 14.75H2.375C2.01033 14.75 1.66059 14.6051 1.40273 14.3473C1.14487 14.0894 1 13.7397 1 13.375V5.8125C1 5.44783 1.14487 5.09809 1.40273 4.84023C1.66059 4.58237 2.01033 4.4375 2.375 4.4375H3.75" stroke="#7BC244" stroke-width="2" stroke-linecap="round" stroke-linejoin="round"/>
</svg>
