<svg width="46" height="60" viewBox="0 0 46 60" fill="none" xmlns="http://www.w3.org/2000/svg">
<path d="M13.0226 45.275C12.4407 44.8451 11.5911 44.9351 11.1202 45.47L0.295528 57.9699C-0.169887 58.5099 -0.0752562 59.295 0.506607 59.7274C0.755614 59.9099 1.056 59.9999 1.35092 59.9999C1.74606 59.9999 2.14108 59.8399 2.40898 59.5324L13.2335 47.0324C13.6991 46.4925 13.6044 45.7074 13.0226 45.275Z" fill="#5F5F5F"/>
<path d="M45.7045 57.9676L34.8799 45.4676C34.4145 44.9326 33.5621 44.84 32.9776 45.2726C32.3957 45.7051 32.3011 46.49 32.7665 47.03L43.591 59.5301C43.8589 59.84 44.2513 60.0001 44.6491 60.0001C44.9468 60.0001 45.2444 59.9101 45.4934 59.7251C46.0751 59.2926 46.1699 58.5076 45.7045 57.9676Z" fill="#5F5F5F"/>
<path d="M41.9431 55H4.05722C3.31032 55 2.7041 55.56 2.7041 56.25C2.7041 56.94 3.31032 57.5001 4.05722 57.5001H41.9433C42.6902 57.5001 43.2964 56.94 43.2964 56.25C43.2963 55.56 42.69 55 41.9431 55Z" fill="#5F5F5F"/>
<path d="M37.8838 50H8.1163C7.3694 50 6.76318 50.56 6.76318 51.25C6.76318 51.94 7.3694 52.5001 8.1163 52.5001H37.8839C38.6308 52.5001 39.237 51.94 39.237 51.25C39.2369 50.5599 38.6307 50 37.8838 50Z" fill="#5F5F5F"/>
<path d="M45.683 40.905L43.7183 8.265C43.4423 3.63 39.2883 0 34.263 0H11.7371C6.71184 0 2.55787 3.63 2.28184 8.265L0.31718 40.9025C0.21164 42.635 0.86657 44.285 2.1574 45.545C3.44823 46.805 5.19369 47.5001 7.07172 47.5001H38.9284C40.8065 47.5001 42.5519 46.805 43.8428 45.5476C45.1336 44.2875 45.7885 42.6375 45.683 40.905ZM41.8754 43.8275C41.1015 44.5825 40.0542 45 38.9258 45H7.07172C5.94592 45 4.89864 44.5825 4.12206 43.8275C3.34815 43.0725 2.95567 42.0825 3.01795 41.0426L4.98261 8.40258C5.18012 5.09262 8.1488 2.50008 11.7371 2.50008H34.2631C37.8515 2.50008 40.8202 5.09262 41.0177 8.40258L42.9797 41.0426C43.0418 42.0825 42.6493 43.0725 41.8754 43.8275Z" fill="#5F5F5F"/>
<path d="M23.0001 2.5C20.7621 2.5 18.9409 4.18246 18.9409 6.25C18.9409 8.31754 20.7621 10 23.0001 10C25.2382 10 27.0594 8.31754 27.0594 6.25C27.0594 4.18258 25.2382 2.5 23.0001 2.5ZM23.0001 7.50004C22.2532 7.50004 21.647 6.94 21.647 6.25C21.647 5.56 22.2532 5.00008 23.0001 5.00008C23.747 5.00008 24.3532 5.56012 24.3532 6.25012C24.3532 6.94012 23.747 7.50004 23.0001 7.50004Z" fill="#5F5F5F"/>
<path d="M21.1978 10.32C20.9109 10.08 20.5294 9.96993 20.145 10.0074L7.96737 11.2575C7.27997 11.3274 6.76318 11.8625 6.76318 12.5V21.25C6.76318 21.605 6.92822 21.9451 7.21515 22.1825C7.46416 22.3875 7.78344 22.5 8.1163 22.5C8.16767 22.5 8.21638 22.4975 8.26509 22.4925L20.4427 21.2424C21.1301 21.1725 21.6469 20.6374 21.6469 19.9999V11.25C21.6469 10.895 21.4819 10.5549 21.1978 10.32ZM18.9408 18.8825L9.46928 19.855V13.6201L18.9408 12.6474V18.8825Z" fill="#7BC244"/>
<path d="M38.0356 11.255L25.858 10.0049C25.4737 9.96987 25.0922 10.0799 24.8052 10.3175C24.5184 10.555 24.3533 10.895 24.3533 11.2499V20C24.3533 20.6375 24.8702 21.1724 25.5575 21.2425L37.7351 22.4925C37.7838 22.4976 37.8325 22.5 37.8839 22.5C38.2168 22.5 38.536 22.3875 38.7851 22.1826C39.0719 21.945 39.237 21.6051 39.237 21.2501V12.5001C39.2371 11.8625 38.7202 11.3274 38.0356 11.255ZM36.531 19.8524L27.0595 18.8799V12.6474L36.531 13.6199V19.8524Z" fill="#7BC244"/>
<path d="M24.0254 35.435C23.5356 34.9075 11.9019 22.5 2.7037 22.5C1.9568 22.5 1.35059 23.06 1.35059 23.75C1.35059 24.44 1.9568 25 2.7037 25C10.6624 25 21.8605 36.9424 21.9742 37.065C22.2421 37.3525 22.6182 37.5 22.9998 37.5C23.3137 37.5 23.6249 37.4 23.8792 37.1975C24.4475 36.7475 24.5125 35.9575 24.0254 35.435Z" fill="#5F5F5F"/>
<path d="M43.2961 22.5C34.0979 22.5 22.4642 34.9075 21.9717 35.435C21.4872 35.9576 21.5522 36.7475 22.1178 37.1975C22.3749 37.4 22.6861 37.5 23 37.5C23.3816 37.5 23.7605 37.3525 24.0256 37.065C27.1431 33.7075 36.685 25 43.2961 25C44.043 25 44.6492 24.4399 44.6492 23.7499C44.6492 23.0599 44.043 22.5 43.2961 22.5Z" fill="#5F5F5F"/>
<path d="M9.46913 35C7.2311 35 5.40991 36.6825 5.40991 38.75C5.40991 40.8175 7.2311 42.5 9.46913 42.5C11.7072 42.5 13.5283 40.8175 13.5283 38.75C13.5283 36.6825 11.7072 35 9.46913 35ZM9.46913 39.9999C8.72223 39.9999 8.11601 39.4399 8.11601 38.7499C8.11601 38.0599 8.72223 37.5 9.46913 37.5C10.216 37.5 10.8222 38.06 10.8222 38.75C10.8222 39.44 10.216 39.9999 9.46913 39.9999Z" fill="#5F5F5F"/>
<path d="M36.5309 35C34.2929 35 32.4717 36.6825 32.4717 38.75C32.4717 40.8175 34.2929 42.5 36.5309 42.5C38.7689 42.5 40.5901 40.8175 40.5901 38.75C40.5901 36.6825 38.7688 35 36.5309 35ZM36.5309 39.9999C35.784 39.9999 35.1778 39.4399 35.1778 38.7499C35.1778 38.0599 35.784 37.5 36.5309 37.5C37.2778 37.5 37.884 38.06 37.884 38.75C37.884 39.44 37.2778 39.9999 36.5309 39.9999Z" fill="#5F5F5F"/>
</svg>
