<svg width="60" height="60" viewBox="0 0 60 60" fill="none" xmlns="http://www.w3.org/2000/svg">
<path d="M58.395 26.41C54.2125 22.395 42.57 22.4074 39.375 22.48L25.01 2.58996C23.84 0.9675 21.945 0 19.945 0H18.75C18.3725 0 18.0175 0.170039 17.78 0.462539C17.5425 0.755039 17.45 1.14 17.5275 1.5075L22.2425 23.895L11.7176 24.9475L4.63512 17.865C4.40016 17.6325 4.08258 17.5 3.75012 17.5H1.25004C0.84 17.5 0.4575 17.7025 0.222539 18.04C-0.00996093 18.375 -0.0649219 18.805 0.0800391 19.1899L3.375 27.975L0.855 28.815C0.345 28.985 0 29.4625 0 30C0 30.5375 0.345 31.015 0.855 31.185L3.375 32.025L0.0800391 40.8125C-0.0649219 41.195 -0.00996093 41.625 0.222539 41.9625C0.4575 42.2975 0.84 42.5 1.25004 42.5H3.75C4.08246 42.5 4.40004 42.3675 4.63254 42.135L11.715 35.0525L22.24 36.105L17.5275 58.4925C17.45 58.86 17.5425 59.245 17.78 59.5375C18.0176 59.83 18.3725 60 18.75 60H19.945C21.945 60 23.8375 59.0325 25.0099 57.41L39.375 37.52C42.5625 37.5975 54.21 37.605 58.395 33.59C59.46 32.5675 60 31.36 60 30C60 28.64 59.46 27.4325 58.395 26.41ZM56.6675 31.78C53.4275 34.8925 42.6825 35.1675 38.8025 34.9975C38.4075 34.9699 37.9826 35.175 37.7375 35.515L22.985 55.9425C22.35 56.82 21.3626 57.38 20.295 57.48L24.975 35.255C25.0475 34.9076 24.97 34.5476 24.76 34.26C24.55 33.975 24.2275 33.79 23.875 33.755L11.375 32.505C11.3325 32.5025 11.2925 32.5 11.25 32.5C10.92 32.5 10.6025 32.6299 10.3675 32.865L3.2325 40H3.05496L6.16992 31.69C6.28746 31.3725 6.27492 31.02 6.12738 30.7125C5.97984 30.405 5.71734 30.1725 5.39484 30.065L5.20254 30L5.39754 29.935C5.72004 29.8275 5.98254 29.5924 6.13008 29.2875C6.27762 28.9826 6.29004 28.6275 6.17262 28.31L3.05508 20H3.23262L10.3676 27.135C10.6325 27.4 11.0026 27.52 11.375 27.495L23.8751 26.245C24.2276 26.2075 24.5501 26.025 24.7601 25.7374C24.9701 25.4524 25.0475 25.09 24.9751 24.7424L20.295 2.51754C21.3625 2.6175 22.35 3.17754 22.9825 4.05504L37.7374 24.4826C37.9825 24.8251 38.3749 25.0426 38.8024 25.0001C42.6599 24.8375 53.4175 25.1 56.665 28.2151C57.235 28.7602 57.4999 29.3276 57.4999 30.0001C57.4999 30.6727 57.235 31.24 56.6675 31.78Z" fill="#5F5F5F"/>
<path d="M49.0525 26.2874C48.3901 26.1149 47.7125 26.5224 47.5426 27.1899C47.3725 27.8549 47.7751 28.5348 48.4401 28.7099C48.4551 28.7149 50.0001 29.1574 50.0001 29.9999C50.0001 30.8424 48.4551 31.2849 48.4501 31.2874C47.7801 31.4549 47.3725 32.1325 47.5401 32.8024C47.68 33.3724 48.19 33.7499 48.7501 33.7499C48.85 33.7499 48.9526 33.7374 49.0525 33.7124C50.3326 33.3924 52.5001 32.2499 52.5001 29.9999C52.5001 27.7499 50.3326 26.6074 49.0525 26.2874Z" fill="#7BC244"/>
</svg>
