<svg width="60" height="38" viewBox="0 0 60 38" fill="none" xmlns="http://www.w3.org/2000/svg">
<path d="M11.25 25.3334C7.80242 25.3334 5 28.1758 5 31.6667C5 35.1576 7.80242 38.0001 11.25 38.0001C14.6975 38.0001 17.4999 35.1577 17.4999 31.6668C17.4999 28.1759 14.6975 25.3334 11.25 25.3334ZM11.25 35.4668C9.18242 35.4668 7.49996 33.7619 7.49996 31.6668C7.49996 29.5717 9.18242 27.8668 11.25 27.8668C13.3175 27.8668 15 29.5717 15 31.6668C15 33.7619 13.3175 35.4668 11.25 35.4668Z" fill="#5F5F5F"/>
<path d="M48.75 25.3334C45.3024 25.3334 42.5 28.1758 42.5 31.6667C42.5 35.1576 45.3024 38.0001 48.75 38.0001C52.1975 38.0001 54.9999 35.1577 54.9999 31.6668C54.9999 28.1759 52.1975 25.3334 48.75 25.3334ZM48.75 35.4668C46.6824 35.4668 45 33.7619 45 31.6668C45 29.5717 46.6824 27.8668 48.75 27.8668C50.8175 27.8668 52.5 29.5717 52.5 31.6668C52.5 33.7619 50.8175 35.4668 48.75 35.4668Z" fill="#5F5F5F"/>
<path d="M38.75 20.2667H36.25C35.56 20.2667 35 20.8342 35 21.5334C35 22.2326 35.5599 22.8 36.2499 22.8H38.7499C39.4399 22.8 39.9999 22.2325 39.9999 21.5333C39.9999 20.8341 39.44 20.2667 38.75 20.2667Z" fill="#7BC244"/>
<path d="M57.16 16.0233C55.345 15.5622 53.6899 14.6122 52.3725 13.2746L41.1 1.85428C39.9175 0.658706 38.35 0 36.68 0H6.24996C2.80254 0 0 2.8424 0 6.33329V26.6C0 30.0909 2.80254 32.9333 6.24996 32.9333C6.93996 32.9333 7.5 32.3658 7.5 31.6666C7.5 30.9674 6.93996 30.4 6.24996 30.4C4.18242 30.4 2.49996 28.6951 2.49996 26.6V6.33329C2.49996 4.23819 4.18242 2.53329 6.24996 2.53329H36.6799C37.6649 2.53329 38.6324 2.93859 39.3299 3.648L50.6024 15.0683C52.2398 16.7327 54.2999 17.9132 56.5523 18.4832C57.1098 18.6251 57.4998 19.1292 57.4998 19.7119V26.6C57.4998 28.6951 55.8173 30.4 53.7498 30.4C53.0598 30.4 52.4998 30.9675 52.4998 31.6667C52.4998 32.3659 53.0598 32.9334 53.7498 32.9334C57.1975 32.9333 60 30.0909 60 26.6V19.7119C60 17.9639 58.83 16.4489 57.16 16.0233Z" fill="#5F5F5F"/>
<path d="M43.75 30.4H16.25C15.56 30.4 15 30.9675 15 31.6667C15 32.3659 15.56 32.9334 16.25 32.9334H43.7501C44.4401 32.9334 45.0001 32.3659 45.0001 31.6667C45.0001 30.9675 44.44 30.4 43.75 30.4Z" fill="#5F5F5F"/>
<path d="M46.25 15.2001H32.5V6.33336C32.5 5.63416 31.9399 5.06665 31.2499 5.06665C30.5599 5.06665 30 5.63416 30 6.33336V16.4667C30 17.1659 30.56 17.7334 31.25 17.7334H46.25C46.94 17.7334 47.5001 17.1659 47.5001 16.4667C47.5001 15.7675 46.94 15.2001 46.25 15.2001Z" fill="#7BC244"/>
<path d="M23.75 7.59998H8.75004C8.06004 7.59998 7.5 8.16748 7.5 8.86668C7.5 9.56588 8.06004 10.1334 8.75004 10.1334H23.75C24.44 10.1334 25.0001 9.56588 25.0001 8.86668C25.0001 8.16748 24.44 7.59998 23.75 7.59998Z" fill="#5F5F5F"/>
<path d="M23.75 15.2H8.75004C8.06004 15.2 7.5 15.7675 7.5 16.4667C7.5 17.1659 8.06004 17.7334 8.75004 17.7334H23.75C24.44 17.7334 25.0001 17.1659 25.0001 16.4667C25.0001 15.7675 24.44 15.2 23.75 15.2Z" fill="#5F5F5F"/>
</svg>
