<svg width="42" height="50" viewBox="0 0 42 50" fill="none" xmlns="http://www.w3.org/2000/svg">
<path d="M10.7291 32.1685C10.7291 31.3381 10.1529 30.8429 9.13629 30.8429C8.72116 30.8429 8.44002 30.8839 8.29297 30.9231V33.5872C8.46709 33.6264 8.68113 33.6395 8.97617 33.6395C10.0598 33.6395 10.7291 33.0921 10.7291 32.1685Z" fill="#7BC244"/>
<path d="M17.0211 30.8708C16.5659 30.8708 16.2717 30.9101 16.0977 30.9509V36.8512C16.2718 36.8921 16.5529 36.8921 16.8071 36.8921C18.654 36.9052 19.8585 35.8885 19.8585 33.7344C19.8716 31.8612 18.774 30.8708 17.0211 30.8708Z" fill="#7BC244"/>
<path d="M28.7143 0H8.63223C5.69844 0 3.31065 2.38945 3.31065 5.32159V24.9999H2.79088C1.60679 24.9999 0.646484 25.9593 0.646484 27.1444V40.1493C0.646484 41.3344 1.60668 42.2936 2.79088 42.2936H3.31065V44.6783C3.31065 47.6137 5.69844 49.9999 8.63223 49.9999H36.0333C38.9652 49.9999 41.3533 47.6135 41.3533 44.6783V12.5948L28.7143 0ZM6.27213 29.4913C6.90058 29.3851 7.78393 29.3051 9.02849 29.3051C10.2862 29.3051 11.1826 29.5451 11.785 30.0274C12.3603 30.4818 12.7486 31.2319 12.7486 32.1146C12.7486 32.9972 12.4544 33.7475 11.919 34.2557C11.2228 34.9111 10.1931 35.2053 8.98856 35.2053C8.72049 35.2053 8.4802 35.1921 8.29229 35.166V38.3908H6.27213V29.4913ZM36.0333 46.7409H8.63223C7.49626 46.7409 6.57122 45.8158 6.57122 44.6783V42.2936H32.1146C33.2989 42.2936 34.2591 41.3344 34.2591 40.1493V27.1444C34.2591 25.9593 33.2989 24.9999 32.1146 24.9999H6.57122V5.32159C6.57122 4.18727 7.49636 3.26223 8.63223 3.26223L27.495 3.24252V10.2149C27.495 12.2514 29.1474 13.9054 31.1855 13.9054L38.0157 13.8858L38.0926 44.6782C38.0926 45.8158 37.1692 46.7409 36.0333 46.7409ZM14.0512 38.35V29.4913C14.8005 29.3721 15.777 29.3051 16.8077 29.3051C18.5204 29.3051 19.6311 29.6123 20.5014 30.2677C21.438 30.9639 22.0263 32.0738 22.0263 33.6672C22.0263 35.3931 21.3978 36.5847 20.5274 37.3201C19.5778 38.1095 18.1323 38.4838 16.3663 38.4838C15.3087 38.4838 14.5595 38.4168 14.0512 38.35ZM28.6556 33.1051V34.764H25.4169V38.3908H23.3698V29.3721H28.8827V31.044H25.4169V33.1051H28.6556Z" fill="#7BC244"/>
</svg>
