<svg width="11" height="11" viewBox="0 0 11 11" fill="none" xmlns="http://www.w3.org/2000/svg">
<path d="M5.40735 7.36765C5.41836 7.38171 5.43242 7.39308 5.44847 7.4009C5.46452 7.40872 5.48214 7.41279 5.5 7.41279C5.51786 7.41279 5.53548 7.40872 5.55153 7.4009C5.56758 7.39308 5.58164 7.38171 5.59265 7.36765L7.23971 5.28382C7.3 5.20735 7.24559 5.09412 7.14706 5.09412H6.05735V0.117647C6.05735 0.0529412 6.00441 0 5.93971 0H5.05735C4.99265 0 4.93971 0.0529412 4.93971 0.117647V5.09265H3.85294C3.75441 5.09265 3.7 5.20588 3.76029 5.28235L5.40735 7.36765ZM10.8824 6.85294H10C9.93529 6.85294 9.88235 6.90588 9.88235 6.97059V9.23529H1.11765V6.97059C1.11765 6.90588 1.06471 6.85294 1 6.85294H0.117647C0.0529412 6.85294 0 6.90588 0 6.97059V9.88235C0 10.1426 0.210294 10.3529 0.470588 10.3529H10.5294C10.7897 10.3529 11 10.1426 11 9.88235V6.97059C11 6.90588 10.9471 6.85294 10.8824 6.85294Z" fill="#7BC244"/>
</svg>
