<svg width="13" height="11" viewBox="0 0 13 11" fill="none" xmlns="http://www.w3.org/2000/svg">
<path d="M11.7966 4.41123C12.0678 4.76597 12.0678 5.24487 11.7966 5.59904C10.9424 6.71419 8.89287 9.01028 6.50009 9.01028C4.1073 9.01028 2.05782 6.71419 1.20358 5.59904C1.07163 5.42919 1 5.22022 1 5.00514C1 4.79005 1.07163 4.58109 1.20358 4.41123C2.05782 3.29609 4.1073 1 6.50009 1C8.89287 1 10.9424 3.29609 11.7966 4.41123V4.41123Z" stroke="#7BC244" stroke-width="2" stroke-linecap="round" stroke-linejoin="round"/>
<path d="M6.50012 6.72204C7.44811 6.72204 8.21661 5.95354 8.21661 5.00555C8.21661 4.05756 7.44811 3.28906 6.50012 3.28906C5.55213 3.28906 4.78363 4.05756 4.78363 5.00555C4.78363 5.95354 5.55213 6.72204 6.50012 6.72204Z" stroke="#7BC244" stroke-width="2" stroke-linecap="round" stroke-linejoin="round"/>
</svg>
