<svg width="25" height="24" viewBox="0 0 25 24" fill="none" xmlns="http://www.w3.org/2000/svg">
<g clip-path="url(#clip0_462:190)">
<path d="M7.86281 15.7959L13.2822 18.1184L13.2828 18.1172C13.3796 18.1587 13.483 18.1811 13.5873 18.1811C13.6906 18.1811 13.7944 18.1603 13.8922 18.1185L19.3115 15.796C19.5961 15.6739 19.7807 15.394 19.7807 15.0843V8.8907C19.7807 8.58103 19.5961 8.30106 19.3114 8.17903L13.8921 5.85644C13.6973 5.77311 13.4768 5.77311 13.2821 5.85644L7.86272 8.17903C7.5781 8.30106 7.39355 8.58103 7.39355 8.8907V15.0843C7.39355 15.394 7.5781 15.6739 7.86281 15.7959ZM18.2323 14.5737L14.3613 16.2328V11.7238L18.2323 10.0648V14.5737ZM13.5871 7.41044L17.0411 8.8907L13.5871 10.371L10.1331 8.8907L13.5871 7.41044ZM8.94195 10.0648L12.8129 11.7238V16.2327L8.94195 14.5737V10.0648Z" fill="#7BC244"/>
<path d="M5.61863 17.6336C5.31621 17.3314 4.82614 17.3314 4.52372 17.6336L4.29698 17.8604V3.01786L4.52372 3.2446C4.67488 3.39576 4.87298 3.47135 5.07117 3.47135C5.26937 3.47135 5.46747 3.39576 5.61863 3.2446C5.92095 2.94218 5.92095 2.45212 5.61863 2.1497L4.07024 0.601304C3.76782 0.299077 3.27775 0.299077 2.97533 0.601304L1.42694 2.1497C1.12461 2.45212 1.12461 2.94218 1.42694 3.2446C1.72936 3.54683 2.21942 3.54683 2.52184 3.2446L2.74859 3.01786V17.8604L2.52184 17.6336C2.21942 17.3314 1.72936 17.3314 1.42694 17.6336C1.12461 17.936 1.12461 18.4261 1.42694 18.7285L2.97533 20.2769C3.12649 20.4281 3.32459 20.5037 3.52278 20.5037C3.72098 20.5037 3.91908 20.4281 4.07024 20.2769L5.61863 18.7285C5.92095 18.4261 5.92095 17.936 5.61863 17.6336Z" fill="#7BC244"/>
<path d="M24.1992 21.5046L22.6508 19.9562C22.3484 19.6539 21.8583 19.6539 21.5559 19.9562C21.2536 20.2586 21.2536 20.7486 21.5559 21.0511L21.7827 21.2778H6.94017L7.16692 21.0511C7.46924 20.7486 7.46924 20.2586 7.16692 19.9562C6.8645 19.6539 6.37443 19.6539 6.07201 19.9562L4.52362 21.5046C4.22129 21.807 4.22129 22.297 4.52362 22.5995L6.07201 24.1479C6.22317 24.299 6.42127 24.3746 6.61946 24.3746C6.81766 24.3746 7.01575 24.299 7.16692 24.1479C7.46924 23.8454 7.46924 23.3554 7.16692 23.0529L6.94017 22.8262H21.7827L21.5559 23.0529C21.2536 23.3554 21.2536 23.8454 21.5559 24.1479C21.7071 24.299 21.9052 24.3746 22.1034 24.3746C22.3016 24.3746 22.4997 24.299 22.6508 24.1479L24.1992 22.5995C24.5016 22.297 24.5016 21.807 24.1992 21.5046Z" fill="#7BC244"/>
</g>
<defs>
<clipPath id="clip0_462:190">
<rect width="23.9288" height="24" fill="white" transform="translate(0.953125)"/>
</clipPath>
</defs>
</svg>
