<svg width="25" height="24" viewBox="0 0 25 24" fill="none" xmlns="http://www.w3.org/2000/svg">
<path d="M9.90594 2H5.31281C4.03754 2 3 3.03754 3 4.31281V8.90594C3 10.1812 4.03754 11.2188 5.31281 11.2188H9.90594C11.1812 11.2188 12.2188 10.1812 12.2188 8.90594V4.31281C12.2188 3.03754 11.1812 2 9.90594 2ZM10.6562 8.90594C10.6562 9.31965 10.3196 9.65625 9.90594 9.65625H5.31281C4.8991 9.65625 4.5625 9.31965 4.5625 8.90594V4.31281C4.5625 3.8991 4.8991 3.5625 5.31281 3.5625H9.90594C10.3196 3.5625 10.6562 3.8991 10.6562 4.31281V8.90594Z" fill="#7BC244"/>
<path d="M20.6562 2H16.125C14.8327 2 13.7812 3.05141 13.7812 4.34375V8.875C13.7812 10.1673 14.8327 11.2188 16.125 11.2188H20.6562C21.9486 11.2188 23 10.1673 23 8.875V4.34375C23 3.05141 21.9486 2 20.6562 2ZM21.4375 8.875C21.4375 9.30578 21.087 9.65625 20.6562 9.65625H16.125C15.6942 9.65625 15.3438 9.30578 15.3438 8.875V4.34375C15.3438 3.91297 15.6942 3.5625 16.125 3.5625H20.6562C21.087 3.5625 21.4375 3.91297 21.4375 4.34375V8.875Z" fill="#7BC244"/>
<path d="M9.90594 12.7812H5.31281C4.03754 12.7812 3 13.8188 3 15.0941V19.6872C3 20.9625 4.03754 22 5.31281 22H9.90594C11.1812 22 12.2188 20.9625 12.2188 19.6872V15.0941C12.2188 13.8188 11.1812 12.7812 9.90594 12.7812ZM10.6562 19.6872C10.6562 20.1009 10.3196 20.4375 9.90594 20.4375H5.31281C4.8991 20.4375 4.5625 20.1009 4.5625 19.6872V15.0941C4.5625 14.6804 4.8991 14.3438 5.31281 14.3438H9.90594C10.3196 14.3438 10.6562 14.6804 10.6562 15.0941V19.6872Z" fill="#7BC244"/>
<path d="M20.6562 12.7812H16.125C14.8327 12.7812 13.7812 13.8327 13.7812 15.125V19.6562C13.7812 20.9486 14.8327 22 16.125 22H20.6562C21.9486 22 23 20.9486 23 19.6562V15.125C23 13.8327 21.9486 12.7812 20.6562 12.7812ZM21.4375 19.6562C21.4375 20.087 21.087 20.4375 20.6562 20.4375H16.125C15.6942 20.4375 15.3438 20.087 15.3438 19.6562V15.125C15.3438 14.6942 15.6942 14.3438 16.125 14.3438H20.6562C21.087 14.3438 21.4375 14.6942 21.4375 15.125V19.6562Z" fill="#7BC244"/>
</svg>
