<svg width="24" height="22" viewBox="0 0 24 22" fill="none" xmlns="http://www.w3.org/2000/svg">
<path d="M23.9663 12.2635C23.9663 12.2634 23.9663 12.2633 23.9662 12.2632L19.4349 0.885463C19.3388 0.643716 19.0647 0.525699 18.823 0.621868C18.8228 0.621926 18.8226 0.621985 18.8225 0.622103L0.439561 7.942C0.364593 7.97439 0.299578 8.0261 0.251111 8.09182C0.0982299 8.17126 0.00164894 8.3285 0 8.50076V20.7501C0 21.0102 0.210947 21.2212 0.471127 21.2212H20.2585C20.5186 21.2212 20.7296 21.0102 20.7296 20.7501V14.0601L23.7033 12.8756C23.945 12.7792 24.0627 12.5052 23.9663 12.2635ZM19.7873 20.2789H0.942254V8.97188H19.7873V20.2789ZM7.86075 8.03199L15.7493 4.88863C16.4533 5.62865 17.4289 6.04925 18.4503 6.05325L19.237 8.03199H7.86075ZM20.7296 13.0481V8.50076C20.7296 8.24058 20.5186 8.02963 20.2585 8.02963H20.2509L19.2526 5.52229C19.2415 5.50139 19.2286 5.48148 19.214 5.46293C19.1634 5.23602 18.9533 5.0812 18.7216 5.10016C17.7713 5.18679 16.8415 4.78645 16.2515 4.03636C16.1047 3.85515 15.8466 3.8101 15.6471 3.93083C15.6247 3.93348 15.6025 3.9376 15.5806 3.94308L5.94986 7.77805C5.83332 7.82375 5.74009 7.91438 5.69121 8.02963H2.76646L18.7339 1.67177L22.917 12.1755L20.7296 13.0481Z" fill="#7BC244"/>
<path d="M2.22091 17.0983C3.1356 17.3686 3.85136 18.0835 4.12285 18.9979C4.18238 19.1974 4.36595 19.3342 4.57418 19.3342C4.59862 19.3327 4.62289 19.3291 4.64674 19.3234C4.66788 19.3294 4.68949 19.3338 4.71128 19.3366H16.0183C16.0378 19.3341 16.057 19.3301 16.0758 19.3248C16.3112 19.3821 16.5484 19.2377 16.6057 19.0023C16.6059 19.0015 16.6061 19.0006 16.6063 18.9997C16.8771 18.0845 17.5929 17.3686 18.5082 17.0978C18.7302 17.03 18.8681 16.8088 18.8314 16.5796C18.8377 16.5567 18.8423 16.5334 18.8451 16.5098V12.7408C18.8423 12.7172 18.8376 12.6939 18.831 12.6711C18.8679 12.4418 18.7299 12.2205 18.5078 12.1529C17.5925 11.8821 16.8768 11.166 16.6068 10.2504C16.5386 10.027 16.3152 9.88868 16.0848 9.92725C16.063 9.92119 16.0408 9.91677 16.0183 9.91406H4.71128C4.68755 9.91689 4.66405 9.9216 4.64108 9.9282C4.41194 9.89168 4.19086 10.0295 4.12285 10.2514C3.85189 11.1665 3.13607 11.8821 2.22091 12.1529C1.99895 12.2207 1.86102 12.4419 1.89771 12.6711C1.89159 12.694 1.88717 12.7173 1.88452 12.7408V16.5098C1.88723 16.532 1.89165 16.5539 1.89771 16.5753C1.85908 16.806 1.9973 17.0297 2.22091 17.0983ZM2.82678 12.9321C3.7728 12.5521 4.5226 11.8023 4.90256 10.8563H15.8266C16.2067 11.8023 16.9567 12.5521 17.9028 12.9321V16.3186C16.9571 16.6989 16.2074 17.4486 15.827 18.3943H4.90256C4.52218 17.4486 3.7725 16.6989 2.82678 16.3186V12.9321Z" fill="#7BC244"/>
<path d="M10.3648 17.4521C11.926 17.4521 13.1916 16.1865 13.1916 14.6253C13.1916 13.0641 11.926 11.7986 10.3648 11.7986C8.80365 11.7986 7.53809 13.0641 7.53809 14.6253C7.53962 16.1859 8.8043 17.4506 10.3648 17.4521ZM10.3648 12.7408C11.4056 12.7408 12.2494 13.5846 12.2494 14.6253C12.2494 15.6661 11.4056 16.5099 10.3648 16.5099C9.32407 16.5099 8.48034 15.6661 8.48034 14.6253C8.48034 13.5846 9.32407 12.7408 10.3648 12.7408Z" fill="#7BC244"/>
<path d="M5.1824 15.3321C5.57267 15.3321 5.88909 15.0157 5.88909 14.6254C5.88909 14.2351 5.57267 13.9187 5.1824 13.9187C4.79213 13.9187 4.47571 14.2351 4.47571 14.6254C4.47571 15.0157 4.79213 15.3321 5.1824 15.3321ZM5.1824 14.3898C5.31249 14.3898 5.41796 14.4953 5.41796 14.6254C5.41796 14.7555 5.31249 14.861 5.1824 14.861C5.05231 14.861 4.94683 14.7555 4.94683 14.6254C4.94683 14.4953 5.05231 14.3898 5.1824 14.3898Z" fill="#7BC244"/>
<path d="M15.5471 15.3321C15.9374 15.3321 16.2538 15.0157 16.2538 14.6254C16.2538 14.2351 15.9374 13.9187 15.5471 13.9187C15.1569 13.9187 14.8405 14.2351 14.8405 14.6254C14.8405 15.0157 15.1569 15.3321 15.5471 15.3321ZM15.5471 14.3898C15.6772 14.3898 15.7827 14.4953 15.7827 14.6254C15.7827 14.7555 15.6772 14.861 15.5471 14.861C15.4171 14.861 15.3116 14.7555 15.3116 14.6254C15.3116 14.4953 15.4171 14.3898 15.5471 14.3898Z" fill="#7BC244"/>
</svg>
