<svg width="24" height="24" viewBox="0 0 24 24" fill="none" xmlns="http://www.w3.org/2000/svg">
<path d="M23.0987 3.03586C23.0969 3.03548 23.0952 3.03511 23.0935 3.03478L17.6397 1.9538V1.2285C17.6397 0.551109 17.0885 0 16.4111 0H1.26659C0.589195 0 0.0380859 0.551109 0.0380859 1.2285V22.7715C0.0380859 23.4489 0.589195 24 1.26659 24H16.4111C17.0885 24 17.6396 23.4489 17.6396 22.7715V21.0914L23.9577 4.59919C24.2137 3.92522 23.805 3.18145 23.0987 3.03586ZM16.2334 22.5938H1.44434V1.40625H16.2334V22.5938ZM17.6397 17.1605V3.38742L22.5437 4.35942L17.6397 17.1605Z" fill="#7BC244"/>
<path d="M8.83887 4.07812C5.73701 4.07812 3.21387 6.588 3.21387 9.70312C3.21387 12.8165 5.73462 15.3263 8.83559 15.3281C8.83648 15.3281 8.83741 15.3282 8.8383 15.3282C8.83849 15.3282 8.83863 15.3281 8.83882 15.3281C8.83901 15.3281 8.83915 15.3282 8.83934 15.3282C8.83999 15.3282 8.84065 15.3281 8.8413 15.3281C11.9419 15.3267 14.4639 12.804 14.4639 9.70312C14.4639 6.6015 11.9405 4.07812 8.83887 4.07812ZM12.9987 9H11.2019C11.127 7.79545 10.8611 6.6878 10.4506 5.80462C11.7709 6.3525 12.7547 7.55217 12.9987 9ZM8.83887 13.6044C8.38559 12.9594 7.9849 11.8521 7.88459 10.4062H9.7931C9.69279 11.8521 9.2921 12.9593 8.83887 13.6044ZM7.88473 9C7.98527 7.55409 8.38587 6.44686 8.83887 5.80191C9.2921 6.44695 9.69279 7.55423 9.7931 9H7.88473ZM7.22834 5.80256C6.81738 6.68597 6.55113 7.79442 6.47594 9H4.67834C4.91646 7.56928 5.87177 6.35962 7.22834 5.80256ZM4.67838 10.4062H6.47585C6.5508 11.6117 6.81705 12.7201 7.22805 13.6036C5.87168 13.0465 4.91646 11.8369 4.67838 10.4062ZM10.4506 13.6016C10.8611 12.7185 11.127 11.6108 11.2019 10.4062H12.9986C12.7547 11.8541 11.7709 13.0537 10.4506 13.6016Z" fill="#7BC244"/>
<path d="M13.6084 18.5156H4.06934C3.68102 18.5156 3.36621 18.8304 3.36621 19.2188C3.36621 19.6071 3.68102 19.9219 4.06934 19.9219H13.6084C13.9967 19.9219 14.3115 19.6071 14.3115 19.2188C14.3115 18.8304 13.9967 18.5156 13.6084 18.5156Z" fill="#7BC244"/>
</svg>
