<svg width="24" height="24" viewBox="0 0 24 24" fill="none" xmlns="http://www.w3.org/2000/svg">
<path d="M23.3834 18.6537L19.4068 14.6755C18.5827 13.851 17.2488 13.8509 16.4245 14.6755L15.4304 15.6701C14.608 16.4927 13.2702 16.4926 12.4447 15.6668L8.28117 11.5568C7.45889 10.7341 7.45889 9.39578 8.28117 8.57316L9.2753 7.57864C10.0976 6.75607 10.0976 5.41766 9.2753 4.59505L5.29885 0.616927C4.47657 -0.205689 3.13862 -0.205595 2.31648 0.616927L1.32245 1.61146C0.0320752 2.90231 -0.347424 5.74841 0.332028 9.03896C0.765059 11.1361 2.01085 15.1738 5.48921 18.6536C8.96053 22.1264 12.9639 23.3182 15.0412 23.7195C17.3247 24.1607 20.7562 24.2653 22.3892 22.6318L23.3834 21.6372C24.2055 20.8146 24.2055 19.4762 23.3834 18.6537ZM3.3107 1.61146C3.58482 1.33727 4.03069 1.33722 4.30487 1.61146L8.28136 5.58958C8.55549 5.86381 8.55549 6.30992 8.28136 6.58415L7.78678 7.07893L2.81607 2.10628L3.3107 1.61146ZM15.3079 22.3386C13.3884 21.9678 9.68967 20.8668 6.48333 17.6591C3.26396 14.4383 2.11014 10.6976 1.70889 8.75446C1.17737 6.18053 1.39867 4.24573 1.91476 3.19362L6.84211 8.12303C5.93785 9.48788 6.08644 11.3501 7.29043 12.5546L11.454 16.6646C12.6545 17.8656 14.5149 18.0152 15.8804 17.1099L20.8117 22.0433C19.309 22.8056 16.972 22.6601 15.3079 22.3386ZM22.3893 20.6427L21.8946 21.1375L16.924 16.1649L17.4186 15.6701C17.6933 15.3953 18.1379 15.3953 18.4127 15.6701L22.3892 19.6482C22.6633 19.9224 22.6633 20.3685 22.3893 20.6427Z" fill="#7BC244"/>
</svg>
