<svg width="20" height="24" viewBox="0 0 20 24" fill="none" xmlns="http://www.w3.org/2000/svg">
<path d="M4.95491 0.703125L4.95491 12.7501L1.43928 12.7501C0.839751 12.7501 0.515235 13.4557 0.905423 13.9108L9.34292 23.7546C9.62319 24.0817 10.1301 24.0819 10.4106 23.7546L18.8481 13.9108C19.238 13.4561 18.915 12.7501 18.3143 12.7501L14.7987 12.7501L14.7987 0.703124C14.7987 0.314811 14.4838 -6.00966e-07 14.0955 -5.83992e-07L5.65798 -2.15175e-07C5.26967 -1.98202e-07 4.95491 0.314812 4.95491 0.703125ZM13.3925 1.40625L13.3925 13.4532C13.3925 13.8415 13.7073 14.1563 14.0956 14.1563L16.7856 14.1563L9.87683 22.2166L2.96802 14.1563L5.65803 14.1563C6.04634 14.1563 6.36116 13.8415 6.36116 13.4532L6.36116 1.40625L13.3925 1.40625Z" fill="#7BC244"/>
</svg>
