<svg width="20" height="24" viewBox="0 0 20 24" fill="none" xmlns="http://www.w3.org/2000/svg">
<path d="M14.7988 23.2969L14.7988 11.2499L18.3144 11.2499C18.9139 11.2499 19.2384 10.5443 18.8482 10.0892L10.4107 0.24539C10.1305 -0.0816566 9.62357 -0.0819379 9.34307 0.24539L0.905521 10.0892C0.515661 10.5439 0.83863 11.2499 1.43938 11.2499L4.95501 11.2499L4.955 23.2969C4.955 23.6852 5.26982 24 5.65813 24L14.0957 24C14.484 24 14.7988 23.6852 14.7988 23.2969ZM6.36121 22.5937L6.36121 10.5468C6.36121 10.1585 6.04639 9.84366 5.65808 9.84366L2.96807 9.84366L9.87683 1.78341L16.7856 9.84366L14.0956 9.84366C13.7073 9.84366 13.3925 10.1585 13.3925 10.5468L13.3925 22.5937L6.36121 22.5937Z" fill="#7BC244"/>
</svg>
