<svg width="24" height="24" viewBox="0 0 24 24" fill="none" xmlns="http://www.w3.org/2000/svg">
<path d="M12.0469 0C5.4893 0 0 5.29805 0 11.9531C0 18.5458 5.43347 24 12.0469 24C18.7092 24 24 18.5036 24 11.9531C24 5.34656 18.6539 0 12.0469 0ZM12.0469 22.6031C6.17963 22.6031 1.39687 17.8204 1.39687 11.9531C1.39687 6.13758 6.17963 1.39687 12.0469 1.39687C17.8624 1.39687 22.6031 6.13758 22.6031 11.9531C22.6031 17.8204 17.8624 22.6031 12.0469 22.6031Z" fill="#7BC244"/>
<path d="M12.0469 9.84375C10.8838 9.84375 9.9375 10.79 9.9375 11.9531V17.6719C9.9375 18.835 10.8838 19.7812 12.0469 19.7812C13.21 19.7812 14.1562 18.835 14.1562 17.6719V11.9531C14.1562 10.79 13.21 9.84375 12.0469 9.84375ZM12.75 17.6719C12.75 18.0596 12.4346 18.375 12.0469 18.375C11.6592 18.375 11.3438 18.0596 11.3438 17.6719V11.9531C11.3438 11.5654 11.6592 11.25 12.0469 11.25C12.4346 11.25 12.75 11.5654 12.75 11.9531V17.6719Z" fill="#7BC244"/>
<path d="M12.0469 4.21875C10.8838 4.21875 9.9375 5.16502 9.9375 6.32812C9.9375 7.49123 10.8838 8.4375 12.0469 8.4375C13.21 8.4375 14.1562 7.49123 14.1562 6.32812C14.1562 5.16502 13.21 4.21875 12.0469 4.21875ZM12.0469 7.03125C11.6592 7.03125 11.3438 6.71583 11.3438 6.32812C11.3438 5.94042 11.6592 5.625 12.0469 5.625C12.4346 5.625 12.75 5.94042 12.75 6.32812C12.75 6.71583 12.4346 7.03125 12.0469 7.03125Z" fill="#7BC244"/>
</svg>
