<svg width="16" height="24" viewBox="0 0 16 24" fill="none" xmlns="http://www.w3.org/2000/svg">
<path d="M7.91702 11.4962C10.08 11.4962 11.8397 9.7315 11.8397 7.56241C11.8397 5.39332 10.08 3.62866 7.91702 3.62866C5.75409 3.62866 3.99438 5.39332 3.99438 7.56241C3.99438 9.7315 5.75409 11.4962 7.91702 11.4962ZM7.91702 5.03472C9.30686 5.03472 10.4376 6.16868 10.4376 7.56241C10.4376 8.95619 9.3069 10.0901 7.91702 10.0901C6.52714 10.0901 5.39646 8.95619 5.39646 7.56241C5.39646 6.16868 6.52719 5.03472 7.91702 5.03472Z" fill="#7BC244"/>
<path d="M3.64596 14.6311C4.7085 16.0738 4.28162 15.5128 7.34212 19.8953C7.62029 20.2952 8.21182 20.2971 8.49159 19.896C11.5659 15.4926 11.1429 16.0503 12.1882 14.6311C13.247 13.1933 14.3419 11.7067 14.9419 9.9645C15.8103 7.44258 15.4349 4.94728 13.885 2.93822C13.885 2.93822 13.885 2.93817 13.8849 2.93817C12.4652 1.09838 10.2342 0 7.91706 0C5.59994 0 3.36896 1.09838 1.94917 2.93827C0.399264 4.94733 0.023881 7.44267 0.892328 9.96459C1.49223 11.7067 2.58716 13.1934 3.64596 14.6311ZM3.05802 3.7987C4.21418 2.30053 6.03066 1.40606 7.91706 1.40606C9.80346 1.40606 11.6199 2.30053 12.7761 3.7987L12.776 3.79866C14.027 5.42016 14.3254 7.44694 13.6166 9.50559C13.0866 11.0444 12.0565 12.4431 11.0603 13.7958C10.2847 14.8489 10.5168 14.5268 7.91706 18.2645C5.31999 14.5305 5.54919 14.8486 4.77379 13.7958C3.77762 12.4431 2.74751 11.0444 2.21757 9.50559C1.50868 7.44689 1.80714 5.42016 3.05802 3.7987Z" fill="#7BC244"/>
<path d="M4.22169 17.6797C4.01493 17.3515 3.58196 17.2534 3.25463 17.4608L1.26134 18.7235C0.826509 18.9989 0.826088 19.6365 1.26134 19.9122L7.54265 23.8914C7.77132 24.0363 8.06277 24.0362 8.2914 23.8914L14.5727 19.9122C15.0076 19.6368 15.008 18.9992 14.5727 18.7235L12.5794 17.4608C12.252 17.2534 11.8191 17.3515 11.6124 17.6797C11.4056 18.008 11.5033 18.4422 11.8307 18.6496L12.8857 19.3179L7.917 22.4654L2.94837 19.3179L4.00338 18.6496C4.33072 18.4422 4.42845 18.008 4.22169 17.6797Z" fill="#7BC244"/>
</svg>
