<svg width="22" height="24" viewBox="0 0 22 24" fill="none" xmlns="http://www.w3.org/2000/svg">
<path d="M14.7656 15.5625H13.713C13.414 15.5625 13.1546 15.36 13.0821 15.0699C13.0196 14.8199 13.1085 14.4884 13.2763 14.346C15.4991 12.4597 16.875 8.71542 16.875 6.32812C16.875 2.8388 14.0362 0 10.5469 0C7.05755 0 4.21875 2.8388 4.21875 6.32812C4.21875 8.71542 5.59467 12.4597 7.81744 14.346C7.9852 14.4884 8.07412 14.8199 8.01164 15.0699C7.93912 15.36 7.67972 15.5625 7.3808 15.5625H6.32812C2.8388 15.5625 0 18.4013 0 21.8906V23.2969C0 23.6852 0.314812 24 0.703125 24H20.3906C20.7789 24 21.0938 23.6852 21.0938 23.2969V21.8906C21.0938 18.4013 18.255 15.5625 14.7656 15.5625ZM19.6875 22.5938H1.40625V21.8906C1.40625 19.1767 3.6142 16.9688 6.32812 16.9688H7.3808C8.32617 16.9688 9.14658 16.3282 9.37594 15.411C9.56859 14.6403 9.30192 13.7615 8.72742 13.2739C6.89911 11.7223 5.625 8.36808 5.625 6.32812C5.625 3.6142 7.83295 1.39687 10.5469 1.39687C13.2608 1.39687 15.4688 3.6142 15.4688 6.32812C15.4688 8.36808 14.1946 11.7223 12.3663 13.2739C11.7918 13.7614 11.5252 14.6402 11.7178 15.411C11.9472 16.3282 12.7676 16.9688 13.713 16.9688H14.7656C17.4795 16.9688 19.6875 19.1767 19.6875 21.8906V22.5938Z" fill="#7BC244"/>
</svg>
