<svg width="23" height="24" viewBox="0 0 23 24" fill="none" xmlns="http://www.w3.org/2000/svg">
<path d="M22.0659 5.67853C21.8033 5.56973 21.5008 5.62983 21.2997 5.83097C18.9764 8.15428 16.5102 7.01227 13.6548 5.69011C11.538 4.70995 9.21595 3.63534 6.9465 4.2802C7.00139 4.03387 7.03125 3.77827 7.03125 3.51562C7.03125 1.57711 5.45414 0 3.51562 0C1.57711 0 0 1.57711 0 3.51562C0 4.66331 0.552938 5.68416 1.40625 6.3262V23.2969C1.40625 23.6852 1.72106 24 2.10938 24H4.92188C5.31019 24 5.625 23.6852 5.625 23.2969V17.8789C7.88817 15.8197 10.2927 16.933 13.0639 18.2161C14.7343 18.9896 16.5322 19.8222 18.3316 19.8221C19.6691 19.8221 21.0074 19.3619 22.294 18.0752C22.4259 17.9434 22.5 17.7646 22.5 17.5781V6.32812C22.5 6.04373 22.3287 5.78733 22.0659 5.67853ZM4.21875 22.5938H2.8125V6.96052C3.03975 7.00683 3.27487 7.03125 3.51562 7.03125C3.75638 7.03125 3.9915 7.00683 4.21875 6.96052C4.21875 7.84716 4.21875 22.3452 4.21875 22.5938ZM3.51562 5.63437C2.35252 5.63437 1.39687 4.67873 1.39687 3.51562C1.39687 2.35252 2.35252 1.39687 3.51562 1.39687C4.67873 1.39687 5.63437 2.35252 5.63437 3.51562C5.63437 4.67873 4.67873 5.63437 3.51562 5.63437ZM21.0938 17.2775C18.8306 19.3368 16.4261 18.2233 13.6548 16.9401C11.1247 15.7686 8.30133 14.4618 5.625 16.1183V6.62897C7.88817 4.5698 10.2927 5.68298 13.0639 6.96619C14.7343 7.73962 16.5322 8.57227 18.3316 8.57217C19.2577 8.57213 20.1844 8.35139 21.0938 7.78861V17.2775Z" fill="#7BC244"/>
</svg>
