<svg width="19" height="24" viewBox="0 0 19 24" fill="none" xmlns="http://www.w3.org/2000/svg">
<path d="M2.67578 4.21875H3.49984C3.79009 3.40036 4.57164 2.8125 5.48828 2.8125H6.26205C6.58877 1.2098 8.00927 0 9.70703 0C11.4048 0 12.8253 1.2098 13.152 2.8125H13.9258C14.8424 2.8125 15.624 3.40036 15.9142 4.21875H16.7383C17.9014 4.21875 18.8477 5.16502 18.8477 6.32812V21.8906C18.8477 23.0537 17.9014 24 16.7383 24H2.67578C1.51267 24 0.566406 23.0537 0.566406 21.8906V6.32812C0.566406 5.16502 1.51267 4.21875 2.67578 4.21875ZM14.6289 4.92188C14.6289 4.53417 14.3135 4.21875 13.9258 4.21875H12.5195C12.1312 4.21875 11.8164 3.90394 11.8164 3.51562C11.8164 2.35252 10.8701 1.40625 9.70703 1.40625C8.54392 1.40625 7.59766 2.35252 7.59766 3.51562C7.59766 3.90394 7.28284 4.21875 6.89453 4.21875H5.48828C5.10058 4.21875 4.78516 4.53417 4.78516 4.92188V5.625H14.6289V4.92188ZM14.6289 7.03125H4.78516V19.7812H14.6289V7.03125ZM1.97266 21.8906C1.97266 22.2783 2.28808 22.5938 2.67578 22.5938H16.7383C17.126 22.5938 17.4414 22.2783 17.4414 21.8906V6.32812C17.4414 5.94042 17.126 5.625 16.7383 5.625H16.0352C16.0352 6.11588 16.0352 19.3395 16.0352 20.4844C16.0352 20.8727 15.7203 21.1875 15.332 21.1875H4.08203C3.69372 21.1875 3.37891 20.8727 3.37891 20.4844C3.37891 19.887 3.37891 6.47991 3.37891 5.625H2.67578C2.28808 5.625 1.97266 5.94042 1.97266 6.32812V21.8906Z" fill="#7BC244"/>
<path d="M9.70703 4.21875C9.31871 4.21875 9.00391 3.90395 9.00391 3.51562C9.00391 3.1273 9.31871 2.8125 9.70703 2.8125C10.0954 2.8125 10.4102 3.1273 10.4102 3.51562C10.4102 3.90395 10.0954 4.21875 9.70703 4.21875Z" fill="#7BC244"/>
</svg>
