<svg width="22" height="24" viewBox="0 0 22 24" fill="none" xmlns="http://www.w3.org/2000/svg">
<path d="M1.07439 13.944L10.9161 23.7858C11.1915 24.071 11.6477 24.0718 11.9269 23.7858L21.7687 13.944C22.045 13.668 22.0417 13.2216 21.7687 12.9488L17.5475 8.72758C17.4155 8.59564 17.2366 8.52148 17.05 8.52148H5.7931C5.60647 8.52148 5.42753 8.59564 5.29564 8.72758L1.07444 12.9488C0.802816 13.2202 0.797329 13.6672 1.07439 13.944ZM14.7665 14.15H19.5728L12.844 20.8789L14.7665 14.15ZM11.4216 20.7352L9.54006 14.15H13.3031L11.4216 20.7352ZM9.9219 12.7429L11.4216 10.4935L12.9212 12.7429H9.9219ZM8.07661 14.15L9.99916 20.8789L3.27029 14.15H8.07661ZM19.5728 12.7429H14.6123L12.7361 9.92865H16.7586L19.5728 12.7429ZM6.08451 9.92865H10.107L8.23083 12.7429H3.27029L6.08451 9.92865Z" fill="#7BC244"/>
<path d="M10.718 0.703557V3.30822C10.718 3.69677 11.033 4.01178 11.4216 4.01178C11.8101 4.01178 12.1251 3.69677 12.1251 3.30822V0.703557C12.1251 0.315006 11.8101 0 11.4216 0C11.033 0 10.718 0.315006 10.718 0.703557Z" fill="#7BC244"/>
<path d="M3.38303 2.2477C3.0465 2.44198 2.93121 2.87228 3.12553 3.20876L4.42786 5.46446C4.62275 5.80203 5.05337 5.91568 5.38892 5.72196C5.72546 5.52769 5.84075 5.09739 5.64643 4.76091L4.34409 2.50521C4.14987 2.16867 3.71952 2.05343 3.38303 2.2477Z" fill="#7BC244"/>
<path d="M17.4542 5.72199C17.7892 5.91546 18.2201 5.80243 18.4153 5.46448L19.7176 3.20878C19.9119 2.8723 19.7966 2.442 19.4601 2.24773C19.1236 2.0534 18.6933 2.16869 18.499 2.50523L17.1967 4.76093C17.0024 5.09741 17.1177 5.52771 17.4542 5.72199Z" fill="#7BC244"/>
</svg>
