<svg width="20" height="15" viewBox="0 0 20 15" fill="none" xmlns="http://www.w3.org/2000/svg">
<path d="M16.6327 1.95942H12.0852V0H0V13.3843H2.42555C2.6827 14.3147 3.53441 15 4.54332 15C5.55223 15 6.40395 14.3148 6.66109 13.3843H13.3388C13.596 14.3147 14.4477 15 15.4566 15C16.4655 15 17.3172 14.3148 17.5744 13.3843H20V8.08452L16.6327 1.95942ZM14.9473 3.13413H15.9404L18.4221 7.64823H14.9473V3.13413ZM4.54336 13.8253C3.97773 13.8253 3.5175 13.364 3.5175 12.7969C3.5175 12.2299 3.9777 11.7686 4.54336 11.7686C5.10902 11.7686 5.56922 12.2299 5.56922 12.7969C5.56922 13.364 5.10898 13.8253 4.54336 13.8253ZM10.9133 12.2096H6.66113C6.40398 11.2791 5.55223 10.5939 4.54336 10.5939C3.53445 10.5939 2.68273 11.2791 2.42559 12.2096H1.17188V1.17471H10.9133V12.2096ZM15.4566 13.8253C14.891 13.8253 14.4308 13.364 14.4308 12.7969C14.4308 12.2299 14.891 11.7686 15.4566 11.7686C16.0223 11.7686 16.4825 12.2299 16.4825 12.7969C16.4825 13.364 16.0223 13.8253 15.4566 13.8253ZM18.8281 12.2096H17.5745C17.3173 11.2791 16.4656 10.5939 15.4567 10.5939C14.4478 10.5939 13.5961 11.2791 13.3389 12.2096H12.0852V3.13413H13.7754V8.82294H18.8281V12.2096Z" fill="#7BC244"/>
<path d="M3.32031 2.94568V8.82299H9.18344V2.94568H3.32031ZM8.01156 7.64828H4.49219V4.12039H5.66594V5.68839H6.83781V4.12039H8.01156V7.64828Z" fill="#7BC244"/>
</svg>
