<svg width="20" height="20" viewBox="0 0 20 20" fill="none" xmlns="http://www.w3.org/2000/svg">
<path d="M9.99965 0L0 2.9068V20H19.9993V2.9068L9.99965 0ZM9.41375 18.8282H5.85918V15.2736H7.05055V16.8378H8.22238V15.2736H9.41375V18.8282ZM10.5855 12.1114V10.5472H11.7769V14.1018H8.22234V10.5472H9.41371V12.1114H10.5855ZM14.1401 18.8282H10.5855V15.2736H11.7769V16.8378H12.9488V15.2736H14.1401V18.8282ZM16.4838 18.8282H15.312V14.1018H12.9488V9.37535H7.05055V14.1018H4.68734V18.8282H3.51551V8.20164H16.4838V18.8282H16.4838ZM18.8275 18.8282H17.6556V7.0298H2.34367V18.8282H1.17184V3.78652L9.99965 1.22039L18.8275 3.78652V18.8282Z" fill="#7BC244"/>
</svg>
