<svg width="16" height="20" viewBox="0 0 16 20" fill="none" xmlns="http://www.w3.org/2000/svg">
<path d="M14.8342 16.866V1.17094H6.23047V16.866H4.99591C4.7763 15.9308 4.04374 15.1935 3.11456 14.9725V0H0V1.17188H1.95013V14.9725C0.833861 15.238 0.000465797 16.2485 0.000465797 17.4519C0.000465797 18.857 1.13625 20 2.53232 20C3.72804 20 4.73209 19.1612 4.99587 18.0378H16V16.866H14.8342ZM2.53232 18.8282C1.7783 18.8282 1.16486 18.2107 1.16486 17.4519C1.16486 16.6931 1.7783 16.0757 2.53232 16.0757C3.28634 16.0757 3.89978 16.6931 3.89978 17.4519C3.89978 18.2107 3.28634 18.8282 2.53232 18.8282ZM9.94923 2.34282H11.1155V3.51661H9.94923V2.34282ZM13.6698 16.866H7.39487V12.8062H8.78484V15.1518H12.2799V12.8062H13.6699V16.866H13.6698ZM9.94923 13.9799V12.8062H11.1155V13.9799H9.94923ZM13.6698 11.6343H7.39487V7.57447H8.78484V9.9201H12.2799V7.57447H13.6699V11.6343H13.6698ZM9.94923 8.74822V7.57447H11.1155V8.74822H9.94923ZM13.6698 6.40263H7.39487V2.34282H8.78484V4.68849H12.2799V2.34282H13.6699V6.40263H13.6698Z" fill="#7BC244"/>
</svg>
