<svg width="70" height="70" viewBox="0 0 70 70" fill="none" xmlns="http://www.w3.org/2000/svg">
<path d="M37.7182 70C35.8555 70 33.9928 70 32.1301 70C31.724 69.7345 31.2478 69.8044 30.7997 69.7484C21.3602 68.5047 13.5594 64.2562 7.63518 56.8354C1.61298 49.2608 -0.893936 40.5543 0.282495 30.9254C1.57097 20.4859 6.55679 12.0869 15.324 6.2592C26.318 -1.04982 38.0963 -2.00013 50.0427 3.63187C61.1628 8.87256 67.5491 17.9145 69.6219 30.003C69.7619 30.7856 69.6919 31.6102 70 32.3648C70 34.2235 70 36.0822 70 37.9409C69.8039 38.0248 69.874 38.2204 69.8459 38.3602C69.7059 39.2965 69.6079 40.2468 69.4398 41.1832C66.7928 56.0248 54.9585 67.4565 40.015 69.6366C39.2588 69.7484 38.4605 69.7065 37.7182 70ZM29.2311 33.7624C28.895 33.5807 28.7129 33.7344 28.5168 33.7903C25.9679 34.6148 23.503 35.649 21.1501 36.9347C20.9541 37.0465 20.73 37.2701 20.5199 37.1024C20.2958 36.9207 20.5059 36.6692 20.5899 36.4735C22.6347 31.2049 24.6794 25.9502 26.7242 20.6956C26.8362 20.3881 26.9342 20.0527 27.3544 20.0387C27.7746 20.0387 27.8726 20.3741 27.9706 20.6816C28.5028 22.3167 29.077 23.9378 29.5812 25.5869C31.822 32.8959 34.567 40.0372 37.186 47.2065C37.9003 49.149 39.1327 50.7562 40.7293 52.0559C44.9308 55.4518 50.799 55.7174 55.1826 52.7546C59.6362 49.736 61.5689 44.2437 60.0003 39.0729C58.2637 33.3291 52.3956 29.7655 46.3453 30.7717C45.519 30.9114 45.519 30.9114 45.519 30.0589C45.519 27.9906 45.5471 25.9223 45.505 23.854C45.491 23.1552 45.6731 22.9316 46.4014 22.9456C49.2584 22.9875 52.1295 22.9735 54.9865 22.9456C56.5691 22.9316 57.6335 22.163 58.1096 20.7375C58.3617 19.9828 58.2777 19.8571 57.4514 19.8571C52.7037 19.8571 47.9559 19.871 43.1942 19.8431C42.592 19.8431 42.3959 19.9828 42.3959 20.6117C42.4239 24.0776 42.4519 27.5434 42.3819 30.9953C42.3539 32.7422 43.9505 34.5729 46.1353 34.0139C49.9026 33.0496 53.2079 34.1397 55.5747 37.2701C57.8716 40.3027 58.1517 43.6708 56.303 47.0248C54.5383 50.2391 51.6813 51.8602 48.012 51.6925C44.3566 51.5248 41.5416 49.6941 40.1831 46.2981C38.1944 41.3369 36.4437 36.2919 34.6931 31.2468C33.3066 27.2779 32.0741 23.253 30.7436 19.2701C30.2675 17.8446 28.951 16.9502 27.4384 16.9223C25.9539 16.8943 24.5814 17.7747 24.0212 19.1303C23.7551 19.7732 23.503 20.4161 23.2369 21.0729C21.4582 25.4611 19.6656 29.8493 17.9009 34.2515C16.4024 37.9549 14.9178 41.6723 13.4333 45.3757C12.649 47.3183 11.8647 49.2469 11.0944 51.2034C10.7443 52.1118 11.0944 52.9782 11.8927 53.2997C12.705 53.6351 13.5173 53.2857 13.9515 52.3913C14.1056 52.0838 14.2456 51.7624 14.3997 51.441C17.4668 45.0962 21.5843 39.576 27.2143 35.2298C27.8446 34.7127 28.5728 34.3493 29.2311 33.7624Z"/>
</svg>
