<svg width="33" height="19" viewBox="0 0 33 19" fill="none" xmlns="http://www.w3.org/2000/svg">
<path d="M12.756 6.264V15H10.532V10.712C10.532 10.2853 10.5373 9.86933 10.548 9.464C10.5693 9.05867 10.596 8.68533 10.628 8.344H10.58L8.164 15H6.372L3.924 8.328H3.86C3.90267 8.68 3.92933 9.05867 3.94 9.464C3.96133 9.85867 3.972 10.296 3.972 10.776V15H1.748V6.264H5.124L7.3 12.184L9.508 6.264H12.756Z" fill="#7BC244"/>
<path d="M24.866 15.5C24.4811 16.1667 23.5189 16.1667 23.134 15.5L18.8038 8C18.4189 7.33333 18.9001 6.5 19.6699 6.5L28.3301 6.5C29.0999 6.5 29.5811 7.33333 29.1962 8L24.866 15.5Z" stroke="#7BC244" stroke-width="2"/>
</svg>
