<svg width="46" height="60" viewBox="0 0 46 60" fill="none" xmlns="http://www.w3.org/2000/svg">
<path d="M4.29142 31.9415L4.29168 31.9421C8.94836 42.3629 17.7845 53.2289 20.3271 56.2532L20.3289 56.2552C20.9871 57.0364 21.9602 57.5 22.9998 57.5C24.0393 57.5 25.0124 57.0365 25.6707 56.2552L25.6725 56.253C28.214 53.2295 37.0501 42.364 41.7082 31.9422L41.7084 31.9419C42.9015 29.2714 43.5 26.3949 43.5 23.4082V23.4079C43.4989 11.9304 34.3574 2.5 22.9993 2.5C11.6416 2.5 2.5 11.9304 2.5 23.4082C2.5 26.3952 3.09916 29.2716 4.29142 31.9415ZM29.8491 23.4077V23.4079C29.8495 27.3521 26.7219 30.4694 22.9993 30.4694C19.2772 30.4694 16.1494 27.3522 16.1494 23.4077C16.1494 19.4625 19.2773 16.3454 22.9993 16.3454C26.7212 16.3454 29.8491 19.4625 29.8491 23.4077Z" fill="#7BC244" stroke="white" stroke-width="5"/>
</svg>
