<svg width="45" height="43" viewBox="0 0 45 43" fill="none" xmlns="http://www.w3.org/2000/svg">
<g clip-path="url(#clip0_611_1452)">
<path d="M29.7378 27.6912H27.7582C27.196 27.6912 26.7082 27.3308 26.5718 26.8147C26.4543 26.3699 26.6215 25.78 26.937 25.5267C31.1171 22.1701 33.7047 15.5078 33.7047 11.26C33.7047 5.05122 28.3661 0 21.8041 0C15.2422 0 9.90358 5.05122 9.90358 11.26C9.90358 15.5078 12.4911 22.1701 16.6712 25.5267C16.9867 25.78 17.1539 26.3699 17.0364 26.8147C16.9 27.3308 16.4122 27.6912 15.8501 27.6912H13.8704C7.30846 27.6912 1.96988 32.7424 1.96988 38.9512V41.4534C1.96988 42.1443 2.56191 42.7045 3.29216 42.7045H40.3161C41.0463 42.7045 41.6384 42.1443 41.6384 41.4534V38.9512C41.6384 32.7424 36.2998 27.6912 29.7378 27.6912ZM38.9938 40.2023H4.61445V38.9512C4.61445 34.1221 8.76668 30.1934 13.8704 30.1934H15.8501C17.6279 30.1934 19.1708 29.0536 19.6021 27.4216C19.9644 26.0502 19.4629 24.4865 18.3825 23.6189C14.9442 20.8581 12.5481 14.8898 12.5481 11.26C12.5481 6.43094 16.7004 2.48553 21.8041 2.48553C26.9079 2.48553 31.0601 6.43094 31.0601 11.26C31.0601 14.8898 28.664 20.8581 25.2258 23.6189C24.1454 24.4864 23.6439 26.0502 24.0062 27.4216C24.4375 29.0536 25.9803 30.1934 27.7582 30.1934H29.7378C34.8416 30.1934 38.9938 34.1221 38.9938 38.9512V40.2023Z" fill="#7BC244"/>
</g>
<defs>
<clipPath id="clip0_611_1452">
<rect width="45" height="42.7045" fill="white"/>
</clipPath>
</defs>
</svg>
