<svg width="40" height="50" viewBox="0 0 40 50" fill="none" xmlns="http://www.w3.org/2000/svg">
<path d="M37.1467 0H2.85333C1.27619 0 0 1.39792 0 3.12083V46.8792C0 48.6042 1.2781 50 2.85333 50H37.1429C38.72 50 39.9962 48.6021 39.9962 46.8792V3.125V3.12083C39.9962 1.39792 38.72 0.00208333 37.1448 0H37.1467ZM11.4286 43.75H5.71429V37.5H11.4286V43.75ZM11.4286 34.375H5.71429V28.1292H11.4286V34.375ZM11.4286 25H5.71429V18.7521H11.4286V25ZM22.8571 43.75H17.1429V37.5H22.8571V43.75ZM22.8571 34.375H17.1429V28.1292H22.8571V34.375ZM22.8571 25H17.1429V18.7521H22.8571V25ZM34.2857 43.75H28.5714V18.75H34.2857V43.75ZM34.2857 14.75H5.71429V6.25H34.2857V14.75Z" fill="#7BC244"/>
</svg>
