<svg width="40" height="51" viewBox="0 0 40 51" fill="none" xmlns="http://www.w3.org/2000/svg">
<path d="M39.4659 12.7614L27.2386 0.534091C26.8977 0.193182 26.4375 0 25.9545 0H1.81818C0.8125 0 0 0.8125 0 1.81818V49.0909C0 50.0966 0.8125 50.9091 1.81818 50.9091H38.1818C39.1875 50.9091 40 50.0966 40 49.0909V14.0511C40 13.5682 39.8068 13.1023 39.4659 12.7614ZM35.8068 14.8864H25.1136V4.19318L35.8068 14.8864ZM35.9091 46.8182H4.09091V4.09091H21.25V16.3636C21.25 16.9965 21.5014 17.6035 21.9489 18.0511C22.3965 18.4986 23.0035 18.75 23.6364 18.75H35.9091V46.8182ZM21.8182 23.1818C21.8182 22.9318 21.6136 22.7273 21.3636 22.7273H18.6364C18.3864 22.7273 18.1818 22.9318 18.1818 23.1818V29.3182H12.0455C11.7955 29.3182 11.5909 29.5227 11.5909 29.7727V32.5C11.5909 32.75 11.7955 32.9545 12.0455 32.9545H18.1818V39.0909C18.1818 39.3409 18.3864 39.5455 18.6364 39.5455H21.3636C21.6136 39.5455 21.8182 39.3409 21.8182 39.0909V32.9545H27.9545C28.2045 32.9545 28.4091 32.75 28.4091 32.5V29.7727C28.4091 29.5227 28.2045 29.3182 27.9545 29.3182H21.8182V23.1818Z" fill="#7BC244"/>
</svg>
