<svg width="40" height="54" viewBox="0 0 40 54" fill="none" xmlns="http://www.w3.org/2000/svg">
<path d="M32.8467 17.1533C33.0019 17.3082 33.125 17.4921 33.209 17.6946C33.2931 17.897 33.3363 18.1141 33.3363 18.3333C33.3363 18.5526 33.2931 18.7696 33.209 18.9721C33.125 19.1746 33.0019 19.3585 32.8467 19.5133L27.0133 25.3467C26.7097 25.6499 26.3008 25.8244 25.8717 25.8337C25.4426 25.843 25.0265 25.6865 24.71 25.3967L22.21 23.1133C21.9004 22.8113 21.7203 22.4007 21.7078 21.9684C21.6953 21.536 21.8514 21.1157 22.1431 20.7963C22.4348 20.4769 22.8392 20.2835 23.271 20.2568C23.7027 20.2301 24.1279 20.3723 24.4567 20.6533L25.78 21.86L30.4867 17.1533C30.6415 16.9981 30.8254 16.875 31.0279 16.791C31.2304 16.7069 31.4474 16.6637 31.6667 16.6637C31.8859 16.6637 32.103 16.7069 32.3054 16.791C32.5079 16.875 32.6918 16.9981 32.8467 17.1533ZM32.8467 36.18C33.1596 35.8675 33.3356 35.4435 33.3359 35.0012C33.3362 34.5589 33.1608 34.1346 32.8483 33.8217C32.5358 33.5087 32.1118 33.3327 31.6695 33.3324C31.2272 33.3321 30.803 33.5075 30.49 33.82L25.78 38.5267L24.4567 37.32C24.1279 37.039 23.7027 36.8968 23.271 36.9234C22.8392 36.9501 22.4348 37.1436 22.1431 37.463C21.8514 37.7824 21.6953 38.2027 21.7078 38.635C21.7203 39.0674 21.9004 39.478 22.21 39.78L24.71 42.0633C25.0263 42.3522 25.4417 42.5081 25.87 42.4988C26.2983 42.4895 26.7065 42.3156 27.01 42.0133L32.8433 36.18H32.8467ZM8.33333 20C7.89131 20 7.46738 20.1756 7.15482 20.4882C6.84226 20.8007 6.66667 21.2246 6.66667 21.6667C6.66667 22.1087 6.84226 22.5326 7.15482 22.8452C7.46738 23.1577 7.89131 23.3333 8.33333 23.3333H16.6667C17.1087 23.3333 17.5326 23.1577 17.8452 22.8452C18.1577 22.5326 18.3333 22.1087 18.3333 21.6667C18.3333 21.2246 18.1577 20.8007 17.8452 20.4882C17.5326 20.1756 17.1087 20 16.6667 20H8.33333ZM6.66667 38.3333C6.66667 37.8913 6.84226 37.4674 7.15482 37.1548C7.46738 36.8423 7.89131 36.6667 8.33333 36.6667H16.6667C17.1087 36.6667 17.5326 36.8423 17.8452 37.1548C18.1577 37.4674 18.3333 37.8913 18.3333 38.3333C18.3333 38.7754 18.1577 39.1993 17.8452 39.5118C17.5326 39.8244 17.1087 40 16.6667 40H8.33333C7.89131 40 7.46738 39.8244 7.15482 39.5118C6.84226 39.1993 6.66667 38.7754 6.66667 38.3333ZM10.2833 3.33333C10.6281 2.35807 11.2669 1.51376 12.1117 0.916761C12.9565 0.319759 13.9656 -0.0005416 15 6.87456e-07H25C26.0344 -0.0005416 27.0435 0.319759 27.8883 0.916761C28.7331 1.51376 29.3719 2.35807 29.7167 3.33333H35C36.3261 3.33333 37.5979 3.86012 38.5355 4.7978C39.4732 5.73548 40 7.00725 40 8.33333V48.3333C40 49.6594 39.4732 50.9312 38.5355 51.8689C37.5979 52.8065 36.3261 53.3333 35 53.3333H5C3.67392 53.3333 2.40215 52.8065 1.46447 51.8689C0.526784 50.9312 0 49.6594 0 48.3333V8.33333C0 7.00725 0.526784 5.73548 1.46447 4.7978C2.40215 3.86012 3.67392 3.33333 5 3.33333H10.2833ZM15 3.33333C14.558 3.33333 14.134 3.50893 13.8215 3.82149C13.5089 4.13405 13.3333 4.55797 13.3333 5C13.3333 5.44203 13.5089 5.86595 13.8215 6.17851C14.134 6.49107 14.558 6.66667 15 6.66667H25C25.442 6.66667 25.866 6.49107 26.1785 6.17851C26.4911 5.86595 26.6667 5.44203 26.6667 5C26.6667 4.55797 26.4911 4.13405 26.1785 3.82149C25.866 3.50893 25.442 3.33333 25 3.33333H15ZM10.2833 6.66667H5C4.55797 6.66667 4.13405 6.84226 3.82149 7.15482C3.50893 7.46738 3.33333 7.89131 3.33333 8.33333V48.3333C3.33333 48.7754 3.50893 49.1993 3.82149 49.5118C4.13405 49.8244 4.55797 50 5 50H35C35.442 50 35.866 49.8244 36.1785 49.5118C36.4911 49.1993 36.6667 48.7754 36.6667 48.3333V8.33333C36.6667 7.89131 36.4911 7.46738 36.1785 7.15482C35.866 6.84226 35.442 6.66667 35 6.66667H29.7167C29.3719 7.64193 28.7331 8.48624 27.8883 9.08324C27.0435 9.68024 26.0344 10.0005 25 10H15C13.9656 10.0005 12.9565 9.68024 12.1117 9.08324C11.2669 8.48624 10.6281 7.64193 10.2833 6.66667Z" fill="#7BC244"/>
</svg>
