<svg width="20" height="20" viewBox="0 0 20 20" fill="none" xmlns="http://www.w3.org/2000/svg">
<path d="M19.2683 0H0.731719C0.327617 0 0 0.327617 0 0.731719V19.2683C0 19.6724 0.327617 20 0.731719 20H19.2683C19.6724 20 20 19.6724 20 19.2683V0.731719C20 0.327617 19.6724 0 19.2683 0ZM18.5366 18.5366H1.4634V1.4634H18.5366V18.5366H18.5366Z" fill="#7BC244"/>
<path d="M14.1676 11.5167H12.9145L13.3084 8.48321H14.1676C15.1345 8.48321 15.1355 7.01981 14.1676 7.01981H13.4985L13.6404 5.92684C13.765 4.96821 12.3138 4.77828 12.1892 5.7384L12.0228 7.01981H9.00159L9.14351 5.92684C9.26804 4.96801 7.81691 4.77856 7.6923 5.7384L7.52589 7.01981H5.83296C4.86608 7.01981 4.86507 8.48321 5.83296 8.48321H7.33585L6.94194 11.5167H5.83296C4.86608 11.5167 4.86507 12.9801 5.83296 12.9801H6.75194L6.61003 14.0731C6.48554 15.0316 7.93655 15.222 8.06124 14.2615L8.22765 12.9801H11.2488L11.1069 14.0731C10.9827 15.0288 12.4316 15.2363 12.5581 14.2615L12.7245 12.9801H14.1676C15.1345 12.9802 15.1356 11.5167 14.1676 11.5167ZM11.4389 11.5168H8.41769L8.81159 8.48328H11.8328L11.4389 11.5168Z" fill="#7BC244"/>
</svg>
