<svg width="16" height="23" viewBox="0 0 16 23" fill="none" xmlns="http://www.w3.org/2000/svg">
<path fill-rule="evenodd" clip-rule="evenodd" d="M7.99996 2.3C6.10641 2.3 4.57139 3.84462 4.57139 5.75C4.57139 7.65538 6.10641 9.2 7.99996 9.2C9.89351 9.2 11.4285 7.65538 11.4285 5.75C11.4285 3.84462 9.89351 2.3 7.99996 2.3ZM2.28567 5.75C2.28567 2.57436 4.84405 0 7.99996 0C11.1559 0 13.7142 2.57436 13.7142 5.75C13.7142 8.92564 11.1559 11.5 7.99996 11.5C4.84405 11.5 2.28567 8.92564 2.28567 5.75Z"/>
<path fill-rule="evenodd" clip-rule="evenodd" d="M5.71429 16.1C4.80497 16.1 3.9329 16.4635 3.28992 17.1105C2.64694 17.7575 2.28571 18.635 2.28571 19.55V21.85C2.28571 22.4851 1.77404 23 1.14286 23C0.511675 23 0 22.4851 0 21.85V19.55C0 18.025 0.602039 16.5625 1.67368 15.4841C2.74531 14.4058 4.19876 13.8 5.71429 13.8H10.2857C11.8012 13.8 13.2547 14.4058 14.3263 15.4841C15.398 16.5625 16 18.025 16 19.55V21.85C16 22.4851 15.4883 23 14.8571 23C14.226 23 13.7143 22.4851 13.7143 21.85V19.55C13.7143 18.635 13.3531 17.7575 12.7101 17.1105C12.0671 16.4635 11.195 16.1 10.2857 16.1H5.71429Z"/>
</svg>
