<svg width="24" height="24" viewBox="0 0 24 24" fill="none" xmlns="http://www.w3.org/2000/svg">
<path d="M12 18.375C10.4492 18.375 9.1875 19.6367 9.1875 21.1875C9.1875 22.7383 10.4492 24 12 24C13.5508 24 14.8125 22.7383 14.8125 21.1875C14.8125 19.6367 13.5508 18.375 12 18.375ZM12 22.5938C11.2246 22.5938 10.5938 21.9629 10.5938 21.1875C10.5938 20.4121 11.2246 19.7812 12 19.7812C12.7754 19.7812 13.4062 20.4121 13.4062 21.1875C13.4062 21.9629 12.7754 22.5938 12 22.5938Z" fill="#5F5F5F"/>
<path d="M12 0C7.96786 0 4.6875 3.28036 4.6875 7.3125V8.01562H10.3125V7.3125C10.3125 6.38198 11.0695 5.625 12 5.625C12.9305 5.625 13.6875 6.38198 13.6875 7.3125C13.6875 7.80834 13.4699 8.27766 13.0903 8.6002L9.1875 11.9183V16.9688H14.8125V14.5192L16.7333 12.8862C18.3724 11.4933 19.3125 9.46186 19.3125 7.3125C19.3125 3.28036 16.0321 0 12 0V0ZM15.8225 11.8147L13.4062 13.869V15.5625H10.5938V12.5685L14.001 9.67167C14.6955 9.08156 15.0938 8.22169 15.0938 7.3125C15.0938 5.60658 13.7059 4.21875 12 4.21875C10.5359 4.21875 9.30605 5.24109 8.98683 6.60938H6.13533C6.48412 3.68292 8.9812 1.40625 12 1.40625C15.2567 1.40625 17.9062 4.05577 17.9062 7.3125C17.9062 9.04847 17.1468 10.6894 15.8225 11.8147Z" fill="#5F5F5F"/>
</svg>
