<svg width="14" height="12" viewBox="0 0 14 12" fill="none" xmlns="http://www.w3.org/2000/svg">
<path fill-rule="evenodd" clip-rule="evenodd" d="M11 0.666687H3.00004C1.53337 0.666687 0.333374 1.86669 0.333374 3.33335V8.66669C0.333374 10.1334 1.53337 11.3334 3.00004 11.3334H11C12.4667 11.3334 13.6667 10.1334 13.6667 8.66669V3.33335C13.6667 1.86669 12.4667 0.666687 11 0.666687ZM1.66671 3.33335C1.66671 2.60002 2.26671 2.00002 3.00004 2.00002H11C11.7334 2.00002 12.3334 2.60002 12.3334 3.33335V4.00002H1.66671V3.33335ZM12.3334 8.66669C12.3334 9.40002 11.7334 10 11 10H3.00004C2.26671 10 1.66671 9.40002 1.66671 8.66669V5.33335H12.3334V8.66669ZM3.00004 8.00002C3.00004 7.60002 3.26671 7.33335 3.66671 7.33335C4.06671 7.33335 4.33337 7.60002 4.33337 8.00002C4.33337 8.40002 4.06671 8.66669 3.66671 8.66669C3.26671 8.66669 3.00004 8.40002 3.00004 8.00002ZM5.66671 8.00002C5.66671 7.60002 5.93337 7.33335 6.33337 7.33335H7.66671C8.06671 7.33335 8.33337 7.60002 8.33337 8.00002C8.33337 8.40002 8.06671 8.66669 7.66671 8.66669H6.33337C5.93337 8.66669 5.66671 8.40002 5.66671 8.00002Z" fill="white"/>
</svg>
