<svg width="12" height="14" viewBox="0 0 12 14" fill="none" xmlns="http://www.w3.org/2000/svg">
<path fill-rule="evenodd" clip-rule="evenodd" d="M5.99999 4.99993C5.26361 4.99993 4.66665 5.59689 4.66665 6.33326C4.66665 7.06964 5.26361 7.6666 5.99999 7.6666C6.73636 7.6666 7.33332 7.06964 7.33332 6.33326C7.33332 5.59689 6.73636 4.99993 5.99999 4.99993ZM3.33332 6.33326C3.33332 4.86051 4.52723 3.6666 5.99999 3.6666C7.47274 3.6666 8.66665 4.86051 8.66665 6.33326C8.66665 7.80602 7.47274 8.99993 5.99999 8.99993C4.52723 8.99993 3.33332 7.80602 3.33332 6.33326Z" fill="white"/>
<path fill-rule="evenodd" clip-rule="evenodd" d="M6 1.66677C5.07703 1.66677 4.17479 1.94046 3.40737 2.45323C2.63994 2.966 2.0418 3.69482 1.68859 4.54752C1.33537 5.40023 1.24294 6.33853 1.42299 7.24377C1.60303 8.149 2.04746 8.98052 2.70009 9.63318L5.52917 12.4616C5.65417 12.5865 5.82364 12.6566 6.00034 12.6566C6.17703 12.6566 6.3465 12.5865 6.4715 12.4616L9.29992 9.63318C9.95253 8.98053 10.397 8.149 10.577 7.24377C10.7571 6.33853 10.6646 5.40023 10.3114 4.54752C9.9582 3.69482 9.36006 2.966 8.59264 2.45323C7.82521 1.94046 6.92297 1.66677 6 1.66677ZM10.2428 10.576C11.0818 9.73684 11.6532 8.66774 11.8847 7.50386C12.1162 6.33998 11.9974 5.1336 11.5432 4.03726C11.0891 2.94092 10.3201 2.00387 9.33339 1.3446C8.3467 0.685321 7.18668 0.333435 6 0.333435C4.81333 0.333435 3.6533 0.685321 2.66661 1.3446C1.67993 2.00387 0.91089 2.94092 0.456755 4.03726C0.00262022 5.1336 -0.116218 6.33998 0.115268 7.50386C0.346755 8.66774 0.918169 9.73684 1.75725 10.576L4.58665 13.4047C4.96167 13.7793 5.47025 13.99 6.00034 13.99C6.53042 13.99 7.03882 13.7795 7.41384 13.4049L10.2428 10.576Z" fill="white"/>
</svg>
