<svg width="100" height="100" viewBox="0 0 100 100" fill="none" xmlns="http://www.w3.org/2000/svg">
<circle cx="50" cy="50" r="50" fill="#F5F4F8"/>
<path d="M73.333 22C69.6516 22 66.6667 24.9871 66.6667 28.6715C66.6667 32.3568 69.6516 35.3434 73.333 35.3434C77.015 35.3434 79.9999 32.3568 79.9999 28.6715C79.9999 24.9871 77.015 22 73.333 22Z" fill="#7BC244"/>
<path d="M26.6667 78.7097C30.3486 78.7097 33.3333 75.7227 33.3333 72.038C33.3333 68.3533 30.3486 65.3663 26.6667 65.3663C22.9848 65.3663 20 68.3533 20 72.038C20 75.7227 22.9848 78.7097 26.6667 78.7097Z" fill="#7BC244"/>
<path d="M56.1013 39.7251L65.8451 34.8497C64.9247 33.7348 64.2499 32.4109 63.8986 30.962L54.1548 35.8374C55.0752 36.9521 55.7499 38.276 56.1013 39.7251Z" fill="#7BC244"/>
<path d="M52.1678 71.0998C51.2914 69.9051 50.6823 68.5035 50.4268 66.9828L36.0063 69.3879C36.2455 70.2309 36.3764 71.119 36.3764 72.0376C36.3764 72.6255 36.3211 73.2002 36.2207 73.7594L52.1678 71.0998Z" fill="#7BC244"/>
<path d="M57.4745 55.9868L53.0422 49.3327C51.9464 50.2897 50.6357 51.005 49.1919 51.3943L53.6242 58.0481C54.7198 57.0915 56.0307 56.3763 57.4745 55.9868Z" fill="#7BC244"/>
<path d="M59.9997 58.6948C56.3179 58.6948 53.333 61.681 53.333 65.3661C53.333 69.0501 56.3179 72.0374 59.9997 72.0374C63.6817 72.0374 66.6669 69.0501 66.6669 65.3661C66.6669 61.681 63.6817 58.6948 59.9997 58.6948Z" fill="#7BC244"/>
<path d="M46.6665 48.6867C50.3482 48.6867 53.3329 45.6997 53.3329 42.0151C53.3329 38.3306 50.3482 35.3436 46.6665 35.3436C42.9847 35.3436 40 38.3306 40 42.0151C40 45.6997 42.9847 48.6867 46.6665 48.6867Z" fill="#7BC244"/>
</svg>
