<svg width="100" height="100" viewBox="0 0 100 100" fill="none" xmlns="http://www.w3.org/2000/svg">
<circle cx="50" cy="50" r="50" fill="#F5F4F8"/>
<path d="M30 25H22C20.896 25 20 25.9147 20 27.0417V35.2083C20 36.3353 20.896 37.25 22 37.25C23.104 37.25 24 36.3353 24 35.2083V29.0833H30C31.104 29.0833 32 28.1687 32 27.0417C32 25.9147 31.104 25 30 25Z" fill="#7BC244"/>
<path d="M78 61.75C76.896 61.75 76 62.6647 76 63.7917V69.9167H70C68.896 69.9167 68 70.8313 68 71.9583C68 73.0853 68.896 74 70 74H78C79.104 74 80 73.0853 80 71.9583V63.7917C80 62.6647 79.104 61.75 78 61.75Z" fill="#7BC244"/>
<path d="M78 25H70C68.896 25 68 25.9147 68 27.0417C68 28.1687 68.896 29.0833 70 29.0833H76V35.2083C76 36.3353 76.896 37.25 78 37.25C79.104 37.25 80 36.3353 80 35.2083V27.0417C80 25.9147 79.104 25 78 25Z" fill="#7BC244"/>
<path d="M30 69.9167H24V63.7917C24 62.6647 23.104 61.75 22 61.75C20.896 61.75 20 62.6647 20 63.7917V71.9583C20 73.0853 20.896 74 22 74H30C31.104 74 32 73.0853 32 71.9583C32 70.8313 31.104 69.9167 30 69.9167Z" fill="#7BC244"/>
<path d="M32 33.1667H28V65.8334H32V33.1667Z" fill="#7BC244"/>
<path d="M40 33.1667H36V57.6667H40V33.1667Z" fill="#7BC244"/>
<path d="M48 33.1667H44V57.6667H48V33.1667Z" fill="#7BC244"/>
<path d="M56 33.1667H52V65.8334H56V33.1667Z" fill="#7BC244"/>
<path d="M64 33.1667H60V57.6667H64V33.1667Z" fill="#7BC244"/>
<path d="M72 33.1667H68V65.8334H72V33.1667Z" fill="#7BC244"/>
<path d="M40 61.75H36V65.8333H40V61.75Z" fill="#7BC244"/>
<path d="M48 61.75H44V65.8333H48V61.75Z" fill="#7BC244"/>
<path d="M64 61.75H60V65.8333H64V61.75Z" fill="#7BC244"/>
</svg>
