<svg width="100" height="100" viewBox="0 0 100 100" fill="none" xmlns="http://www.w3.org/2000/svg">
<circle cx="50" cy="50" r="50" fill="#F5F4F8"/>
<path d="M78.8317 36.1667L50.9444 22.2232C50.3499 21.9256 49.6497 21.9256 49.055 22.2232L21.1679 36.1667C20.4521 36.5247 20 37.256 20 38.0564V76.4012C20 77.5679 20.9459 78.5139 22.1127 78.5139H29.0846C30.2512 78.5139 31.1973 77.5681 31.1973 76.4012V43.655H68.8027V76.4012C68.8027 77.5679 69.7486 78.5139 70.9154 78.5139H77.8873C79.0539 78.5139 80 77.5681 80 76.4012V38.0564C79.9996 37.256 79.5475 36.5247 78.8317 36.1667ZM75.7744 74.2885H73.0279V41.5422C73.0279 40.3756 72.0821 39.4295 70.9152 39.4295H29.0844C27.9177 39.4295 26.9717 40.3754 26.9717 41.5422V74.2885H24.2252V39.3621L49.9998 26.4749L75.7744 39.3621V74.2885Z" fill="#7BC244"/>
<path d="M63.9433 47.0352H49.9997C49.183 47.0352 48.5209 47.6972 48.5209 48.5139V60.9787H36.0562C35.2394 60.9787 34.5774 61.6407 34.5774 62.4575V76.401C34.5774 77.2178 35.2394 77.8798 36.0562 77.8798H63.9433C64.76 77.8798 65.422 77.2178 65.422 76.401V48.5141C65.4222 47.6972 64.76 47.0352 63.9433 47.0352ZM51.4785 66.0282L54.8799 69.4295L51.4785 72.8309V66.0282ZM48.5209 72.8307L45.1195 69.4293L48.5209 66.028V72.8307ZM53.5702 63.9365H60.3728L56.9714 67.3378L53.5702 63.9365ZM53.5702 60.9787L56.9716 57.5773L60.373 60.9787H53.5702ZM62.4645 58.8872L59.0633 55.4858L62.4645 52.0844V58.8872ZM56.9716 53.3943L53.5702 49.9929H60.3728L56.9716 53.3943ZM54.8799 55.4858L51.4785 58.8872V52.0846L54.8799 55.4858ZM43.0278 67.3378L39.6265 63.9365H46.429L43.0278 67.3378ZM40.9363 69.4293L37.5349 72.8307V66.0282L40.9363 69.4293ZM43.0278 71.521L46.4292 74.9224H39.6267L43.0278 71.521ZM56.9714 71.521L60.3728 74.9224H53.5702L56.9714 71.521ZM59.0631 69.4293L62.4645 66.028V72.8305L59.0631 69.4293Z" fill="#7BC244"/>
</svg>
