<svg width="100" height="100" viewBox="0 0 100 100" fill="none" xmlns="http://www.w3.org/2000/svg">
<circle cx="50" cy="50" r="50" fill="#F5F4F8"/>
<path d="M65 80C64.75 80 64.5 79.95 64.265 79.85C63.685 79.6025 50 73.6425 50 61.385V51.34C50 50.5375 50.51 49.825 51.2725 49.565L64.3975 45.1C64.7875 44.9675 65.2125 44.9675 65.6025 45.1L78.7275 49.565C79.49 49.825 80 50.5375 80 51.34V61.385C80 73.6425 66.315 79.6025 65.735 79.8525C65.5 79.95 65.25 80 65 80ZM53.75 52.6825V61.3825C53.75 69.715 62.39 74.725 65 76.045C67.61 74.725 76.25 69.715 76.25 61.3825V52.6825L65 48.855L53.75 52.6825Z" fill="#7BC244"/>
<path d="M64.3751 68.75C63.8801 68.75 63.4001 68.555 63.0501 68.2L58.0501 63.2C57.3176 62.4675 57.3176 61.28 58.0501 60.5475C58.7826 59.815 59.9701 59.815 60.7026 60.5475L64.1751 64.02L70.3751 55.75C70.9901 54.9225 72.1701 54.7525 73.0001 55.3775C73.8276 55.9975 73.9951 57.1725 73.3726 58.0025L65.8726 68.0025C65.5476 68.4375 65.0501 68.7075 64.5051 68.7475C64.4626 68.7475 64.4201 68.75 64.3751 68.75Z" fill="#7BC244"/>
<path d="M46.475 72.5H26.875C23.0825 72.5 20 69.4175 20 65.625V26.875C20 23.0825 23.0825 20 26.875 20H55.625C59.4175 20 62.5 23.0825 62.5 26.875V40.45C62.5 41.485 61.66 42.325 60.625 42.325C59.59 42.325 58.75 41.485 58.75 40.45V26.875C58.75 25.1525 57.3475 23.75 55.625 23.75H26.875C25.1525 23.75 23.75 25.1525 23.75 26.875V65.625C23.75 67.3475 25.1525 68.75 26.875 68.75H46.475C47.51 68.75 48.35 69.59 48.35 70.625C48.35 71.66 47.51 72.5 46.475 72.5Z" fill="#7BC244"/>
<path d="M53.125 43.75H29.375C28.34 43.75 27.5 42.91 27.5 41.875C27.5 40.84 28.34 40 29.375 40H53.125C54.16 40 55 40.84 55 41.875C55 42.91 54.16 43.75 53.125 43.75Z" fill="#7BC244"/>
<path d="M43.125 53.75H29.375C28.34 53.75 27.5 52.91 27.5 51.875C27.5 50.84 28.34 50 29.375 50H43.125C44.16 50 45 50.84 45 51.875C45 52.91 44.16 53.75 43.125 53.75Z" fill="#7BC244"/>
<path d="M40.625 33.75H29.375C28.34 33.75 27.5 32.91 27.5 31.875C27.5 30.84 28.34 30 29.375 30H40.625C41.66 30 42.5 30.84 42.5 31.875C42.5 32.91 41.66 33.75 40.625 33.75Z" fill="#7BC244"/>
</svg>
