<svg width="11" height="8" viewBox="0 0 11 8" fill="none" xmlns="http://www.w3.org/2000/svg">
<path d="M5.04712 7.7696C5.09758 7.84066 5.1651 7.89875 5.24386 7.93889C5.32263 7.97903 5.41027 8 5.49925 8C5.58823 8 5.67588 7.97903 5.75464 7.93889C5.83341 7.89875 5.90093 7.84066 5.95139 7.7696L10.9018 0.836743C10.9591 0.756778 10.9927 0.663118 10.9989 0.565938C11.0052 0.468757 10.9839 0.371773 10.9372 0.285524C10.8906 0.199274 10.8205 0.127057 10.7346 0.0767191C10.6486 0.0263811 10.5501 -0.000152706 10.4496 6.61103e-07H0.548867C0.448673 0.000401918 0.350487 0.027277 0.264869 0.0777355C0.179251 0.128194 0.109439 0.200327 0.0629416 0.286377C0.0164442 0.372427 -0.00497963 0.469139 0.000974015 0.566112C0.00692766 0.663084 0.0400335 0.756648 0.0967313 0.836743L5.04712 7.7696Z" fill="#7BC244"/>
</svg>
