<svg width="60" height="60" viewBox="0 0 60 60" fill="none" xmlns="http://www.w3.org/2000/svg">
<path d="M60 28.6875C60 24.3867 57.8438 20.4023 54.2461 18.0469C52.1719 16.6992 49.7812 15.9844 47.3086 15.9844H36.4922V19.9219H31.3125H28.6992H23.5195V15.9961H12.7031C10.2305 15.9961 7.82812 16.7109 5.76562 18.0586C2.15625 20.4141 0 24.3867 0 28.6875C0 35.543 2.26172 42.3281 6.375 47.8125L7.88672 49.8281V60H52.125V49.8281L53.6367 47.8125C57.7383 42.3281 60 35.543 60 28.6875ZM23.5078 22.5352H36.4805V26.0625C36.4805 30.668 35.2734 35.2031 33 39.1758L32.7891 39.5508L32.3906 39.375C31.6289 39.0235 30.8203 38.8477 29.9883 38.8477C29.1562 38.8477 28.3477 39.0235 27.5859 39.375L27.1875 39.5508L26.9766 39.1758C24.7031 35.2031 23.4961 30.668 23.4961 26.0625V22.5352H23.5078ZM33.1992 44.6602C33.1992 46.418 31.7695 47.8594 30 47.8594C28.2422 47.8594 26.8008 46.4297 26.8008 44.6602C26.8008 42.8906 28.2305 41.461 30 41.461C31.7578 41.4727 33.1992 42.9024 33.1992 44.6602ZM8.47266 46.2422C4.69922 41.2149 2.625 34.9805 2.625 28.6992C2.625 25.2773 4.33594 22.125 7.19531 20.2617C8.83594 19.1953 10.7461 18.6211 12.7031 18.6211H20.8945V26.0742C20.8945 31.1602 22.2305 36.1641 24.75 40.5469L25.8164 42.3985L24.1758 44.5313V44.8008C24.1992 45.6328 24.3867 46.4414 24.7383 47.1797L25.0664 47.8594H9.67969L8.47266 46.2422ZM49.5 57.3867H10.5V50.4844H49.5V57.3867ZM51.5273 46.2422L50.3086 47.8594H34.9102L35.2383 47.1797C35.6016 46.4297 35.7891 45.6328 35.8008 44.8008V44.5313L34.1602 42.3985L35.2266 40.5469C37.7461 36.1641 39.082 31.1602 39.082 26.0742V18.6211H47.2734C49.2305 18.6211 51.1406 19.1836 52.7812 20.2617C55.6406 22.125 57.3516 25.2891 57.3516 28.6992C57.3867 34.9805 55.3008 41.2031 51.5273 46.2422Z" fill="#5F5F5F"/>
<path d="M25.8164 42.3984L22.4766 40.0547C18.3984 37.1953 15.9141 32.5781 15.7617 27.6211H13.1367C13.2422 31.6992 14.7188 35.6719 17.3203 38.8242L18.0117 39.6563L16.9336 39.5977C14.9414 39.4922 12.9492 39.7031 11.0273 40.2422L11.7891 42.75C15.8789 41.6367 20.2852 42.2227 23.9531 44.3789L24.1758 44.5078L25.8164 42.3984ZM35.8125 44.5313L36.0352 44.4024C39.7031 42.2344 44.1094 41.6484 48.1992 42.7734L48.9609 40.2656C47.0391 39.7266 45.0469 39.5156 43.0547 39.6211L41.9766 39.6797L42.668 38.8477C45.2695 35.6836 46.7461 31.7227 46.8516 27.6445H44.2266C44.0742 32.6016 41.5898 37.2305 37.5117 40.0781L34.1719 42.4219L35.8125 44.5313Z" fill="#7BC244"/>
<path d="M31.3125 19.9219V14.0391L34.5352 10.8164C35.7305 9.60938 36.3867 8.02734 36.3867 6.32812C36.3867 2.83594 33.5508 0 30.0586 0H29.9414C26.4492 0 23.6133 2.83594 23.6133 6.32812C23.6133 8.01562 24.2695 9.60938 25.4648 10.8047L28.6875 14.0273V19.9219H31.3125ZM27.3164 8.95312C26.6133 8.25 26.2266 7.32422 26.2266 6.32812C26.2266 4.27734 27.8906 2.61328 29.9414 2.61328H30.0586C32.1094 2.61328 33.7734 4.27734 33.7734 6.32812C33.7734 7.32422 33.3867 8.25 32.6836 8.95312L30 11.6367L27.3164 8.95312Z" fill="#7BC244"/>
</svg>
