<svg width="60" height="50" viewBox="0 0 60 50" fill="none" xmlns="http://www.w3.org/2000/svg">
<path d="M15.9887 6.51917C13.0073 6.51917 10.5669 8.90913 10.5669 11.8552C10.5669 14.7894 12.9953 17.1912 15.9887 17.1912C18.97 17.1912 21.4104 14.8012 21.4104 11.8552C21.4104 8.90913 18.9821 6.51917 15.9887 6.51917ZM15.9887 14.8012C14.3297 14.8012 12.9832 13.4761 12.9832 11.8433C12.9832 10.2106 14.3297 8.88547 15.9887 8.88547C17.6476 8.88547 18.9941 10.2106 18.9941 11.8433C18.9941 13.4761 17.6476 14.8012 15.9887 14.8012Z" fill="#7BC244"/>
<path d="M54.9389 43.8239C55.5039 45.3502 55.8165 46.9356 55.8766 48.5566H58.3049C58.2328 46.4624 57.8 44.4155 57.0066 42.4633L54.2537 35.6129H52.21H51.4887L51.6209 34.9148C51.7171 34.4297 51.9094 33.9565 52.222 33.495C53.0755 32.1936 53.2559 31.0814 53.4242 29.9929C53.5324 29.2712 53.6405 28.5968 53.9531 27.7922C54.2056 27.1178 54.6744 26.4908 55.3476 25.9347L55.9848 25.4023L56.2973 26.1595L57.764 29.7208L60 28.8334L54.3498 15.0852L53.3641 15.2863C53.2078 15.3218 49.4931 16.1027 47.1368 20.3975C45.2494 23.8405 41.0299 26.5263 35.8605 27.6029L35.3076 27.7212L35.1633 27.1888L34.3338 24.1955L33.1557 24.5386C29.8016 25.5088 28.0946 26.3606 24.6444 28.443C23.3701 29.212 21.687 29.6853 19.6193 29.8628L18.2849 29.9692L19.0783 28.9162C19.9439 27.7686 22.3362 24.6569 22.3602 24.6332C24.7646 21.5334 28.0705 17.2858 28.0705 11.8788C28.0345 5.31235 22.6367 0 15.9888 0C9.35283 0 3.95512 5.31235 3.95512 11.8434C3.95512 17.2504 7.24905 21.4979 9.65338 24.5977C9.67742 24.6332 11.9014 27.5201 12.7309 28.6204L13.4642 29.5906L12.238 29.567C12.1539 29.567 12.0817 29.567 11.9976 29.567C9.44901 29.567 7.46544 30.2532 5.96273 31.673C4.18353 33.3412 3.42617 36.1216 4.01523 38.7482L4.09938 39.1387L3.75075 39.3635L0 41.8363L4.5562 49.9527H6.35945L8.0545 48.0833C10.0621 45.859 12.9473 44.593 15.9647 44.593C18.5133 44.593 20.9778 45.504 22.9132 47.1486C24.8968 48.8405 26.7962 49.787 28.5634 49.9527C28.888 49.9882 29.2126 50 29.5251 50C31.1841 50 32.3743 49.5622 33.5404 49.1481C34.6223 48.7577 35.56 48.4146 36.8583 48.4146C37.195 48.4146 37.5436 48.4382 37.9162 48.4856C38.6135 48.5802 39.2747 48.6157 39.8638 48.6157C43.0976 48.6157 44.5522 47.3261 45.7544 45.3739C46.2352 44.6048 46.9445 44.0369 47.762 43.7885C47.9543 43.7293 48.1587 43.6938 48.3751 43.6938C49.469 43.6938 50.539 44.4983 51.0679 44.9598L54.1094 43.4927L54.7105 43.1969L54.9389 43.8239ZM11.5768 23.1543C9.25666 20.1727 6.37147 16.4576 6.37147 11.8434C6.37147 6.62565 10.6872 2.37814 15.9888 2.37814C21.2903 2.37814 25.6181 6.62565 25.6181 11.8552C25.6181 16.4576 22.7329 20.1846 20.4127 23.1661C20.3887 23.2016 17.4434 27.0469 16.4817 28.3128L16.0008 28.9517L15.5199 28.3128C14.5462 27.035 11.6009 23.1898 11.5768 23.1543ZM53.3039 41.2447L51.5368 42.0965L51.2603 42.2267L50.9838 42.0729C50.0942 41.5878 49.1805 41.3512 48.2909 41.3512C47.9904 41.3512 47.6778 41.3748 47.3893 41.434C45.9227 41.7179 44.6243 42.6763 43.7227 44.1316C43.1096 45.1136 42.4244 46.2257 39.8878 46.2257C39.4069 46.2257 38.8539 46.1903 38.2529 46.1074C37.784 46.0483 37.3152 46.0128 36.8704 46.0128C35.1393 46.0128 33.913 46.4624 32.7229 46.8883C31.677 47.2669 30.7634 47.5982 29.5372 47.5982C29.3088 47.5982 29.0563 47.5864 28.8159 47.5627C27.5656 47.4444 26.0749 46.6635 24.5121 45.3265C22.1439 43.3034 19.1144 42.1912 15.9888 42.1912C12.2981 42.1912 8.76377 43.7411 6.29934 46.4624L5.73432 47.0894L5.32559 46.3559L3.47425 43.0667L3.20978 42.5935L3.6666 42.2858L7.09277 40.0497L6.69605 39.1387C5.7223 36.8907 6.46764 34.4889 7.64576 33.3767C8.70367 32.3829 10.0741 31.9214 11.9615 31.9214C12.4664 31.9214 13.0074 31.9569 13.5965 32.0279C15.0751 32.1936 16.4576 32.2764 17.7199 32.2764C21.1581 32.2764 23.8269 31.673 25.8826 30.4307C28.4672 28.8689 29.9579 28.0525 32.0256 27.3426L32.6387 27.1297L32.807 27.7449L33.5283 30.3597L34.5742 30.2177C41.2703 29.2948 46.7642 26.0412 49.2527 21.5097C50.2144 19.7586 51.4286 18.7766 52.2941 18.2679L52.8952 17.9011L53.1597 18.5518L54.8788 22.7402L55.0591 23.1898L54.6504 23.4619C53.6406 24.1245 52.3182 25.2721 51.681 26.9759C51.2963 28.0052 51.1641 28.8689 51.0439 29.638C50.8876 30.6318 50.7674 31.3417 50.2024 32.2172C48.4352 34.9148 49.421 37.0918 49.5412 37.3403L49.8658 38.0147H52.21H52.6187L52.763 38.3933L53.6165 40.5111L53.8209 41.0199L53.3039 41.2447Z" fill="#5F5F5F"/>
</svg>
