<svg width="61" height="58" viewBox="0 0 61 58" fill="none" xmlns="http://www.w3.org/2000/svg">
<path d="M36.0039 51.7062V47.9346C36.0039 45.1648 33.7656 42.9019 31 42.9019C28.2344 42.9019 25.9961 45.153 25.9961 47.9346V51.7062C25.9961 52.4016 26.5586 52.9673 27.25 52.9673H34.75C35.4414 52.9555 36.0039 52.4016 36.0039 51.7062ZM33.4961 47.9346V50.445H28.4922V47.9346C28.4922 46.5438 29.6172 45.4241 30.9883 45.4241C32.3828 45.4123 33.4961 46.5438 33.4961 47.9346Z" fill="#7BC244"/>
<path d="M53.5 51.7062V47.9346C53.5 45.1648 51.2617 42.9019 48.4961 42.9019C45.7305 42.9019 43.4922 45.153 43.4922 47.9346V51.7062C43.4922 52.4016 44.0547 52.9673 44.7461 52.9673H52.2461C52.9375 52.9555 53.5 52.4016 53.5 51.7062ZM51.0039 50.445H46V47.9346C46 46.5438 47.125 45.4241 48.4961 45.4241C49.8789 45.4241 50.9922 46.5556 50.9922 47.9346V50.445H51.0039Z" fill="#7BC244"/>
<path d="M1.16309 24.6803C1.38574 25.0693 1.7959 25.305 2.24121 25.305H3.49512V56.7389C3.49512 57.4343 4.05762 58 4.74902 58H59.7451C60.4365 58 60.999 57.4343 60.999 56.7389V39.1303C60.999 39.0713 60.9756 39.0242 60.9639 38.977C60.9521 38.8945 60.9404 38.8238 60.917 38.7531C60.8936 38.6706 60.8467 38.5881 60.7998 38.5056C60.7764 38.4702 60.7646 38.4231 60.7412 38.3877L53.2412 28.3341C53.0068 28.0159 52.6318 27.8273 52.2451 27.8273H21.0029V25.3168H22.2568C22.7021 25.3168 23.1123 25.0811 23.335 24.6921C23.5576 24.3032 23.5576 23.8317 23.335 23.4428L13.5029 6.10526V2.67547V2.52225V1.26113C13.5029 0.565739 12.9404 0 12.249 0C11.5576 0 10.9951 0.565739 10.9951 1.26113V2.52225V2.67547V6.11705L1.16309 23.4192C0.94043 23.8082 0.94043 24.2914 1.16309 24.6803ZM21.0029 40.3914H58.5029V55.4777H21.0029V40.3914ZM21.0029 37.8691V30.3259H51.624L57.249 37.8691H21.0029ZM6.00293 25.305H18.5068V29.0648V29.0766V29.0884V55.4777H6.00293V25.305ZM4.40918 22.7828L12.249 8.9811L20.0889 22.7946H4.40918V22.7828Z" fill="#5F5F5F"/>
<path d="M16 34.0975C16 32.0231 14.3125 30.3259 12.25 30.3259C10.1875 30.3259 8.5 32.0231 8.5 34.0975C8.5 36.1719 10.1875 37.8691 12.25 37.8691C14.3125 37.8691 16 36.1837 16 34.0975ZM13.5039 34.0975C13.5039 34.7929 12.9414 35.3586 12.25 35.3586C11.5586 35.3586 10.9961 34.7929 10.9961 34.0975C10.9961 33.4021 11.5586 32.8364 12.25 32.8364C12.9414 32.8364 13.5039 33.4021 13.5039 34.0975Z" fill="#7BC244"/>
</svg>
