<svg width="48" height="60" viewBox="0 0 48 60" fill="none" xmlns="http://www.w3.org/2000/svg">
<path d="M14 19H24H34H36H38V16C38 9.8 33.9 4.3 28 2.6C27.8 1.1 26.5 0 25 0H24H23C21.5 0 20.2 1.1 20 2.6C14.1 4.3 10 9.8 10 16V19H12H14ZM20 4.7V11H22V3C22 2.4 22.4 2 23 2H24H25C25.6 2 26 2.4 26 3V11H28V4.7C32.1 6.1 35.1 9.6 35.8 13.9C35 13.3 34 13 33 13H24H15C14 13 13 13.3 12.2 13.9C12.9 9.6 15.9 6.1 20 4.7ZM15 15H24H33C34.3 15 35.4 15.8 35.8 17H24H12.2C12.6 15.8 13.7 15 15 15Z" fill="#7BC244"/>
<path d="M41.4 37.5L33.1 33.9C34.3 32.8 35.1 31.4 35.6 29.9L38.3 28.5C39.4 28 40 26.9 40 25.8V24C40 22.3 38.7 21 37 21H36.6L36 21.6V19H34V27.3C34 29.8 32.6 32.2 30.3 33.4L27.3 35C26.2625 35.5375 25.1375 35.8125 24 35.825C22.8625 35.8125 21.7375 35.5375 20.7 35L17.7 33.4C15.4 32.2 14 29.8 14 27.3V19H12V21.6L11.4 21H11C9.3 21 8 22.3 8 24V25.8C8 26.9 8.6 28 9.7 28.5L12.4 29.9C12.9 31.4 13.7 32.8 14.9 33.9L6.6 37.5C2.6 39.3 0 43.2 0 47.6V60H24H27.9875H39H48V47.6C48 43.2 45.4 39.3 41.4 37.5ZM36 27.3V24.5L37.4 23.1C37.7 23.2 38 23.6 38 24V25.8C38 26.2 37.7 26.5 37.4 26.7L36 27.4V27.3ZM12 27.3V27.4L10.6 26.7C10.3 26.5 10 26.2 10 25.8V24C10 23.6 10.3 23.2 10.6 23.1L12 24.5V27.3ZM40.2 39.1L31.5 45.4C31 45.8 30.3 46 29.7 46H26.3L26.6 44.8C26.7 44.3 27.1 44 27.6 44H29C30.6 44 32.2 43.2 33.1 41.9L36.3 37.4L40.2 39.1ZM11.7 37.4L14.9 41.9C15.8 43.2 17.4 44 19 44H20.4C20.9 44 21.3 44.3 21.4 44.8L21.7 46H18.3C17.7 46 17 45.8 16.5 45.4L7.8 39.1L11.7 37.4ZM23 58H20H18H11H9H2V47.5C2 44.5 3.5 41.8 5.9 40.1L15.4 47C16.3 47.6 17.3 48 18.3 48H23V58ZM24 46.9L23.3 44.3C23 42.9 21.8 42 20.4 42H19C18 42 17.1 41.5 16.6 40.7L13.6 36.5L16.7 35.1L19.6 36.7C20.975 37.4625 22.4875 37.8375 24 37.825C25.5125 37.8375 27.025 37.4625 28.4 36.7L31.3 35.1L34.4 36.5L31.4 40.7C30.9 41.5 30 42 29 42H27.6C26.2 42 25 42.9 24.7 44.3L24 46.9ZM37 58H30V56H37V58ZM37 54H30V52H37V54ZM46 58H39V50H37.3L38 47.2L36.025 46.8H36V46.8125L35.2 50H28V58H27.9875H25V48H29.7C30.7 48 31.7 47.6 32.6 47L42.1 40.1C44.5 41.8 46 44.5 46 47.5V58Z" fill="#5F5F5F"/>
</svg>
