<svg width="50" height="60" viewBox="0 0 50 60" fill="none" xmlns="http://www.w3.org/2000/svg">
<path d="M49.8878 58.1053H49.8005C49.9002 57.8211 50 57.4421 50 57.1579V48.6316C50 48.4184 49.9751 48.2171 49.9377 48.0158C49.6633 47.0566 48.9526 46.2868 47.9551 45.9789L45.9601 45.7895H44.015H43.9651V44.8421C43.9651 43.2316 42.6683 42 40.9726 42H39.0274C37.3317 42 36.0349 43.2316 36.0349 44.8421V45.7895H35.985H34.0399L32.0449 45.9789C31.0474 46.2987 30.3367 47.0684 30.0623 48.0158C30.0249 48.2171 30 48.4184 30 48.6316V57.1579C30 57.4421 30.0998 57.8211 30.1995 58.1053H30.1122C30.5112 59.2303 31.596 60 32.9426 60H47.0574C48.404 60 49.4888 59.2303 49.8878 58.1053ZM37.9801 44.8421C37.9801 44.2737 38.3791 43.8947 38.9776 43.8947H39.0274H40.9726H41.0224C41.6209 43.8947 42.0199 44.2737 42.0199 44.8421V45.7895H41.9701H38.0299H37.9801V44.8421ZM48.005 57.1579C48.005 57.7263 47.606 58.1053 47.0075 58.1053H46.9576H33.0424H32.9925C32.394 58.1053 31.995 57.7263 31.995 57.1579V52.4211H32.0449H38.9776H39.0274V54.3158H40.9726V52.4211H41.0224H47.9551H48.005V57.1579ZM48.005 50.5263H47.9551H32.0449H31.995V48.6316C31.995 48.0632 32.394 47.6842 32.9925 47.6842H33.0424H46.9576H47.0075C47.606 47.6842 48.005 48.0632 48.005 48.6316V50.5263Z" fill="#7BC244"/>
<path d="M45.9708 45.0498L47.9624 45.2492H48V42.6578C48 38.2724 45.3946 34.3854 41.3862 32.5914L32.5678 28.7043C34.071 27.1096 34.9729 24.9169 34.9729 22.7243L37.3779 21.5282C38.38 21.0299 39.0814 20.0332 39.0814 18.8372V18.1395C39.0814 16.4452 37.7787 15.1495 36.0752 15.1495H35.0731V8.17276C35.0731 5.38206 32.8685 3.18937 30.0626 3.18937H29.5616C28.2589 3.18937 26.9562 2.69103 26.0543 1.69435L24.3507 0L18.6388 1.89369C17.9374 2.09302 17.2359 2.49169 16.6347 2.89037L15.833 3.48837C13.929 4.88372 12.9269 6.97674 12.9269 9.16944V15.1495H11.9248C10.2213 15.1495 8.91858 16.4452 8.91858 18.1395V18.9369C8.91858 20.0332 9.51983 21.1296 10.6221 21.6279L13.0271 22.8239C13.0271 25.0166 13.929 27.1096 15.4321 28.804L6.61378 32.691C2.60543 34.4851 0 38.3721 0 42.7575V60H32.8935C31.5407 60 30.4509 59.1902 30.0501 58.0066H24.952V34.2857L31.0647 39.4684L37.4781 33.0897L40.5845 34.4851C43.8914 35.8804 45.9958 39.1694 45.9958 42.6578V45.0498H45.9708ZM34.9729 17.1429H35.9749C36.5762 17.1429 36.977 17.5415 36.977 18.1395V18.9369C36.977 19.3355 36.7766 19.6346 36.3758 19.8339L34.9729 20.5316V17.1429ZM12.9269 20.5316L11.524 19.8339C11.2234 19.6346 10.9228 19.3355 10.9228 18.9369V18.1395C10.9228 17.5415 11.3236 17.1429 11.9248 17.1429H12.9269V20.5316ZM14.9311 9.16944C14.9311 7.57475 15.6326 6.07973 16.9353 5.18272L17.737 4.58472C18.1378 4.28571 18.6388 3.98671 19.1399 3.88704L23.6493 2.39203L24.4509 3.18937C25.7537 4.48505 27.5574 5.28239 29.4614 5.28239H29.9624C31.666 5.28239 32.9687 6.57807 32.9687 8.27243V12.4585C32.6681 12.3588 32.2672 12.2591 31.9666 12.2591H25.6534C24.2505 12.2591 22.9478 11.5615 22.1461 10.4651L21.8455 10.1661C20.8434 8.87043 19.1399 8.57143 17.737 9.46844L14.9311 11.2625V9.16944ZM17.0355 30.0997C17.1357 30.0997 17.1357 30.1993 17.2359 30.299L20.2422 32.093C20.643 32.392 21.144 32.5914 21.5449 32.691L16.8351 36.6777L12.2255 32.093L17.0355 30.0997ZM22.9478 58.0066H11.9248V47.0432H9.92067V58.0066H1.90397V42.5581C1.90397 38.9701 4.00835 35.7807 7.31524 34.3854L10.4217 32.99L16.8351 39.3688L22.9478 34.186V58.0066ZM21.3445 30.3987L18.3382 28.6047C16.2338 27.309 14.9311 25.1163 14.9311 22.6246V14.2525C14.9311 13.9535 15.1315 13.6545 15.3319 13.4551L18.8392 11.0631C19.2401 10.7641 19.8413 10.8638 20.2422 11.2625L20.5428 11.5615C21.7453 13.1561 23.6493 14.0532 25.6534 14.1528H31.9666C32.5678 14.1528 32.9687 14.5515 32.9687 15.1495V22.6246C32.9687 25.1163 31.666 27.309 29.5616 28.6047L26.5553 30.3987C24.952 31.3953 22.9478 31.3953 21.3445 30.3987ZM30.8643 36.7774L26.1545 32.7907C26.6555 32.5914 27.0564 32.392 27.4572 32.1927L30.4635 30.3987C30.5637 30.3987 30.5637 30.299 30.6639 30.1993L35.4739 32.1927L30.8643 36.7774Z" fill="#5F5F5F"/>
</svg>
