<svg width="49" height="60" viewBox="0 0 49 60" fill="none" xmlns="http://www.w3.org/2000/svg">
<path d="M33.9333 57.9983H33.8959C34.4319 56.7848 34.6937 55.5212 34.7311 54.2702C34.7311 54.2076 34.7311 54.1451 34.7311 54.07C34.7311 54.045 34.7311 54.02 34.7311 53.9824C34.7062 49.904 32.2628 46.4136 28.7723 44.8748C28.7598 44.8748 28.7473 44.8623 28.7349 44.8623C28.0243 44.5496 27.2638 44.3244 26.4785 44.1868H23.0503C18.363 44.9999 14.7976 49.1034 14.7852 54.045C14.7852 54.0575 14.7852 54.0825 14.7852 54.095C14.7852 54.2201 14.7852 54.3327 14.7976 54.4453C14.8475 55.5587 15.0968 56.6972 15.5456 57.7856C15.5456 57.8857 15.6453 57.8857 15.6453 57.9858H15.5955C15.9071 58.6989 16.2811 59.3744 16.7424 59.9874H32.7864C33.2352 59.3869 33.6216 58.7114 33.9333 57.9983ZM23.9229 57.9983H23.8232H17.9391C16.6426 55.7964 16.4432 52.9941 17.6399 50.5921L23.9229 54.4954V57.9983ZM18.6372 48.8907C21.4296 45.4878 26.4161 44.9874 29.8069 47.6897C30.2059 47.9899 30.6048 48.3903 31.0037 48.8907L24.8205 52.7939L18.6372 48.8907ZM25.8178 54.5954L32.1007 50.6922C33.1978 52.9941 32.9983 55.7964 31.7018 57.9983H25.8178V54.5954Z" fill="#7BC244"/>
<path d="M42.1631 32.4771L33.3869 28.6739C34.2845 27.573 34.9826 26.2719 35.2818 24.8707L38.0742 23.4696C39.0715 22.9691 39.7696 21.9683 39.7696 20.7673V19.5663C39.7696 17.8649 38.4731 16.5638 36.7777 16.5638C36.5782 16.5638 36.2791 16.5638 36.0796 16.6639H35.7804V14.6622C38.7723 13.7615 40.7669 11.0592 40.7669 7.95663V7.85655C40.7669 5.65471 39.3707 3.75313 37.3761 3.15263L31.0931 1.05088C27.0042 -0.350292 22.6161 -0.350292 18.5272 1.05088L12.2442 3.15263C10.2496 3.75313 8.85338 5.7548 8.85338 7.85655C8.85338 10.759 10.5488 13.2611 13.2415 14.362L13.8399 14.5621V16.5638L13.5407 16.4637C11.945 16.0634 10.3493 17.0642 9.95041 18.6656C9.85068 19.0659 9.85068 19.2661 9.85068 19.5663V20.7673C9.85068 21.8682 10.4491 22.9691 11.5461 23.4696L14.3385 24.8707C14.7374 26.2719 15.4355 27.573 16.2334 28.6739L7.45716 32.4771C3.46797 34.2786 0.875 38.1818 0.875 42.5855V60H48.7453V42.4854C48.7453 38.1818 46.1523 34.1785 42.1631 32.4771ZM13.8399 21.7681V22.3686L12.4436 21.6681C12.1445 21.4679 11.8453 21.1676 11.8453 20.7673V19.5663C11.8453 18.9658 12.2442 18.5655 12.8426 18.5655H13.042L13.8399 18.7656V21.7681ZM34.5836 31.2761L32.3896 36.3803L27.4031 32.5771C27.9018 32.4771 28.4004 32.2769 28.8991 31.9766L29.7966 31.5763C30.5945 31.176 31.3923 30.6756 31.9907 30.0751L34.5836 31.2761ZM36.5782 18.5655C37.0769 18.4654 37.6753 18.7656 37.775 19.2661V19.4662V20.6672C37.775 21.0676 37.5755 21.3678 37.1766 21.568L35.7804 22.3686C35.7804 22.1685 35.7804 21.9683 35.7804 21.7681V18.7656L36.5782 18.5655ZM14.7374 12.8607L13.9396 12.5605C12.0447 11.7598 10.7482 9.9583 10.848 7.85655C10.848 6.55546 11.6458 5.45455 12.9423 5.05421L19.1255 2.95246C22.8155 1.65138 26.8047 1.65138 30.4947 2.95246L36.678 4.95413C37.9745 5.35446 38.7723 6.55546 38.7723 7.85655V8.05671C38.7723 10.3586 37.1766 12.3603 34.9826 12.9608L34.5836 12.7606C28.5999 9.15763 21.1201 9.15763 15.0366 12.7606L14.7374 12.8607ZM32.988 14.0617L30.1955 16.2636C29.6969 16.6639 28.9988 16.9641 28.3007 16.9641H20.422C19.6242 16.9641 18.8264 16.6639 18.3277 16.0634L16.4328 14.1618C21.6188 11.2594 27.9018 11.2594 32.988 14.0617ZM15.8345 21.7681V16.3636L16.9315 17.4646C17.8291 18.3653 19.1255 18.9658 20.422 18.9658H28.3007C29.3977 18.9658 30.4947 18.5655 31.3923 17.8649L33.6861 16.0634V21.7681C33.6861 25.171 31.7912 28.2736 28.6996 29.7748L27.802 30.1751C25.8074 31.176 23.5136 31.176 21.5191 30.1751L20.8209 29.8749C17.7293 28.3736 15.8345 25.171 15.8345 21.7681ZM27.3034 35.0792L25.5082 36.8807C25.1093 37.2811 24.5109 37.2811 24.112 36.8807L22.3169 35.0792L24.8101 33.1776L27.3034 35.0792ZM17.6296 30.1751C18.3277 30.7756 19.0258 31.2761 19.8236 31.6764L20.7212 32.0767L22.2172 32.6772L17.2307 36.4804L15.0366 31.3761L17.6296 30.1751ZM46.6509 57.9983H38.7723V47.99H36.7777V57.9983H33.9354C33.6238 58.7114 33.2498 59.387 32.7885 60H16.7445C16.2832 59.387 15.9093 58.7114 15.5976 57.9983H12.8426V47.99H10.848V57.9983H2.86959V42.4854C2.86959 38.8824 4.96392 35.6797 8.255 34.2786L13.2415 32.0767L16.4328 39.583L20.7212 36.3803L21.7185 37.3811L20.9207 44.8123C20.9207 44.8123 22.1548 44.3495 23.015 44.1993V44.1868L23.6134 38.8824C24.4112 39.1826 25.2091 39.1826 26.0069 38.8824L26.6053 44.1868C26.5803 44.1868 26.6053 44.2118 26.6053 44.2118C27.3657 44.3495 27.9142 44.5121 28.5999 44.7998C28.5625 44.7748 28.6747 44.7873 28.5999 44.7873L27.802 37.3811L28.7993 36.3803L33.0877 39.583L36.2791 32.0767L41.2655 34.2786C44.5566 35.6797 46.6509 38.9825 46.6509 42.4854V57.9983Z" fill="#5F5F5F"/>
</svg>
