<svg width="52" height="60" viewBox="0 0 52 60" fill="none" xmlns="http://www.w3.org/2000/svg">
<path d="M34.6482 57.9577H25.2538V49.264L27.3498 45.7041V41.2823C27.5014 40.7078 27.3625 40.9451 27.2741 41.6696L24.2436 46.9657L20.9101 41.1699L15.4553 39.3712L16.6675 36.3734L19.6979 37.8723C22.5264 39.2713 25.8599 39.2713 28.6883 37.8723L31.7187 36.3734L32.7289 38.9715H35.0522L32.2238 31.9766L41.3152 36.1736C44.1436 37.4726 46.0629 40.0707 46.4669 43.1685C46.0629 43.131 46.0629 43.131 46.4669 43.1685C47.9695 43.6431 48.26 44.1178 48.4873 44.2677C48.5125 44.2926 48.5378 44.3051 48.5504 44.3301C48.5378 44.3176 48.5125 44.2926 48.4873 44.2677C48.4873 40.0707 45.9619 36.2735 42.1233 34.3749L38.8908 32.876L39.2949 32.6761C41.8203 31.477 42.8304 28.4792 41.5172 25.981L40.406 23.6827L39.4969 13.69C38.8908 5.89569 32.3248 0 24.4457 0H24.1426C16.1624 0 9.59643 5.89569 8.99034 13.69L8.08121 23.6827L6.97004 25.981C5.75786 28.4792 6.76801 31.477 9.19238 32.6761L9.59643 32.876L6.36395 34.3749C2.52538 36.1736 0 40.0707 0 44.3676V59.9562H38.3857L34.6482 57.9577ZM27.7792 36.0736C25.4558 37.1728 22.8294 37.1728 20.5061 36.0736L17.2736 34.4748L18.5868 31.2772C18.7888 31.3771 18.9908 31.477 19.0919 31.5769L20.001 31.9766C22.5264 33.2757 25.5568 33.2757 28.1832 31.9766L29.0923 31.5769C29.2944 31.477 29.4964 31.3771 29.5974 31.2772L31.0116 34.4748L27.7792 36.0736ZM28.2842 29.8782L27.3751 30.2779C25.3548 31.2772 23.0314 31.2772 21.0111 30.2779L20.203 29.8782C17.0716 28.3793 15.1523 25.2815 15.1523 21.884V15.8884C15.1523 15.3888 15.5563 14.9891 16.0614 14.8891L19.799 14.4894C21.6172 14.2896 23.2335 13.3902 24.2436 11.8913C25.2538 13.3902 26.87 14.3895 28.6883 14.4894L32.4258 14.8891C32.9309 14.8891 33.335 15.3888 33.335 15.8884V21.884C33.335 25.1816 31.4157 28.3793 28.2842 29.8782ZM8.58628 29.1787C8.28324 28.3793 8.38425 27.5799 8.78831 26.8804L10.1015 24.2823L11.0106 13.8899C11.5157 7.09482 17.2736 1.99854 24.0416 1.99854H24.3446C31.2137 1.99854 36.8705 7.09482 37.4766 13.8899L38.3857 24.2823L39.6989 26.8804C40.406 28.3793 39.7999 30.178 38.3857 30.8774L36.5675 31.7768L32.0218 29.6783C34.1431 27.5799 35.3553 24.7819 35.3553 21.7841V15.7885C35.3553 14.2896 34.1431 12.9905 32.6279 12.7907L28.8903 12.3909C26.87 12.1911 25.2538 10.4923 25.2538 8.39387V6.99489H23.2335V8.4938C23.2335 10.5923 21.6172 12.291 19.5969 12.4909L15.8594 12.8906C14.3441 12.9905 13.132 14.2896 13.132 15.8884V21.884C13.132 24.8818 14.3441 27.6798 16.4655 29.7782L11.9198 31.8767L10.1015 30.8774C9.3944 30.4777 8.88933 29.8782 8.58628 29.1787ZM23.2335 57.9577H12.1218V46.9657H10.1015V57.9577H2.0203V44.2677C2.0203 40.7702 4.0406 37.5726 7.27309 36.1736L16.3644 31.9766L12.8289 40.5704L19.4959 42.7688L23.2335 49.1641V57.9577Z" fill="#5F5F5F"/>
<path d="M27.3477 45.7041L27.3729 45.6666C27.676 46.9657 28.8881 47.965 30.3023 47.965H30.9084L33.3328 50.3632L35.7572 47.965H36.3632C38.0805 47.965 39.3937 46.6659 39.3937 44.9671V41.9693C39.3937 40.2706 38.0805 38.9715 36.3632 38.9715H35.05H32.7267H30.3023C28.926 38.9715 27.7138 39.9708 27.3477 41.2823V45.7041ZM29.2922 41.9693C29.2922 41.3698 29.6963 40.9701 30.3023 40.9701H36.3632C36.9693 40.9701 37.3734 41.3698 37.3734 41.9693V44.9671C37.3734 45.5667 36.9693 45.9664 36.3632 45.9664H34.949L33.3328 47.5652L31.7166 45.9664H30.3023C29.6963 45.9664 29.2922 45.5667 29.2922 44.9671V41.9693Z" fill="#7BC244"/>
<path d="M50.5051 47.0652L48.6869 44.4671C48.5858 44.3672 48.5858 44.3672 48.4848 44.2673C48.2575 44.1174 47.9671 43.6427 46.4645 43.1681C45.5554 43.0682 44.7473 43.3679 44.1412 44.0674L42.727 45.4664C41.9188 46.2658 41.6158 47.465 42.0199 48.5641L42.4239 49.7633L40.3026 51.8617L39.0904 51.462C37.9793 51.0623 36.7671 51.3621 35.959 52.1615L34.3427 53.5605C33.1305 54.7596 33.1305 56.5583 34.3427 57.7574C34.4437 57.8574 34.5448 57.9573 34.6458 57.9573L38.3833 59.9558C39.7975 60.1557 41.1107 59.6561 42.1209 58.7567L50.1011 50.8625C51.1112 49.8632 51.3132 48.2644 50.5051 47.0652ZM48.5858 49.4635L40.6057 57.3577C39.7975 58.1572 38.4843 58.2571 37.5752 57.6575L35.858 56.5583C35.3529 56.2585 35.2519 55.659 35.5549 55.1593C35.5549 55.0594 35.6559 55.0594 35.6559 54.9595L37.0701 53.5605C37.2722 53.3606 37.4742 53.2607 37.7772 53.2607C37.8783 53.2607 37.9793 53.2607 38.0803 53.3607L40.5046 54.1601L44.4442 50.2629L43.6361 47.8647C43.5351 47.465 43.6361 47.0652 43.8381 46.8654L45.2523 45.4664C45.4544 45.2666 45.7574 45.1666 46.0605 45.1666C46.3635 45.1666 46.6666 45.3665 46.7676 45.5663L48.4848 48.1644C48.9899 48.5642 48.9899 49.0638 48.5858 49.4635Z" fill="#7BC244"/>
</svg>
