<svg width="50" height="60" viewBox="0 0 50 60" fill="none" xmlns="http://www.w3.org/2000/svg">
<path d="M42.2413 32.3L33.9332 27.9C34.9341 26.7 35.5347 25.2 35.835 23.7L38.8379 21.4C39.6387 20.8 40.0391 19.9 40.0391 19V18.6C40.0391 16.9 38.7378 15.6 37.0362 15.6C36.836 15.6 36.5357 15.6 36.3355 15.7H36.0352V14.1L37.1363 6.9C37.6368 3.6 35.4346 0.6 32.1314 0.1C31.8311 0 31.5308 0 31.2305 0H16.8164C13.5132 0 10.8106 2.7 10.8106 6C10.8106 6.3 10.8106 6.6 10.9107 6.9L12.0117 14.1V15.7L11.7114 15.6C10.1099 15.2 8.50831 16.2 8.10792 17.8C8.00782 18.1 8.00782 18.3 8.00782 18.6V19C8.00782 19.9 8.40821 20.8 9.209 21.4L12.2119 23.7C12.5122 25.2 13.2129 26.7 14.1138 27.9L5.80567 32.3C2.20215 34.2 0 37.9 0 42V60H38.8379V59.9625C37.6117 59.875 36.6358 59.1 36.2604 58H36.2354H34.9592H28.0274V52.4C28.0274 52.3 28.0274 52.1 28.1275 52L28.7281 50.7L38.5376 41.8C39.5386 40.8 39.8389 39.3 39.1382 38.1L34.7339 30.5L41.3404 34C44.2432 35.6 46.1451 38.6 46.1451 41.9V45.9H46.1075V46H46.9959C47.3463 46 47.6841 46.0625 47.9969 46.1625V46.175C48.0094 46.175 48.0344 46.1875 48.0469 46.2V42C48.0469 37.9 45.8448 34.2 42.2413 32.3ZM36.0352 17.8L36.836 17.6C37.3365 17.5 37.9371 17.8 38.0372 18.3V18.5V19C38.0372 19.3 37.9371 19.6 37.6368 19.8L36.0352 21V17.8ZM12.1118 21H12.0117L10.4102 19.8C10.1099 19.6 10.0098 19.3 10.0098 19V18.6C10.0098 18.3 10.1099 18 10.4102 17.8C10.6104 17.6 11.0108 17.5 11.3111 17.6L12.1118 17.8V21ZM12.9126 6.6C12.5122 4.4 14.0137 2.4 16.2158 2H16.8164H31.1304C33.3326 2 35.1343 3.8 35.1343 6V6.6L34.4336 11.4C34.0332 11.1 33.5328 11 33.0323 11H30.8301C30.0293 11 29.2286 11.3 28.7281 11.9L27.0264 13.6L25.3247 11.9C24.7242 11.3 24.0235 11 23.2227 11H15.0147C14.5142 11 14.0137 11.1 13.6133 11.4L12.9126 6.6ZM14.0137 21.7V14C14.0137 13.4 14.4141 13 15.0147 13H23.2227C23.523 13 23.7232 13.1 23.9234 13.3L25.625 15C26.4258 15.8 27.627 15.8 28.4278 15L30.1294 13.3C30.3296 13.1 30.5298 13 30.8301 13H33.0323C33.6329 13 34.0332 13.4 34.0332 14V21.7C34.0332 24.6 32.4317 27.3 29.8291 28.7L26.8262 30.3C25.0244 31.3 22.8223 31.3 21.1206 30.3L18.1177 28.7C15.6153 27.3 14.0137 24.6 14.0137 21.7ZM15.0147 31.7V40.6C15.0147 41 15.1148 41.5 15.315 41.8L17.3169 46.1L10.9107 40.3C10.6104 40 10.5103 39.5 10.7105 39.1L15.0147 31.7ZM20.1197 58H20.0196H13.0127V51H11.0108V58H2.00196V42C2.00196 38.7 3.80372 35.6 6.80665 34.1L13.4131 30.6L9.0088 38.1C8.30812 39.3 8.50831 40.9 9.60939 41.8L19.419 50.7L20.0196 52C20.1197 52.1 20.1197 52.3 20.1197 52.4V58ZM28.4278 46.5V46.4875L26.2757 51.25L26.3257 51.2C26.1255 51.6 26.0254 52 26.0254 52.4V58H22.0215V55.4L22.034 55.3875V52.6L26.6385 48L26.0379 44.4L26.0254 44.4125L26.626 48.0125L22.0215 52.6V52.4C22.0215 52 21.9214 51.5 21.7212 51.2L21.0205 49.7L21.033 49.6375L19.6067 46.5125V46.475L17.1167 41C17.0166 40.9 17.0166 40.7 17.0166 40.6V30.3C17.1167 30.3 17.1167 30.4 17.2168 30.4L20.2198 32C20.7202 32.3 21.3208 32.5 21.9214 32.7L21.9339 32.6875C21.9339 32.6875 21.9339 32.6875 21.9214 32.6875C23.0976 31.5125 24.8368 31.4875 26.1255 32.7C26.7261 32.5 27.3267 32.3 27.8272 32L30.8301 30.4C30.9302 30.4 30.9302 30.3 31.0303 30.3V40.6C31.0303 40.7 31.0303 40.9 30.9302 41L28.4278 46.5ZM37.3365 39.1C37.5367 39.5 37.5367 40 37.1363 40.3L30.73 46.1L32.732 41.8C32.9322 41.4 33.0323 41 33.0323 40.6V31.7L37.3365 39.1Z" fill="#5F5F5F"/>
<path d="M41.9917 53.5875L40.6904 52.2875L39.2891 53.6875L41.9917 56.3875L46.6963 51.6875L45.2949 50.2875L41.9917 53.5875Z" fill="#7BC244"/>
<path d="M27.0408 38.3876L27.241 38.1876C28.5423 36.8876 28.5423 35.0876 27.3411 33.8876L26.1775 32.7251H26.1525C24.8637 31.4876 23.0995 31.5126 21.9233 32.6876C21.9233 32.6876 21.9233 32.6876 21.9359 32.6876L21.623 33.0001H21.6356L20.7472 33.8876C19.546 35.0876 19.546 36.9876 20.7472 38.0876L20.9474 38.2876L19.6461 46.4876L19.6211 46.4251V46.5001L21.06 49.6376L21.1476 49.2751L26.0524 44.3751L26.653 47.9751L22.0485 52.5751V55.3751L26.2901 51.2376L28.4547 46.4376L27.0408 38.3876ZM21.7357 45.7876L22.7366 39.7876C23.5374 40.1876 24.5384 40.1876 25.3392 39.7876L25.6395 41.8876L21.7357 45.7876ZM25.9398 36.6876L24.7386 37.8876C24.3382 38.2876 23.7376 38.2876 23.3372 37.8876L22.136 36.6876C21.7357 36.2876 21.7357 35.6876 22.136 35.2876L23.3372 34.0876C23.7376 33.6876 24.3382 33.6876 24.7386 34.0876L25.9398 35.2876C26.3402 35.6876 26.3402 36.2876 25.9398 36.6876Z" fill="#7BC244"/>
<path d="M47.9976 46.175V46.1625C47.6848 46.0625 47.3469 46 46.9966 46H46.0957H39.9898H39.0889C38.7385 46 38.4007 46.0625 38.0879 46.1625V46.175C36.8867 46.575 36.0859 47.675 36.0859 48.975V56.875V56.975C36.0859 58.675 37.3872 59.975 39.0889 59.975H46.9966C48.6983 59.975 49.9995 58.675 49.9995 56.975V56.875V48.975C49.9995 47.675 49.1987 46.575 47.9976 46.175ZM48.0977 56.975C48.0977 57.575 47.6973 57.975 47.0967 57.975H46.9966H39.0889H38.9888C38.3882 57.975 37.9878 57.575 37.9878 56.975V48.975C37.9878 48.375 38.3882 47.975 38.9888 47.975H39.0889H46.9966H47.0967C47.6973 47.975 48.0977 48.375 48.0977 48.975V56.975Z" fill="#7BC244"/>
</svg>
