<svg width="16" height="9" viewBox="0 0 16 9" fill="none" xmlns="http://www.w3.org/2000/svg">
<path d="M15.5578 8.05913C15.5389 8.01831 15.5212 7.98445 15.5048 7.95733C15.2335 7.46859 14.7149 6.8687 13.9494 6.15748L13.9333 6.14119L13.9251 6.1332L13.917 6.12502H13.9087C13.5613 5.79384 13.3413 5.57116 13.2492 5.45716C13.0806 5.23998 13.0429 5.02016 13.135 4.79742C13.2001 4.62914 13.4446 4.27374 13.8679 3.73075C14.0906 3.44298 14.267 3.21235 14.3972 3.03859C15.3365 1.78986 15.7437 0.991901 15.6188 0.644407L15.5703 0.563202C15.5377 0.514314 15.4535 0.46959 15.318 0.428802C15.1821 0.3881 15.0084 0.381369 14.7966 0.408494L12.4513 0.424695C12.4134 0.411232 12.3591 0.412487 12.2884 0.428802C12.2178 0.445117 12.1825 0.453303 12.1825 0.453303L12.1417 0.473697L12.1093 0.498198C12.0821 0.514399 12.0523 0.542894 12.0197 0.583624C11.9872 0.624212 11.9601 0.671845 11.9384 0.726124C11.6831 1.38303 11.3928 1.99379 11.067 2.55838C10.8661 2.89503 10.6816 3.18679 10.5131 3.43383C10.3449 3.68078 10.2037 3.86273 10.0898 3.97936C9.9757 4.0961 9.87274 4.18963 9.78026 4.26028C9.68793 4.33096 9.61746 4.36082 9.56865 4.3499C9.51974 4.33897 9.47367 4.32813 9.43006 4.3173C9.3541 4.26841 9.29301 4.20192 9.24694 4.11778C9.20068 4.03364 9.16953 3.92773 9.15325 3.80015C9.13704 3.67248 9.12746 3.56267 9.12472 3.47034C9.12218 3.37812 9.12335 3.24769 9.12886 3.0794C9.13451 2.91103 9.13704 2.79711 9.13704 2.73739C9.13704 2.53105 9.14107 2.30712 9.14914 2.06553C9.15735 1.82394 9.164 1.63252 9.16956 1.49151C9.17509 1.35035 9.17766 1.201 9.17766 1.04356C9.17766 0.886109 9.16808 0.762634 9.14914 0.673015C9.13043 0.58351 9.1017 0.496629 9.06386 0.412401C9.02578 0.328259 8.97004 0.26317 8.89691 0.216963C8.82364 0.170813 8.73253 0.134189 8.62412 0.106979C8.33635 0.0418608 7.96992 0.0066351 7.52465 0.00115871C6.51491 -0.00967998 5.8661 0.0555232 5.57836 0.196683C5.46435 0.256324 5.36119 0.337814 5.26894 0.440896C5.1712 0.560378 5.15756 0.625582 5.22813 0.636306C5.55392 0.685109 5.78455 0.801853 5.92029 0.986424L5.96921 1.08423C6.00726 1.15479 6.04525 1.27972 6.08327 1.45885C6.12124 1.63797 6.14574 1.83612 6.15652 2.05318C6.18362 2.44956 6.18362 2.78887 6.15652 3.07113C6.12934 3.35351 6.10367 3.57333 6.07916 3.73078C6.05466 3.88823 6.01804 4.01581 5.96921 4.1135C5.92029 4.21122 5.88775 4.27095 5.87143 4.29262C5.85515 4.3143 5.84157 4.32796 5.83079 4.33333C5.76022 4.36037 5.68683 4.37414 5.61088 4.37414C5.53481 4.37414 5.44256 4.33609 5.334 4.26005C5.22548 4.18401 5.11284 4.07956 4.99609 3.94653C4.87935 3.81347 4.74769 3.62753 4.60105 3.38868C4.45453 3.14983 4.3025 2.86754 4.14506 2.54181L4.01479 2.30558C3.93336 2.15361 3.82212 1.93233 3.68096 1.64194C3.53972 1.35143 3.41487 1.07042 3.30634 0.798972C3.26296 0.684966 3.19778 0.598171 3.11093 0.538444L3.07017 0.513943C3.04308 0.492265 2.99958 0.469247 2.93991 0.444718C2.88015 0.420217 2.8178 0.402646 2.7526 0.391836L0.521284 0.408037C0.293272 0.408037 0.138564 0.459692 0.0571028 0.562859L0.0245011 0.611662C0.00821459 0.638844 0 0.682256 0 0.742012C0 0.801739 0.0162866 0.875042 0.0488882 0.961837C0.374619 1.72739 0.728845 2.46571 1.11156 3.17689C1.49428 3.88808 1.82686 4.46097 2.1091 4.89503C2.39139 5.3294 2.67912 5.73936 2.97231 6.1247C3.2655 6.51019 3.45957 6.75723 3.55452 6.86576C3.64959 6.97449 3.72426 7.05578 3.77854 7.11006L3.98216 7.30547C4.11246 7.43579 4.30379 7.59186 4.55624 7.7737C4.80876 7.95564 5.08831 8.13477 5.39504 8.31135C5.70184 8.48765 6.05874 8.63152 6.46596 8.74279C6.87313 8.85417 7.26942 8.89887 7.65491 8.8773H8.59143C8.78136 8.8609 8.92526 8.80118 9.02307 8.6981L9.05547 8.65728C9.07726 8.62488 9.09765 8.57453 9.11648 8.50679C9.13553 8.43894 9.145 8.36418 9.145 8.28286C9.13944 8.04946 9.15721 7.8391 9.19783 7.65182C9.23841 7.4646 9.28468 7.32344 9.33642 7.22837C9.38813 7.13339 9.44649 7.05324 9.51144 6.98826C9.57653 6.92315 9.6229 6.8837 9.65011 6.87012C9.67715 6.85646 9.69875 6.84719 9.71503 6.84163C9.84532 6.79822 9.99866 6.84026 10.1753 6.96795C10.3517 7.09554 10.5173 7.25307 10.6721 7.44029C10.8268 7.62769 11.0127 7.83793 11.2299 8.07133C11.4471 8.30482 11.6371 8.47838 11.7999 8.59256L11.9627 8.69028C12.0714 8.75548 12.2126 8.81521 12.3863 8.86949C12.5598 8.92374 12.7118 8.93732 12.8423 8.91019L14.9269 8.87768C15.1331 8.87768 15.2935 8.84353 15.4073 8.77579C15.5214 8.70794 15.5891 8.63318 15.611 8.55186C15.6328 8.47045 15.6339 8.3781 15.6151 8.27484C15.5958 8.17185 15.5768 8.09983 15.5578 8.05913Z" fill="white"/>
</svg>
