<svg width="25" height="24" viewBox="0 0 25 24" fill="none" xmlns="http://www.w3.org/2000/svg">
<path d="M19.6097 4.23478C21.0125 3.47494 22.1513 2.38383 22.9029 1.07944C23.0302 0.858469 23.0325 0.584203 22.9088 0.361031C22.7851 0.137812 22.5545 0 22.3046 0H3.69535C3.44552 0 3.21489 0.137812 3.09121 0.360984C2.96753 0.584203 2.96977 0.858469 3.09709 1.07939C3.84866 2.38378 4.98746 3.47494 6.3903 4.23473C7.59492 4.88723 8.95308 5.27241 10.3524 5.36316V7.2H7.0661C5.83736 7.2 4.79817 8.14566 4.64883 9.39966L3.24453 21.1916C3.15978 21.903 3.37618 22.6187 3.83813 23.1555C4.30008 23.6922 4.9648 24 5.6618 24H20.3386C21.0356 24 21.7003 23.6922 22.1622 23.1555C22.6242 22.6188 22.8406 21.903 22.7558 21.1916L21.3516 9.39975C21.2022 8.1457 20.1631 7.20009 18.9343 7.20009H15.6476V5.36325C17.0469 5.27241 18.4051 4.88723 19.6097 4.23478ZM18.9343 8.62997C19.4614 8.62997 19.9071 9.03558 19.9712 9.57356L21.3755 21.3654C21.4123 21.675 21.322 21.9742 21.1208 22.2079C20.9197 22.4415 20.6419 22.5701 20.3386 22.5701H5.66175C5.35836 22.5701 5.08055 22.4415 4.8795 22.2078C4.67841 21.9743 4.58797 21.6751 4.62485 21.3654L6.0291 9.57356C6.09315 9.03567 6.53896 8.63002 7.06605 8.63002H18.9343V8.62997ZM11.743 7.20005V5.38448H14.2569V7.20005H11.743ZM15.004 3.95456H10.9959C8.6383 3.95456 6.47527 3.01172 5.07234 1.42997H20.9276C19.5247 3.01167 17.3617 3.95456 15.004 3.95456Z" fill="#7BC244"/>
<path d="M13.0002 9.74072C9.85803 9.74072 7.30176 12.3692 7.30176 15.6C7.30176 18.8308 9.85807 21.4592 13.0002 21.4592C16.1422 21.4592 18.6985 18.8308 18.6985 15.6C18.6985 12.3691 16.1423 9.74072 13.0002 9.74072ZM13.0002 20.0293C10.6249 20.0293 8.69247 18.0423 8.69247 15.6C8.69247 13.1577 10.6249 11.1707 13.0002 11.1707C15.3754 11.1707 17.3078 13.1577 17.3078 15.6C17.3078 18.0422 15.3754 20.0293 13.0002 20.0293Z" fill="#7BC244"/>
<path d="M13.492 15.0944C13.2205 14.8152 12.7802 14.8152 12.5087 15.0944L10.8345 16.8159C10.563 17.0951 10.563 17.5478 10.8345 17.827C10.9703 17.9666 11.1483 18.0364 11.3262 18.0364C11.5041 18.0364 11.6821 17.9666 11.8179 17.827L13.4921 16.1055C13.7635 15.8263 13.7635 15.3736 13.492 15.0944Z" fill="#7BC244"/>
</svg>
