<svg width="19" height="12" viewBox="0 0 19 12" fill="none" xmlns="http://www.w3.org/2000/svg">
<path d="M11.6935 3.264V12H9.4695V7.712C9.4695 7.28533 9.47483 6.86933 9.4855 6.464C9.50683 6.05867 9.5335 5.68533 9.5655 5.344H9.5175L7.1015 12H5.3095L2.8615 5.328H2.7975C2.84017 5.68 2.86683 6.05867 2.8775 6.464C2.89883 6.85867 2.9095 7.296 2.9095 7.776V12H0.6855V3.264H4.0615L6.2375 9.184L8.4455 3.264H11.6935ZM16.0415 0.24C16.8095 0.24 17.4068 0.4 17.8335 0.719999C18.2708 1.02933 18.4895 1.472 18.4895 2.048C18.4895 2.47467 18.3615 2.816 18.1055 3.072C17.8602 3.31733 17.5402 3.45067 17.1455 3.472V3.52C17.6042 3.53067 17.9615 3.65333 18.2175 3.888C18.4842 4.112 18.6175 4.44267 18.6175 4.88C18.6175 5.456 18.3508 5.91467 17.8175 6.256C17.2948 6.59733 16.6282 6.768 15.8175 6.768C15.0495 6.768 14.4362 6.61867 13.9775 6.32C13.5295 6.02133 13.2308 5.6 13.0815 5.056L14.9055 4.496C14.9802 5.06133 15.3002 5.344 15.8655 5.344C16.1215 5.344 16.3188 5.28533 16.4575 5.168C16.5962 5.04 16.6655 4.86933 16.6655 4.656C16.6655 4.44267 16.5855 4.29333 16.4255 4.208C16.2762 4.112 16.0575 4.064 15.7695 4.064C15.7268 4.064 15.6842 4.064 15.6415 4.064C15.5988 4.064 15.5508 4.06933 15.4975 4.08V3.04C15.5402 3.05067 15.5828 3.056 15.6255 3.056C15.6682 3.056 15.7055 3.056 15.7375 3.056C16.2815 3.056 16.5535 2.83733 16.5535 2.4C16.5535 1.96267 16.3188 1.744 15.8495 1.744C15.3482 1.744 15.0602 2.01067 14.9855 2.544L13.2415 2.032C13.3482 1.44533 13.6522 1.00267 14.1535 0.704C14.6655 0.394666 15.2948 0.24 16.0415 0.24Z" fill="#7BC244"/>
</svg>
