<svg width="1170" height="648" viewBox="0 0 1170 648" fill="none" xmlns="http://www.w3.org/2000/svg">
<mask id="path-1-inside-1_295:3639" fill="white">
<path d="M719.039 177.069L721.656 178.083L720.559 181.633L717.519 182.225L713.973 180.365L716.252 177.576L719.039 177.069ZM807.103 135.232L808.201 132.189L805.415 128.555L804.401 130.583L806.428 133.372L807.103 135.232ZM810.818 126.695L813.689 132.696L812.592 133.626L822.724 138.19L828.549 137.091L826.523 133.372L830.238 132.527L833.109 127.963L833.784 128.217L835.135 128.724L838.597 126.104L836.402 124.92L831.505 122.638L830.914 122.385L828.465 118.412L829.478 117.99L831.251 117.229L832.771 120.441L839.273 122.216L842.988 119.765L840.539 117.06L839.864 111.904L836.824 112.665L832.096 111.651L828.296 113.848L827.705 113.764L821.879 113.257L820.866 117.99L823.737 120.863L820.697 121.624L818.08 118.919L811.156 118.835L809.636 123.399L812.676 126.188L810.818 126.695ZM837.668 145.881L838.006 139.627L834.207 140.895L837.668 145.881ZM843.832 152.22L844.93 151.46L851.938 149.769L856.413 146.135L853.542 143.684L850.418 142.585L844.423 141.064L841.215 145.881L841.046 146.135L842.228 149.516L841.046 154.164L843.832 152.22ZM853.12 114.102L857.51 114.947L862.576 111.397L863.083 107.171L860.128 103.621L853.88 105.988L852.951 108.946L850.502 106.495L847.209 108.693L847.294 110.637L843.663 109.453L842.734 110.806L849.236 114.778L853.12 114.102ZM984.837 97.1979L989.48 94.4932L988.13 91.1124L984.499 91.9576L981.375 93.479L981.966 97.6205L984.837 97.1979ZM1114.86 223.133L1113.09 224.4L1111.07 229.556L1115.88 235.134L1117.4 237.163L1118.33 233.275L1116.47 229.894L1117.57 225.246L1114.86 223.133ZM1136.48 351.18L1132.76 345.771L1125.93 341.545L1122.46 337.572L1110.73 328.444L1110.56 328.191L1098.74 307.822L1095.02 301.99V293.622L1089.7 287.199L1093.42 282.804L1093 282.043L1091.31 279.085L1094.69 275.45L1093.42 257.87L1090.97 255.081V248.235L1089.2 243.924V243.84L1088.94 229.387L1086.24 225.415L1086.92 218.399L1084.13 205.13L1080.84 201.242L1070.87 189.494L1073.24 186.282L1072.9 184.338L1070.03 185.352L1067.16 189.494L1070.45 199.551L1070.96 201.073L1076.03 205.637L1072.99 206.989L1073.75 223.893L1075.43 229.725L1075.18 229.979L1073.15 232.514L1070.54 228.626L1069.27 232.007L1064.54 227.359L1059.48 219.16L1059.39 225.668L1055.42 224.147L1045.88 235.811L1044.36 241.22L1044.19 241.811L1044.45 242.065L1048.58 246.037L1048.08 251.869L1049.26 254.067L1047.57 266.576L1050.19 276.38L1054.75 281.113L1061.42 277.648L1062.68 280.099L1061.76 281.536L1058.13 287.114L1054.16 288.974L1052.97 292.439L1052.38 294.298L1045.88 303.511L1040.82 303.849L1045.71 296.158L1040.99 296.411L1036.34 294.552L1033.55 298.947L1024.1 301.99L1023.09 313.4L1017.34 314.076L1015.32 318.978L1013.04 319.57L1006.87 321.176L1007.8 325.402L1004 327.092L1001.13 325.402L992.942 330.895L989.143 333.431L979.939 346.109L980.024 354.815L976.9 360.985L977.575 370.535L975.549 375.099L975.971 377.804L976.055 378.649L975.802 379.325L971.158 392.595L969.554 397.244L969.976 398.173L971.412 401.554L965.332 419.303L959.169 437.052L961.111 438.151L961.955 438.574L972.003 434.01L978.504 445.251L981.797 442.8L980.699 439.842L983.148 434.939L983.739 438.151L987.707 439.673L985.681 446.519L990.663 444.321L992.098 438.489L993.702 436.799L995.729 444.406L996.066 435.531L992.52 431.052L999.444 426.487L1019.62 432.15L1023.51 435.616L1022.41 437.475L1027.73 446.603L1032.88 451.083L1033.72 468.24L1037.35 478.383L1037.52 478.552L1041.58 483.454L1041.66 486.919L1047.4 500.104L1047.49 504.837L1048.84 508.218L1046.05 523.432L1045.12 561.719L1039.8 575.919L1036.93 588.681L1036.43 589.526L1033.55 594.006L1033.39 598.739L1033.13 607.36L1022.92 620.461L1015.4 629.927L1004.68 630.772L1003.83 626.631L997.08 627.56L996.826 633.815L994.124 639.647L990.071 641.253L991.507 645.394L988.721 647.423L985.259 641.506L990.24 636.858L991.507 628.49L987.454 624.01L987.37 617.841L984.077 612.6L980.108 606.261L985.428 600.683L986.356 597.049L1000.12 596.203L999.866 588.09L1001.98 584.455L999.613 555.972L1002.57 548.619L999.106 543.97L998.008 538.561L995.982 537.631L983.064 548.45L980.615 555.887L964.995 561.804L953.258 546.759L949.29 546.928L945.997 545.238L945.575 544.984L940.762 542.026L936.456 544.646L931.559 541.688L925.142 545.323L916.276 539.913L913.49 530.701L904.456 522.249L898.376 509.993L887.991 499.006L882.165 496.385L877.268 499.006L867.98 496.47L865.869 495.878L864.856 495.625L839.948 505.683L832.856 517.515L838.259 516.924L840.37 523.432L840.286 523.939L833.7 560.029L823.568 570.002L815.884 571.693L801.7 566.96L800.264 567.889L797.14 569.833L793.763 569.664L788.19 565.1L783.04 566.791L780.844 565.354L768.601 579.553L761.087 580.905L745.213 588.512H745.129L722.163 587.16L714.817 580.483L715.07 576.679L708.569 575.581L703.672 571.101L697.846 571.27L691.007 568.904L684.168 571.355L673.022 575.327L665.845 570.848L660.188 567.382L655.713 557.493L657.824 553.605L623.375 539.66L613.75 550.394L612.568 559.099L615.776 565.269L605.644 575.581L600.747 573.975L590.615 570.594L584.873 571.693L575.248 564.17L575.079 560.452L555.49 550.563L539.364 556.31L524.841 561.466L523.997 564.086L509.136 563.917L506.941 566.96L497.231 566.706L494.614 559.606L495.88 555.972L484.904 558.169L479.331 553.605V547.774V545.999L471.985 538.476L472.407 535.687L465.146 526.39L457.547 528.588L450.033 524.108L447.415 520.051L443.953 517.938L444.798 514.304L442.011 513.036L435.679 517.515L434.328 518.445L433.652 512.867L430.613 488.441L429.431 478.467L428.502 470.86L426.475 466.296L421.578 455.14L426.56 453.449V451.336L421.156 450.238L400.723 453.449L399.879 454.125L398.781 455.055L395.573 451.421L389.071 450.576L391.858 446.519L396.333 445.843L388.734 438.151L386.623 440.771L384.005 436.038L376.237 431.474L376.659 427.84L379.446 427.671L381.641 415.584L379.53 412.795L376.913 413.387L373.535 409.922L373.113 408.062L372.86 406.879L366.021 402.568L359.182 406.034L333.598 397.835L330.559 399.61L313.925 393.356L307.761 390.989L305.228 391.665L304.384 388.707L298.727 384.566L296.025 382.622L292.226 386.51L294.336 390.144L289.608 390.82L294.083 400.962L292.394 401.131L287.244 396.145L281.671 396.99L281.249 398.258L279.054 404.766L266.811 403.836L273.903 421.754L264.7 428.6L257.017 419.388L251.613 421.163L245.365 410.006L246.885 406.625L243.085 401.47L239.623 402.737L235.739 401.301L236.753 397.666L230.504 393.102L222.146 394.454L218.008 392.341L218.43 384.566L216.32 380.509L215.053 384.988L210.578 386.932L212.773 377.719L210.916 371.38L210.831 371.042L213.196 368.929L206.272 360.731L206.779 355.575L203.823 354.223L200.362 355.575L200.108 354.984L195.887 347.461L197.575 346.785L194.62 345.771L187.105 347.461L183.475 346.109L179.422 344.672L177.902 347.461L169.29 343.573L166.419 350.081L160.34 351.856L157.976 347.799L161.86 337.403L159.242 336.558L152.825 340.446L149.195 339.347L145.733 341.545L141.68 349.321L136.53 348.476L132.477 351.011L131.379 354.223L132.392 358.28L127.917 366.647L130.872 368.76L133.49 375.691L131.295 382.115L130.704 391.158L129.184 392.849L128.171 394.032L127.411 393.694L124.371 392.257L124.962 394.877L125.469 397.159L123.696 401.047L112.128 401.639L111.706 401.216L108.666 398.427H108.582L105.627 398.004L103.6 397.751L98.281 399.779L92.5395 401.977L88.9089 401.301L85.9537 404.935L84.0117 415.922L87.0513 416.514L78.6079 423.191L73.7108 434.348L73.4575 440.349L71.8532 448.885L71.5155 450.745L70.4178 450.829L65.1829 451.083L62.5655 449.73L59.5259 451.843L54.2065 445.42L56.4018 440.856L56.1485 434.348L50.9981 418.881L53.7844 418.204L52.4334 408.738L49.3938 405.78L49.816 403.16L43.7367 400.54L42.4702 397.497L44.1589 394.962L41.5415 389.975L42.1325 383.298L39.7683 380.509L40.4438 378.818L36.4754 372.141L31.5783 363.858L32.0004 357.35L28.2009 352.025L25.499 350.927L28.5386 331.741L26.3434 325.824L26.5122 325.233L27.7787 319.401L25.7523 314.076L28.4542 308.329L27.2721 304.863V300.13L29.383 301.99L30.3962 299.031L32.1693 300.13L32.2537 303.257L35.2089 306.047L37.9108 304.356L40.866 305.201L44.9188 303.595L46.1853 305.708L48.465 304.779V305.117L48.8872 308.582L50.6603 308.498L50.4915 303.342V303.004L51.5047 301.821L50.2382 299.2L52.7712 295.989L55.1353 299.285L56.233 300.806L58.0905 302.919L58.9348 299.792L64.0009 302.919L67.8004 303.257L68.8136 300.722L64.9296 298.693L61.5523 293.96L64.7608 294.214L65.3518 292.439L67.8848 290.833L71.5999 292.946L73.373 292.523L80.2966 299.877L84.4339 299.2L85.1938 297.679L86.1225 295.904L87.8112 295.989L89.331 293.622L89.1622 291.932L92.1173 290.918L93.215 292.608L94.3971 292.439L94.5659 289.565L95.5791 287.706L97.6055 289.396L101.574 288.635L102.249 286.015L104.445 285.424L102.165 283.057L102.84 278.916L101.743 277.648L102.503 274.436L101.743 273.675L100.307 272.154L101.405 269.788L100.139 267.252L100.983 264.209H97.8588L97.2678 260.575L98.4499 258.8L98.5343 257.448L100.983 253.306L94.2282 247.221L93.806 240.713L91.7796 238.853L92.9617 234.796L98.7032 229.472L97.9433 227.359L99.4631 225.246L97.8588 222.71L98.0277 220.597L96.2546 218.061L96.0857 217.808L96.339 217.554L101.743 212.568L103.178 213.582L104.191 213.159L108.075 205.806L107.653 198.622L103.431 193.889L103.263 192.029L103.178 191.269L102.334 190.677L100.392 192.283L98.281 191.184L98.9565 185.859L106.556 178.252L107.147 177.407L109.004 174.787L111.368 174.195L112.381 179.098L118.039 184.084L120.572 183.746L121.585 181.464L122.936 178.506L121.838 173.266L126.06 170.561L126.397 167.434L126.651 165.49L128.086 164.053L129.268 162.954L129.522 160.841L131.379 160.165L131.717 156.615L133.49 154.756L135.854 155.686L140.582 151.629L142.609 151.291L144.551 149.854L144.466 147.825L145.986 144.275L144.889 139.711L142.271 137.936L142.44 135.147L144.889 133.457L144.973 129.992L142.947 127.54L144.213 125.935L143.538 124.244L144.973 121.878L153.163 115.032L153.247 113.172L159.242 111.735L161.1 109.791V108.27L163.042 106.495L163.126 105.058L169.965 106.749L174.356 101.424L182.377 99.0573L185.755 98.0431L191.158 97.7895L198.335 95.1694L197.744 97.705L200.277 98.2121L200.868 100.41L204.752 102.015L205.681 108.777L208.974 103.79L207.623 98.1276L209.312 95.8455L209.227 93.479L213.449 92.5493L212.182 90.5208L208.721 87.9852L209.312 86.6329L216.488 89.7601L223.496 91.0279L227.971 93.9016L234.304 94.5777L238.779 95.8455L243.001 95.4229L245.618 96.0146L250.431 97.0288L255.412 95.1694L260.563 89.422L262.336 82.4914L264.7 79.9558L269.597 81.3926L277.196 73.9549L279.223 73.5323L279.645 71.1657L282.094 69.4753L283.529 68.4611L285.386 69.5598L287.328 66.6017L292.732 64.9113L294.843 67.5314L306.833 56.7128L312.405 51.6416L325.155 53.6701L330.474 45.8097L331.825 41.0766L340.606 38.0339L342.21 35.9209H344.152L345.081 38.1184L353.102 41.2457L355.382 40.654L356.48 41.4992L356.058 43.8658L357.071 44.2884L358.759 43.1051L359.857 45.8943L358.928 46.4014L359.013 47.7537L364.163 48.3453L362.897 50.6274L364.417 53.163L361.63 54.8534L360.786 51.05L359.182 51.3881L358.591 60.6007L358.759 61.3614L361.63 74.1239L359.942 79.8713L360.026 84.0128L356.733 89.9291L355.044 100.325L356.058 103.114L354.031 107.509L353.44 111.228L348.543 116.468L347.699 118.75L338.327 120.272L336.047 119.765L330.727 119.596L321.524 109.031L321.862 102.438L319.244 91.9576L321.018 88.7459L318.907 86.4638L320.004 84.7734L320.089 80.8855L321.271 79.9558L319.16 77.7583L321.609 74.3775L321.777 70.3205L318.316 74.7156L312.996 82.6604L309.281 93.1409L303.54 95.2539L299.825 95.0849L299.487 97.6205L297.798 99.2263L293.408 103.452L288.679 106.326L288.933 114.693L286.822 116.13L286.231 120.272L287.244 122.638L286.991 126.273L291.888 128.301L293.661 126.188L295.941 125.512L296.194 122.385L294.674 119.765L299.487 111.313L301.767 112.834L304.469 112.242L304.806 112.158V112.919L305.313 121.878L303.624 123.484L305.904 130.076L304.469 132.189L310.885 134.133L313.925 130.33L318.4 124.667L328.617 125.512L331.487 128.977L340.606 129.315L342.042 130.499L340.944 132.105L343.308 134.387L344.068 138.782L342.801 143.008L356.226 134.978L356.48 131.175L363.234 127.118L373.535 120.948L374.38 115.032L376.237 113.764L376.744 118.159L379.615 122.216L381.557 128.893L379.108 130.668L378.939 135.654L376.491 137.26L374.717 139.289L369.314 133.457L368.385 134.471L363.234 134.556L361.208 138.444L361.968 140.218L359.519 143.937L365.261 151.629L372.1 149.262L374.042 147.487L377.757 147.741L380.375 150.953L381.641 147.994L384.765 150.276L400.132 151.46L403.932 157.63L408.322 155.517L417.272 157.461L419.214 159.066L419.974 159.743H419.467L415.752 159.996L410.94 164.56L407.9 163.461L408.575 167.265L411.108 168.026L411.784 171.237L415.415 168.11L422.845 169.885L426.56 176.224L426.644 176.393L426.729 176.309L426.813 176.224L429.346 174.111L436.861 177.069L438.972 179.182L439.816 180.027L435.679 184.253L435.172 187.381L438.718 184.76L445.304 184.422L446.908 181.042L449.61 175.379L454.17 174.787L456.703 173.012L466.582 185.099L466.835 185.859L476.967 217.892L483.553 214.934L482.708 210.116L484.819 202.341L482.708 199.213V197.946L480.598 198.199L483.131 191.438L486.846 191.607L486.93 190.846L487.099 188.817L493.516 182.394L490.899 179.267L495.036 175.21L502.719 173.181L516.651 162.616L521.801 158.728L523.743 160.334L526.952 160.926L529.231 163.546L534.382 169.462L523.997 182.563L523.743 182.901L520.281 184.591L520.873 192.452L519.268 194.987L517.073 198.368L503.31 219.329L502.297 222.625L502.128 223.217L503.817 227.105L503.901 232.261L499.933 234.374L494.529 241.642L490.899 242.234L488.112 244.77L486.001 245.446L485.832 246.629L482.962 249.165L479.753 252.038L473.336 252.123L471.225 249.841L471.141 247.474L468.186 248.827L469.706 251.954L476.545 258.039L478.571 259.814L483.046 256.687L491.658 255.419L498.835 247.812L505.421 244.432L509.221 235.641L509.558 231.077L522.815 230.739L522.477 236.233L524.503 240.966L520.366 246.291L518.677 252.292L521.886 257.701L527.289 260.49V257.87L520.788 251.954L523.406 247.728L526.445 246.037V245.953L527.205 240.375L529.907 236.233L525.854 232.514L524.081 228.457L522.899 225.922L515.3 226.344L513.696 225.076L511.331 224.823L510.994 222.963L513.611 219.16L514.287 214.089L517.748 211.215L518.762 208.257L521.041 206.651L524.419 204.285L524.756 199.805L525.094 198.03L526.276 191.522V188.141L529.654 185.437L539.195 182.732L543.247 173.942L543.416 166.42L545.189 167.941L545.865 173.688L545.189 181.211L537.675 189.24L537.506 191.86L535.733 193.635L537.084 195.495L539.195 198.537L544.936 204.369L545.781 207.327L547.469 201.495L543.332 196.593V194.311V187.465H545.696L551.691 192.621L553.802 191.269L551.269 188.479L553.802 186.958L561.063 188.057L562.921 190.508L567.311 196.34V198.537L573.728 197.438L570.266 192.874V189.071L570.182 177.238L573.812 172.759L607.586 175.379L603.111 168.702L606.066 167.011L601.507 163.8L604.969 161.433L605.729 161.264L614.679 159.235L622.362 154.502L637.054 152.305L642.035 148.67L653.265 147.149L651.998 150.361L656.727 151.206L657.993 150.614L660.864 149.262L661.455 148.079L662.89 145.205L665.17 145.29L668.294 145.459L672.178 142.67L671.08 140.979L669.814 138.951L682.479 126.526L686.616 129.738L686.785 129.823L689.149 129.569L688.98 132.781L684.421 135.823L687.883 138.021L693.962 137.852L691.344 144.36L698.268 144.783V142.839L709.244 141.486L710.68 142.078L714.648 143.684L717.266 148.248L719.039 148.924L722.247 155.601L719.208 156.193L721.741 160.672L717.688 173.604L708.231 178.506L706.965 180.365L698.437 193.382L696.242 193.128L692.78 198.875L698.521 199.298L705.614 195.072L706.12 194.734L712.369 190.677L707.894 190.085L708.738 185.606L720.305 188.226L722.501 186.704L729.509 188.817L733.055 186.873L737.53 186.958L739.725 186.789L750.533 186.113L753.403 190.677L763.451 193.297L768.601 190.085L771.05 191.945L770.121 181.042L774.681 177.069L780.507 178.675L793.932 177.323L800.602 182.394L802.544 188.226L805.752 190.001L807.948 193.973L804.486 196.424L805.246 200.481L807.779 200.228L815.293 208.257L824.919 210.455L823.399 191.184L829.225 195.325L835.389 194.903L839.526 189.071L841.299 186.535L847.885 188.902L850.418 188.564L847.041 184.591L852.529 181.126L855.484 181.802L856.413 181.126L859.199 179.267L854.64 176.816L853.626 176.309L853.204 173.435L852.698 170.054L851.938 170.392L849.827 171.237L848.476 164.56L849.574 164.729L852.36 165.152L852.613 161.179L850.587 158.559L895.252 143.768L896.35 146.05L894.83 146.98L894.577 150.614L904.287 146.557L904.962 146.304L914.588 149.769L920.076 148.586L924.804 136.838L937.976 126.949L949.121 125.005L960.773 132.781L973.185 116.046L976.14 115.116L984.583 105.058L984.33 99.5644L992.858 100.579L996.742 98.7192L1003.33 99.1418L1004.51 93.1409L998.599 88.4078L993.533 88.6613L986.61 82.1533L993.196 76.575L996.826 73.5323L1003.16 59.1639L1008.31 56.3747L1011.01 52.4868L1057.45 26.0321L1070.62 29.4129L1072.82 30.0045L1077.21 28.1451L1078.22 24.1726L1072.06 23.6655L1068.76 23.3274L1066.15 19.355L1072.48 15.8897L1070.79 12.1708L1071.47 9.5507L1076.11 7.26867L1085.06 2.95815L1087.59 0.0844727L1090.46 4.90211L1094.35 7.09963L1093.08 10.5649L1096.04 10.8185L1095.19 14.96L1091.22 19.186L1091.56 21.8906L1095.28 20.2847L1097.81 22.8203L1102.2 20.1157L1103.97 24.3417L1108.62 27.3844L1110.47 25.7785L1113.18 31.6104L1107.77 37.0197L1103.8 37.4423L1098.48 43.2742L1089.03 44.0348L1083.62 47.8382L1085.06 51.6416L1083.54 57.7271L1077.29 57.8961L1071.38 51.8952L1070.87 59.8401L1078.39 63.897L1081.51 63.6435L1090.04 77.5892L1089.03 82.5759L1086.92 85.196L1083.37 89.5911L1081.43 93.479L1083.88 95.1694L1085.99 90.5208L1093.76 89.5911L1094.01 86.8864V86.6329L1099.84 87.0555L1102.79 88.9994L1105.24 90.6053L1106.93 90.0137L1108.19 89.5065L1118.83 89.253L1125.08 94.3242L1126.01 95.0849L1119.42 104.636L1115.46 106.58L1117.82 110.637L1119.68 134.809L1118.24 138.359L1119.85 140.979L1120.35 141.824L1125.25 165.321L1125.08 169.885L1129.89 176.9L1119.68 176.985L1114.27 185.183L1111.57 192.959L1115.71 204.116L1113.94 206.06L1108.45 201.834L1106.59 198.96L1105.15 205.299V205.383L1106.67 211.384L1106.42 214.258L1103.38 214.85L1103.3 217.132L1101.02 218.991V223.555L1106 228.373L1110.14 240.797L1116.89 253.137L1121.87 253.391L1120.61 249.841L1126.77 247.643L1128.37 253.56L1136.14 260.828L1138.68 259.223L1143.99 260.49L1146.27 263.449L1146.61 267.759L1144.59 268.52L1142.14 267.421L1140.45 264.04L1138.42 266.407L1140.19 268.689L1140.36 271.309L1144.59 277.31L1150.41 285.593L1156.91 289.65L1157.59 293.707L1157.42 293.876L1153.03 298.778L1151.51 309.934L1157.5 319.823L1161.56 320.753L1162.65 323.12L1160.46 323.965L1158.35 328.529L1157.93 333.431L1155.9 335.206L1157.76 336.558L1164.17 346.785L1166.96 359.801L1167.72 363.351L1166.12 368.422L1166.2 373.493L1157.93 368.169L1154.46 363.182L1153.03 361.069L1136.48 351.18ZM644.99 92.3802L649.381 91.2815L652.252 88.9149L649.128 86.7174L646.003 85.7031L644.399 87.5626L646.426 90.1827L644.99 92.3802ZM653.434 86.4638L662.637 84.9425V79.8713L665.17 76.2369L662.13 73.0252L659.935 68.292L657.655 71.9264L651.998 75.4762L653.349 76.9131L651.07 80.8855L648.621 81.1391L650.816 85.4496L653.434 86.4638ZM663.819 91.2815L663.988 87.4781L655.545 88.1542L653.603 90.1827L653.771 91.1969L650.732 93.8171L652.589 97.7895L652.674 100.156L652.843 103.114L657.149 105.058L660.104 108.608L665.845 108.354L669.138 105.227L667.956 102.692L667.365 101.508L669.054 98.8883L668.801 95.5075L670.152 92.1267L666.436 89.422L666.521 91.1969H663.819V91.2815ZM989.903 38.541L991.845 38.4565L994.715 38.372L994.462 36.259L993.955 31.1033L995.644 24.7643L993.955 18.6789L989.143 20.5383L985.259 26.1166L987.285 34.0615L989.903 38.541ZM650.31 137.345L653.18 133.119L648.368 134.302L650.31 137.345ZM668.801 115.961L665.423 121.793L668.041 121.962L674.373 118.159L678.342 118.243L686.025 115.201L686.11 109.453L682.563 108.27L681.972 104.974L681.719 103.79L680.537 104.805L678.173 104.382L678.679 101.424L677.666 100.156L676.4 102.269H674.289L673.951 103.706L673.36 106.072L671.503 106.495V108.608L670.152 109.115L668.801 115.961ZM98.7032 80.2939L98.8721 83.2521L102.081 88.9149L102.925 88.1542L104.445 86.8864L107.484 87.8161L109.933 86.4638L111.875 83.3366L111.959 77.5892L112.804 75.8143L112.888 72.0954L118.461 66.4326L114.746 65.841L110.439 66.5171L103.431 60.7698L101.152 61.615L99.5475 60.1781L99.1254 60.3472L96.5923 61.3614L97.9433 78.1809L98.7032 80.2939ZM404.776 140.472L405.029 136.415L402.918 130.837L395.15 132.527L392.786 135.908L391.773 138.275L399.963 142.331L404.776 140.472ZM549.073 183.831L552.62 185.69L555.744 184.169L553.717 181.633L549.073 183.831ZM560.219 181.126L563.765 182.817L564.018 179.774L564.271 178.083L560.05 178.929L560.219 181.126ZM438.212 137.767L441.167 140.134L440.323 144.698L443.953 144.106L444.798 146.642L445.642 147.149L446.74 147.825L448.935 151.967L451.046 150.868L451.299 145.881L453.832 135.908L462.613 125.766L485.832 116.299L489.716 113.341L495.458 112.496L498.244 109.453L500.186 110.89L512.429 108.693L522.055 107.002L528.978 109.115L543.67 110.552L549.242 111.059L554.984 104.805L554.562 100.494L546.54 99.987H546.034L542.656 101.931L530.414 98.0431L528.978 95.4229L511.247 95.6765H508.461L502.719 93.9861L499.933 94.6623L497.822 93.8171L496.049 96.8598L485.917 102.607L474.518 105.143L475.109 107.678L471.563 108.101L469.959 108.27L465.822 107.171L462.36 110.214L459.151 109.622L457.716 112.665L448.259 116.13L447.331 113.764L441.251 118.666L440.829 122.047L443.869 123.314L444.544 128.048L442.433 129.992L443.531 133.879L441.167 132.781L438.212 137.767ZM527.458 154.671L525.348 157.883L524.756 159.405L529.907 160.165L530.329 160.25L533.284 159.405L532.44 156.193L531.173 155.77L527.458 154.671ZM451.468 173.097L454.085 170.561L454.339 165.405L453.663 159.405L448.935 161.348L447.922 166.927L448.597 169.04V171.406L451.468 173.097ZM28.1165 293.96L25.5835 291.932L25.2457 290.326L21.5306 288.551L20.9396 282.804L23.3037 279.676L22.8816 276.127L25.1613 274.774L23.2193 272.83L24.9924 271.393L24.908 268.858L22.7127 267.252L24.4014 264.885L22.5438 261.251L20.6863 263.026L18.6599 263.533L8.44339 257.025L7.17688 258.039L8.35895 261.082L6.58584 266.407L7.93678 267.59L7.68348 271.562L3.54622 273.929L0 273.844V278.07L2.95519 283.649L8.10565 283.902L16.1269 290.41L20.2641 291.509V293.284L23.7259 298.693L28.1165 297.341V293.96ZM975.802 427.84L978.589 427.586L979.433 429.953L981.206 425.473L981.797 423.107L975.802 422.853V427.84ZM1154.55 383.636L1156.58 384.481L1157.59 382.284L1154.97 381.692L1154.55 383.636ZM1163.75 394.962L1164.77 390.313V377.466L1162.06 377.381L1160.21 381.016L1161.73 386.256L1161.05 392.933L1163.75 394.962ZM1165.78 418.204L1164.93 421.332L1166.96 421.416L1165.78 418.204ZM1166.37 413.049L1167.47 408.147L1165.78 404.681L1163.92 403.16L1163.25 406.287L1166.2 410.767L1166.37 413.049ZM1136.73 538.814L1135.3 544.308L1135.13 544.9L1137.49 546.59L1138.17 547.013V541.604L1138.34 536.11L1141.04 531.377L1136.82 533.152L1136.73 538.814ZM1145.85 539.744L1149.06 540.251V535.856L1147.29 537.547L1145.85 539.744ZM1150.41 504.499L1147.12 507.035L1145.18 508.134L1147.03 512.275L1145.09 515.741V520.558L1143.32 524.7L1145.18 527.827L1145.85 522.418L1148.05 518.868L1149.9 510.416L1152.78 504.668L1154.3 500.78L1151.42 500.95L1150.41 504.499ZM1167.04 463L1170 461.141V461.056L1168.23 454.548L1168.14 450.407L1167.04 450.238L1166.45 453.618L1167.97 458.605L1167.47 461.056L1167.04 463ZM1158.6 484.13L1158.94 488.018L1158.77 488.779L1158.09 492.328L1158.94 494.949L1159.78 492.328L1160.97 488.694L1162.23 483.116L1160.46 479.82L1158.6 484.13ZM1089.03 516.501L1084.13 510.754L1081.34 510.162L1075.52 503.908L1071.21 488.61L1070.11 484.637L1071.55 482.609L1072.06 481.848L1073.32 479.989L1074.25 478.636L1082.86 479.059L1083.79 479.566L1088.52 482.271L1086.75 478.721L1086.33 477.791L1083.29 477.538L1074.93 470.438L1064.8 461.817L1043.69 438.067L1043.26 433.08L1039.55 429.615L1036.34 422.346L1030.77 418.543L1024.1 410.175L1022.16 413.387L1022.75 415.753L1028.32 420.656L1028.49 425.22L1025.62 429.53L1030.35 436.038L1030.52 437.391L1031.19 443.983L1046.47 461.141L1052.05 479.651L1052.38 480.158L1060.07 490.892L1061.84 498.245L1066.57 502.978L1066.99 504.077L1073.66 521.403L1081.18 532.391L1086.07 535.011L1083.96 528.926L1084.81 522.418L1088.69 523.094L1091.73 520.727L1097.89 526.052L1098.74 519.797L1092.74 515.233L1089.03 516.501Z"/>
</mask>
<path d="M719.039 177.069L721.656 178.083L720.559 181.633L717.519 182.225L713.973 180.365L716.252 177.576L719.039 177.069ZM807.103 135.232L808.201 132.189L805.415 128.555L804.401 130.583L806.428 133.372L807.103 135.232ZM810.818 126.695L813.689 132.696L812.592 133.626L822.724 138.19L828.549 137.091L826.523 133.372L830.238 132.527L833.109 127.963L833.784 128.217L835.135 128.724L838.597 126.104L836.402 124.92L831.505 122.638L830.914 122.385L828.465 118.412L829.478 117.99L831.251 117.229L832.771 120.441L839.273 122.216L842.988 119.765L840.539 117.06L839.864 111.904L836.824 112.665L832.096 111.651L828.296 113.848L827.705 113.764L821.879 113.257L820.866 117.99L823.737 120.863L820.697 121.624L818.08 118.919L811.156 118.835L809.636 123.399L812.676 126.188L810.818 126.695ZM837.668 145.881L838.006 139.627L834.207 140.895L837.668 145.881ZM843.832 152.22L844.93 151.46L851.938 149.769L856.413 146.135L853.542 143.684L850.418 142.585L844.423 141.064L841.215 145.881L841.046 146.135L842.228 149.516L841.046 154.164L843.832 152.22ZM853.12 114.102L857.51 114.947L862.576 111.397L863.083 107.171L860.128 103.621L853.88 105.988L852.951 108.946L850.502 106.495L847.209 108.693L847.294 110.637L843.663 109.453L842.734 110.806L849.236 114.778L853.12 114.102ZM984.837 97.1979L989.48 94.4932L988.13 91.1124L984.499 91.9576L981.375 93.479L981.966 97.6205L984.837 97.1979ZM1114.86 223.133L1113.09 224.4L1111.07 229.556L1115.88 235.134L1117.4 237.163L1118.33 233.275L1116.47 229.894L1117.57 225.246L1114.86 223.133ZM1136.48 351.18L1132.76 345.771L1125.93 341.545L1122.46 337.572L1110.73 328.444L1110.56 328.191L1098.74 307.822L1095.02 301.99V293.622L1089.7 287.199L1093.42 282.804L1093 282.043L1091.31 279.085L1094.69 275.45L1093.42 257.87L1090.97 255.081V248.235L1089.2 243.924V243.84L1088.94 229.387L1086.24 225.415L1086.92 218.399L1084.13 205.13L1080.84 201.242L1070.87 189.494L1073.24 186.282L1072.9 184.338L1070.03 185.352L1067.16 189.494L1070.45 199.551L1070.96 201.073L1076.03 205.637L1072.99 206.989L1073.75 223.893L1075.43 229.725L1075.18 229.979L1073.15 232.514L1070.54 228.626L1069.27 232.007L1064.54 227.359L1059.48 219.16L1059.39 225.668L1055.42 224.147L1045.88 235.811L1044.36 241.22L1044.19 241.811L1044.45 242.065L1048.58 246.037L1048.08 251.869L1049.26 254.067L1047.57 266.576L1050.19 276.38L1054.75 281.113L1061.42 277.648L1062.68 280.099L1061.76 281.536L1058.13 287.114L1054.16 288.974L1052.97 292.439L1052.38 294.298L1045.88 303.511L1040.82 303.849L1045.71 296.158L1040.99 296.411L1036.34 294.552L1033.55 298.947L1024.1 301.99L1023.09 313.4L1017.34 314.076L1015.32 318.978L1013.04 319.57L1006.87 321.176L1007.8 325.402L1004 327.092L1001.13 325.402L992.942 330.895L989.143 333.431L979.939 346.109L980.024 354.815L976.9 360.985L977.575 370.535L975.549 375.099L975.971 377.804L976.055 378.649L975.802 379.325L971.158 392.595L969.554 397.244L969.976 398.173L971.412 401.554L965.332 419.303L959.169 437.052L961.111 438.151L961.955 438.574L972.003 434.01L978.504 445.251L981.797 442.8L980.699 439.842L983.148 434.939L983.739 438.151L987.707 439.673L985.681 446.519L990.663 444.321L992.098 438.489L993.702 436.799L995.729 444.406L996.066 435.531L992.52 431.052L999.444 426.487L1019.62 432.15L1023.51 435.616L1022.41 437.475L1027.73 446.603L1032.88 451.083L1033.72 468.24L1037.35 478.383L1037.52 478.552L1041.58 483.454L1041.66 486.919L1047.4 500.104L1047.49 504.837L1048.84 508.218L1046.05 523.432L1045.12 561.719L1039.8 575.919L1036.93 588.681L1036.43 589.526L1033.55 594.006L1033.39 598.739L1033.13 607.36L1022.92 620.461L1015.4 629.927L1004.68 630.772L1003.83 626.631L997.08 627.56L996.826 633.815L994.124 639.647L990.071 641.253L991.507 645.394L988.721 647.423L985.259 641.506L990.24 636.858L991.507 628.49L987.454 624.01L987.37 617.841L984.077 612.6L980.108 606.261L985.428 600.683L986.356 597.049L1000.12 596.203L999.866 588.09L1001.98 584.455L999.613 555.972L1002.57 548.619L999.106 543.97L998.008 538.561L995.982 537.631L983.064 548.45L980.615 555.887L964.995 561.804L953.258 546.759L949.29 546.928L945.997 545.238L945.575 544.984L940.762 542.026L936.456 544.646L931.559 541.688L925.142 545.323L916.276 539.913L913.49 530.701L904.456 522.249L898.376 509.993L887.991 499.006L882.165 496.385L877.268 499.006L867.98 496.47L865.869 495.878L864.856 495.625L839.948 505.683L832.856 517.515L838.259 516.924L840.37 523.432L840.286 523.939L833.7 560.029L823.568 570.002L815.884 571.693L801.7 566.96L800.264 567.889L797.14 569.833L793.763 569.664L788.19 565.1L783.04 566.791L780.844 565.354L768.601 579.553L761.087 580.905L745.213 588.512H745.129L722.163 587.16L714.817 580.483L715.07 576.679L708.569 575.581L703.672 571.101L697.846 571.27L691.007 568.904L684.168 571.355L673.022 575.327L665.845 570.848L660.188 567.382L655.713 557.493L657.824 553.605L623.375 539.66L613.75 550.394L612.568 559.099L615.776 565.269L605.644 575.581L600.747 573.975L590.615 570.594L584.873 571.693L575.248 564.17L575.079 560.452L555.49 550.563L539.364 556.31L524.841 561.466L523.997 564.086L509.136 563.917L506.941 566.96L497.231 566.706L494.614 559.606L495.88 555.972L484.904 558.169L479.331 553.605V547.774V545.999L471.985 538.476L472.407 535.687L465.146 526.39L457.547 528.588L450.033 524.108L447.415 520.051L443.953 517.938L444.798 514.304L442.011 513.036L435.679 517.515L434.328 518.445L433.652 512.867L430.613 488.441L429.431 478.467L428.502 470.86L426.475 466.296L421.578 455.14L426.56 453.449V451.336L421.156 450.238L400.723 453.449L399.879 454.125L398.781 455.055L395.573 451.421L389.071 450.576L391.858 446.519L396.333 445.843L388.734 438.151L386.623 440.771L384.005 436.038L376.237 431.474L376.659 427.84L379.446 427.671L381.641 415.584L379.53 412.795L376.913 413.387L373.535 409.922L373.113 408.062L372.86 406.879L366.021 402.568L359.182 406.034L333.598 397.835L330.559 399.61L313.925 393.356L307.761 390.989L305.228 391.665L304.384 388.707L298.727 384.566L296.025 382.622L292.226 386.51L294.336 390.144L289.608 390.82L294.083 400.962L292.394 401.131L287.244 396.145L281.671 396.99L281.249 398.258L279.054 404.766L266.811 403.836L273.903 421.754L264.7 428.6L257.017 419.388L251.613 421.163L245.365 410.006L246.885 406.625L243.085 401.47L239.623 402.737L235.739 401.301L236.753 397.666L230.504 393.102L222.146 394.454L218.008 392.341L218.43 384.566L216.32 380.509L215.053 384.988L210.578 386.932L212.773 377.719L210.916 371.38L210.831 371.042L213.196 368.929L206.272 360.731L206.779 355.575L203.823 354.223L200.362 355.575L200.108 354.984L195.887 347.461L197.575 346.785L194.62 345.771L187.105 347.461L183.475 346.109L179.422 344.672L177.902 347.461L169.29 343.573L166.419 350.081L160.34 351.856L157.976 347.799L161.86 337.403L159.242 336.558L152.825 340.446L149.195 339.347L145.733 341.545L141.68 349.321L136.53 348.476L132.477 351.011L131.379 354.223L132.392 358.28L127.917 366.647L130.872 368.76L133.49 375.691L131.295 382.115L130.704 391.158L129.184 392.849L128.171 394.032L127.411 393.694L124.371 392.257L124.962 394.877L125.469 397.159L123.696 401.047L112.128 401.639L111.706 401.216L108.666 398.427H108.582L105.627 398.004L103.6 397.751L98.281 399.779L92.5395 401.977L88.9089 401.301L85.9537 404.935L84.0117 415.922L87.0513 416.514L78.6079 423.191L73.7108 434.348L73.4575 440.349L71.8532 448.885L71.5155 450.745L70.4178 450.829L65.1829 451.083L62.5655 449.73L59.5259 451.843L54.2065 445.42L56.4018 440.856L56.1485 434.348L50.9981 418.881L53.7844 418.204L52.4334 408.738L49.3938 405.78L49.816 403.16L43.7367 400.54L42.4702 397.497L44.1589 394.962L41.5415 389.975L42.1325 383.298L39.7683 380.509L40.4438 378.818L36.4754 372.141L31.5783 363.858L32.0004 357.35L28.2009 352.025L25.499 350.927L28.5386 331.741L26.3434 325.824L26.5122 325.233L27.7787 319.401L25.7523 314.076L28.4542 308.329L27.2721 304.863V300.13L29.383 301.99L30.3962 299.031L32.1693 300.13L32.2537 303.257L35.2089 306.047L37.9108 304.356L40.866 305.201L44.9188 303.595L46.1853 305.708L48.465 304.779V305.117L48.8872 308.582L50.6603 308.498L50.4915 303.342V303.004L51.5047 301.821L50.2382 299.2L52.7712 295.989L55.1353 299.285L56.233 300.806L58.0905 302.919L58.9348 299.792L64.0009 302.919L67.8004 303.257L68.8136 300.722L64.9296 298.693L61.5523 293.96L64.7608 294.214L65.3518 292.439L67.8848 290.833L71.5999 292.946L73.373 292.523L80.2966 299.877L84.4339 299.2L85.1938 297.679L86.1225 295.904L87.8112 295.989L89.331 293.622L89.1622 291.932L92.1173 290.918L93.215 292.608L94.3971 292.439L94.5659 289.565L95.5791 287.706L97.6055 289.396L101.574 288.635L102.249 286.015L104.445 285.424L102.165 283.057L102.84 278.916L101.743 277.648L102.503 274.436L101.743 273.675L100.307 272.154L101.405 269.788L100.139 267.252L100.983 264.209H97.8588L97.2678 260.575L98.4499 258.8L98.5343 257.448L100.983 253.306L94.2282 247.221L93.806 240.713L91.7796 238.853L92.9617 234.796L98.7032 229.472L97.9433 227.359L99.4631 225.246L97.8588 222.71L98.0277 220.597L96.2546 218.061L96.0857 217.808L96.339 217.554L101.743 212.568L103.178 213.582L104.191 213.159L108.075 205.806L107.653 198.622L103.431 193.889L103.263 192.029L103.178 191.269L102.334 190.677L100.392 192.283L98.281 191.184L98.9565 185.859L106.556 178.252L107.147 177.407L109.004 174.787L111.368 174.195L112.381 179.098L118.039 184.084L120.572 183.746L121.585 181.464L122.936 178.506L121.838 173.266L126.06 170.561L126.397 167.434L126.651 165.49L128.086 164.053L129.268 162.954L129.522 160.841L131.379 160.165L131.717 156.615L133.49 154.756L135.854 155.686L140.582 151.629L142.609 151.291L144.551 149.854L144.466 147.825L145.986 144.275L144.889 139.711L142.271 137.936L142.44 135.147L144.889 133.457L144.973 129.992L142.947 127.54L144.213 125.935L143.538 124.244L144.973 121.878L153.163 115.032L153.247 113.172L159.242 111.735L161.1 109.791V108.27L163.042 106.495L163.126 105.058L169.965 106.749L174.356 101.424L182.377 99.0573L185.755 98.0431L191.158 97.7895L198.335 95.1694L197.744 97.705L200.277 98.2121L200.868 100.41L204.752 102.015L205.681 108.777L208.974 103.79L207.623 98.1276L209.312 95.8455L209.227 93.479L213.449 92.5493L212.182 90.5208L208.721 87.9852L209.312 86.6329L216.488 89.7601L223.496 91.0279L227.971 93.9016L234.304 94.5777L238.779 95.8455L243.001 95.4229L245.618 96.0146L250.431 97.0288L255.412 95.1694L260.563 89.422L262.336 82.4914L264.7 79.9558L269.597 81.3926L277.196 73.9549L279.223 73.5323L279.645 71.1657L282.094 69.4753L283.529 68.4611L285.386 69.5598L287.328 66.6017L292.732 64.9113L294.843 67.5314L306.833 56.7128L312.405 51.6416L325.155 53.6701L330.474 45.8097L331.825 41.0766L340.606 38.0339L342.21 35.9209H344.152L345.081 38.1184L353.102 41.2457L355.382 40.654L356.48 41.4992L356.058 43.8658L357.071 44.2884L358.759 43.1051L359.857 45.8943L358.928 46.4014L359.013 47.7537L364.163 48.3453L362.897 50.6274L364.417 53.163L361.63 54.8534L360.786 51.05L359.182 51.3881L358.591 60.6007L358.759 61.3614L361.63 74.1239L359.942 79.8713L360.026 84.0128L356.733 89.9291L355.044 100.325L356.058 103.114L354.031 107.509L353.44 111.228L348.543 116.468L347.699 118.75L338.327 120.272L336.047 119.765L330.727 119.596L321.524 109.031L321.862 102.438L319.244 91.9576L321.018 88.7459L318.907 86.4638L320.004 84.7734L320.089 80.8855L321.271 79.9558L319.16 77.7583L321.609 74.3775L321.777 70.3205L318.316 74.7156L312.996 82.6604L309.281 93.1409L303.54 95.2539L299.825 95.0849L299.487 97.6205L297.798 99.2263L293.408 103.452L288.679 106.326L288.933 114.693L286.822 116.13L286.231 120.272L287.244 122.638L286.991 126.273L291.888 128.301L293.661 126.188L295.941 125.512L296.194 122.385L294.674 119.765L299.487 111.313L301.767 112.834L304.469 112.242L304.806 112.158V112.919L305.313 121.878L303.624 123.484L305.904 130.076L304.469 132.189L310.885 134.133L313.925 130.33L318.4 124.667L328.617 125.512L331.487 128.977L340.606 129.315L342.042 130.499L340.944 132.105L343.308 134.387L344.068 138.782L342.801 143.008L356.226 134.978L356.48 131.175L363.234 127.118L373.535 120.948L374.38 115.032L376.237 113.764L376.744 118.159L379.615 122.216L381.557 128.893L379.108 130.668L378.939 135.654L376.491 137.26L374.717 139.289L369.314 133.457L368.385 134.471L363.234 134.556L361.208 138.444L361.968 140.218L359.519 143.937L365.261 151.629L372.1 149.262L374.042 147.487L377.757 147.741L380.375 150.953L381.641 147.994L384.765 150.276L400.132 151.46L403.932 157.63L408.322 155.517L417.272 157.461L419.214 159.066L419.974 159.743H419.467L415.752 159.996L410.94 164.56L407.9 163.461L408.575 167.265L411.108 168.026L411.784 171.237L415.415 168.11L422.845 169.885L426.56 176.224L426.644 176.393L426.729 176.309L426.813 176.224L429.346 174.111L436.861 177.069L438.972 179.182L439.816 180.027L435.679 184.253L435.172 187.381L438.718 184.76L445.304 184.422L446.908 181.042L449.61 175.379L454.17 174.787L456.703 173.012L466.582 185.099L466.835 185.859L476.967 217.892L483.553 214.934L482.708 210.116L484.819 202.341L482.708 199.213V197.946L480.598 198.199L483.131 191.438L486.846 191.607L486.93 190.846L487.099 188.817L493.516 182.394L490.899 179.267L495.036 175.21L502.719 173.181L516.651 162.616L521.801 158.728L523.743 160.334L526.952 160.926L529.231 163.546L534.382 169.462L523.997 182.563L523.743 182.901L520.281 184.591L520.873 192.452L519.268 194.987L517.073 198.368L503.31 219.329L502.297 222.625L502.128 223.217L503.817 227.105L503.901 232.261L499.933 234.374L494.529 241.642L490.899 242.234L488.112 244.77L486.001 245.446L485.832 246.629L482.962 249.165L479.753 252.038L473.336 252.123L471.225 249.841L471.141 247.474L468.186 248.827L469.706 251.954L476.545 258.039L478.571 259.814L483.046 256.687L491.658 255.419L498.835 247.812L505.421 244.432L509.221 235.641L509.558 231.077L522.815 230.739L522.477 236.233L524.503 240.966L520.366 246.291L518.677 252.292L521.886 257.701L527.289 260.49V257.87L520.788 251.954L523.406 247.728L526.445 246.037V245.953L527.205 240.375L529.907 236.233L525.854 232.514L524.081 228.457L522.899 225.922L515.3 226.344L513.696 225.076L511.331 224.823L510.994 222.963L513.611 219.16L514.287 214.089L517.748 211.215L518.762 208.257L521.041 206.651L524.419 204.285L524.756 199.805L525.094 198.03L526.276 191.522V188.141L529.654 185.437L539.195 182.732L543.247 173.942L543.416 166.42L545.189 167.941L545.865 173.688L545.189 181.211L537.675 189.24L537.506 191.86L535.733 193.635L537.084 195.495L539.195 198.537L544.936 204.369L545.781 207.327L547.469 201.495L543.332 196.593V194.311V187.465H545.696L551.691 192.621L553.802 191.269L551.269 188.479L553.802 186.958L561.063 188.057L562.921 190.508L567.311 196.34V198.537L573.728 197.438L570.266 192.874V189.071L570.182 177.238L573.812 172.759L607.586 175.379L603.111 168.702L606.066 167.011L601.507 163.8L604.969 161.433L605.729 161.264L614.679 159.235L622.362 154.502L637.054 152.305L642.035 148.67L653.265 147.149L651.998 150.361L656.727 151.206L657.993 150.614L660.864 149.262L661.455 148.079L662.89 145.205L665.17 145.29L668.294 145.459L672.178 142.67L671.08 140.979L669.814 138.951L682.479 126.526L686.616 129.738L686.785 129.823L689.149 129.569L688.98 132.781L684.421 135.823L687.883 138.021L693.962 137.852L691.344 144.36L698.268 144.783V142.839L709.244 141.486L710.68 142.078L714.648 143.684L717.266 148.248L719.039 148.924L722.247 155.601L719.208 156.193L721.741 160.672L717.688 173.604L708.231 178.506L706.965 180.365L698.437 193.382L696.242 193.128L692.78 198.875L698.521 199.298L705.614 195.072L706.12 194.734L712.369 190.677L707.894 190.085L708.738 185.606L720.305 188.226L722.501 186.704L729.509 188.817L733.055 186.873L737.53 186.958L739.725 186.789L750.533 186.113L753.403 190.677L763.451 193.297L768.601 190.085L771.05 191.945L770.121 181.042L774.681 177.069L780.507 178.675L793.932 177.323L800.602 182.394L802.544 188.226L805.752 190.001L807.948 193.973L804.486 196.424L805.246 200.481L807.779 200.228L815.293 208.257L824.919 210.455L823.399 191.184L829.225 195.325L835.389 194.903L839.526 189.071L841.299 186.535L847.885 188.902L850.418 188.564L847.041 184.591L852.529 181.126L855.484 181.802L856.413 181.126L859.199 179.267L854.64 176.816L853.626 176.309L853.204 173.435L852.698 170.054L851.938 170.392L849.827 171.237L848.476 164.56L849.574 164.729L852.36 165.152L852.613 161.179L850.587 158.559L895.252 143.768L896.35 146.05L894.83 146.98L894.577 150.614L904.287 146.557L904.962 146.304L914.588 149.769L920.076 148.586L924.804 136.838L937.976 126.949L949.121 125.005L960.773 132.781L973.185 116.046L976.14 115.116L984.583 105.058L984.33 99.5644L992.858 100.579L996.742 98.7192L1003.33 99.1418L1004.51 93.1409L998.599 88.4078L993.533 88.6613L986.61 82.1533L993.196 76.575L996.826 73.5323L1003.16 59.1639L1008.31 56.3747L1011.01 52.4868L1057.45 26.0321L1070.62 29.4129L1072.82 30.0045L1077.21 28.1451L1078.22 24.1726L1072.06 23.6655L1068.76 23.3274L1066.15 19.355L1072.48 15.8897L1070.79 12.1708L1071.47 9.5507L1076.11 7.26867L1085.06 2.95815L1087.59 0.0844727L1090.46 4.90211L1094.35 7.09963L1093.08 10.5649L1096.04 10.8185L1095.19 14.96L1091.22 19.186L1091.56 21.8906L1095.28 20.2847L1097.81 22.8203L1102.2 20.1157L1103.97 24.3417L1108.62 27.3844L1110.47 25.7785L1113.18 31.6104L1107.77 37.0197L1103.8 37.4423L1098.48 43.2742L1089.03 44.0348L1083.62 47.8382L1085.06 51.6416L1083.54 57.7271L1077.29 57.8961L1071.38 51.8952L1070.87 59.8401L1078.39 63.897L1081.51 63.6435L1090.04 77.5892L1089.03 82.5759L1086.92 85.196L1083.37 89.5911L1081.43 93.479L1083.88 95.1694L1085.99 90.5208L1093.76 89.5911L1094.01 86.8864V86.6329L1099.84 87.0555L1102.79 88.9994L1105.24 90.6053L1106.93 90.0137L1108.19 89.5065L1118.83 89.253L1125.08 94.3242L1126.01 95.0849L1119.42 104.636L1115.46 106.58L1117.82 110.637L1119.68 134.809L1118.24 138.359L1119.85 140.979L1120.35 141.824L1125.25 165.321L1125.08 169.885L1129.89 176.9L1119.68 176.985L1114.27 185.183L1111.57 192.959L1115.71 204.116L1113.94 206.06L1108.45 201.834L1106.59 198.96L1105.15 205.299V205.383L1106.67 211.384L1106.42 214.258L1103.38 214.85L1103.3 217.132L1101.02 218.991V223.555L1106 228.373L1110.14 240.797L1116.89 253.137L1121.87 253.391L1120.61 249.841L1126.77 247.643L1128.37 253.56L1136.14 260.828L1138.68 259.223L1143.99 260.49L1146.27 263.449L1146.61 267.759L1144.59 268.52L1142.14 267.421L1140.45 264.04L1138.42 266.407L1140.19 268.689L1140.36 271.309L1144.59 277.31L1150.41 285.593L1156.91 289.65L1157.59 293.707L1157.42 293.876L1153.03 298.778L1151.51 309.934L1157.5 319.823L1161.56 320.753L1162.65 323.12L1160.46 323.965L1158.35 328.529L1157.93 333.431L1155.9 335.206L1157.76 336.558L1164.17 346.785L1166.96 359.801L1167.72 363.351L1166.12 368.422L1166.2 373.493L1157.93 368.169L1154.46 363.182L1153.03 361.069L1136.48 351.18ZM644.99 92.3802L649.381 91.2815L652.252 88.9149L649.128 86.7174L646.003 85.7031L644.399 87.5626L646.426 90.1827L644.99 92.3802ZM653.434 86.4638L662.637 84.9425V79.8713L665.17 76.2369L662.13 73.0252L659.935 68.292L657.655 71.9264L651.998 75.4762L653.349 76.9131L651.07 80.8855L648.621 81.1391L650.816 85.4496L653.434 86.4638ZM663.819 91.2815L663.988 87.4781L655.545 88.1542L653.603 90.1827L653.771 91.1969L650.732 93.8171L652.589 97.7895L652.674 100.156L652.843 103.114L657.149 105.058L660.104 108.608L665.845 108.354L669.138 105.227L667.956 102.692L667.365 101.508L669.054 98.8883L668.801 95.5075L670.152 92.1267L666.436 89.422L666.521 91.1969H663.819V91.2815ZM989.903 38.541L991.845 38.4565L994.715 38.372L994.462 36.259L993.955 31.1033L995.644 24.7643L993.955 18.6789L989.143 20.5383L985.259 26.1166L987.285 34.0615L989.903 38.541ZM650.31 137.345L653.18 133.119L648.368 134.302L650.31 137.345ZM668.801 115.961L665.423 121.793L668.041 121.962L674.373 118.159L678.342 118.243L686.025 115.201L686.11 109.453L682.563 108.27L681.972 104.974L681.719 103.79L680.537 104.805L678.173 104.382L678.679 101.424L677.666 100.156L676.4 102.269H674.289L673.951 103.706L673.36 106.072L671.503 106.495V108.608L670.152 109.115L668.801 115.961ZM98.7032 80.2939L98.8721 83.2521L102.081 88.9149L102.925 88.1542L104.445 86.8864L107.484 87.8161L109.933 86.4638L111.875 83.3366L111.959 77.5892L112.804 75.8143L112.888 72.0954L118.461 66.4326L114.746 65.841L110.439 66.5171L103.431 60.7698L101.152 61.615L99.5475 60.1781L99.1254 60.3472L96.5923 61.3614L97.9433 78.1809L98.7032 80.2939ZM404.776 140.472L405.029 136.415L402.918 130.837L395.15 132.527L392.786 135.908L391.773 138.275L399.963 142.331L404.776 140.472ZM549.073 183.831L552.62 185.69L555.744 184.169L553.717 181.633L549.073 183.831ZM560.219 181.126L563.765 182.817L564.018 179.774L564.271 178.083L560.05 178.929L560.219 181.126ZM438.212 137.767L441.167 140.134L440.323 144.698L443.953 144.106L444.798 146.642L445.642 147.149L446.74 147.825L448.935 151.967L451.046 150.868L451.299 145.881L453.832 135.908L462.613 125.766L485.832 116.299L489.716 113.341L495.458 112.496L498.244 109.453L500.186 110.89L512.429 108.693L522.055 107.002L528.978 109.115L543.67 110.552L549.242 111.059L554.984 104.805L554.562 100.494L546.54 99.987H546.034L542.656 101.931L530.414 98.0431L528.978 95.4229L511.247 95.6765H508.461L502.719 93.9861L499.933 94.6623L497.822 93.8171L496.049 96.8598L485.917 102.607L474.518 105.143L475.109 107.678L471.563 108.101L469.959 108.27L465.822 107.171L462.36 110.214L459.151 109.622L457.716 112.665L448.259 116.13L447.331 113.764L441.251 118.666L440.829 122.047L443.869 123.314L444.544 128.048L442.433 129.992L443.531 133.879L441.167 132.781L438.212 137.767ZM527.458 154.671L525.348 157.883L524.756 159.405L529.907 160.165L530.329 160.25L533.284 159.405L532.44 156.193L531.173 155.77L527.458 154.671ZM451.468 173.097L454.085 170.561L454.339 165.405L453.663 159.405L448.935 161.348L447.922 166.927L448.597 169.04V171.406L451.468 173.097ZM28.1165 293.96L25.5835 291.932L25.2457 290.326L21.5306 288.551L20.9396 282.804L23.3037 279.676L22.8816 276.127L25.1613 274.774L23.2193 272.83L24.9924 271.393L24.908 268.858L22.7127 267.252L24.4014 264.885L22.5438 261.251L20.6863 263.026L18.6599 263.533L8.44339 257.025L7.17688 258.039L8.35895 261.082L6.58584 266.407L7.93678 267.59L7.68348 271.562L3.54622 273.929L0 273.844V278.07L2.95519 283.649L8.10565 283.902L16.1269 290.41L20.2641 291.509V293.284L23.7259 298.693L28.1165 297.341V293.96ZM975.802 427.84L978.589 427.586L979.433 429.953L981.206 425.473L981.797 423.107L975.802 422.853V427.84ZM1154.55 383.636L1156.58 384.481L1157.59 382.284L1154.97 381.692L1154.55 383.636ZM1163.75 394.962L1164.77 390.313V377.466L1162.06 377.381L1160.21 381.016L1161.73 386.256L1161.05 392.933L1163.75 394.962ZM1165.78 418.204L1164.93 421.332L1166.96 421.416L1165.78 418.204ZM1166.37 413.049L1167.47 408.147L1165.78 404.681L1163.92 403.16L1163.25 406.287L1166.2 410.767L1166.37 413.049ZM1136.73 538.814L1135.3 544.308L1135.13 544.9L1137.49 546.59L1138.17 547.013V541.604L1138.34 536.11L1141.04 531.377L1136.82 533.152L1136.73 538.814ZM1145.85 539.744L1149.06 540.251V535.856L1147.29 537.547L1145.85 539.744ZM1150.41 504.499L1147.12 507.035L1145.18 508.134L1147.03 512.275L1145.09 515.741V520.558L1143.32 524.7L1145.18 527.827L1145.85 522.418L1148.05 518.868L1149.9 510.416L1152.78 504.668L1154.3 500.78L1151.42 500.95L1150.41 504.499ZM1167.04 463L1170 461.141V461.056L1168.23 454.548L1168.14 450.407L1167.04 450.238L1166.45 453.618L1167.97 458.605L1167.47 461.056L1167.04 463ZM1158.6 484.13L1158.94 488.018L1158.77 488.779L1158.09 492.328L1158.94 494.949L1159.78 492.328L1160.97 488.694L1162.23 483.116L1160.46 479.82L1158.6 484.13ZM1089.03 516.501L1084.13 510.754L1081.34 510.162L1075.52 503.908L1071.21 488.61L1070.11 484.637L1071.55 482.609L1072.06 481.848L1073.32 479.989L1074.25 478.636L1082.86 479.059L1083.79 479.566L1088.52 482.271L1086.75 478.721L1086.33 477.791L1083.29 477.538L1074.93 470.438L1064.8 461.817L1043.69 438.067L1043.26 433.08L1039.55 429.615L1036.34 422.346L1030.77 418.543L1024.1 410.175L1022.16 413.387L1022.75 415.753L1028.32 420.656L1028.49 425.22L1025.62 429.53L1030.35 436.038L1030.52 437.391L1031.19 443.983L1046.47 461.141L1052.05 479.651L1052.38 480.158L1060.07 490.892L1061.84 498.245L1066.57 502.978L1066.99 504.077L1073.66 521.403L1081.18 532.391L1086.07 535.011L1083.96 528.926L1084.81 522.418L1088.69 523.094L1091.73 520.727L1097.89 526.052L1098.74 519.797L1092.74 515.233L1089.03 516.501Z" stroke="#5F5F5F" stroke-width="6" stroke-linecap="round" stroke-linejoin="round" mask="url(#path-1-inside-1_295:3639)"/>
</svg>
