<svg width="121" height="40" viewBox="0 0 121 40" fill="none" xmlns="http://www.w3.org/2000/svg">
<path d="M14.5032 21.4C16.2312 19.432 18.4632 16.792 21.1992 13.48C23.9352 10.168 25.9512 7.816 27.2472 6.424C28.5432 5.032 29.6592 3.976 30.5952 3.256C32.7792 1.624 34.9992 0.807998 37.2552 0.807998C37.7592 0.807998 38.3232 1.012 38.9472 1.42C39.5952 1.828 39.9192 2.464 39.9192 3.328C39.9192 4.168 39.1152 5.464 37.5072 7.216C36.7152 8.08 35.5632 8.968 34.0512 9.88C32.5632 10.768 30.8952 11.488 29.0472 12.04C28.3512 12.16 27.8352 12.22 27.4992 12.22C27.1872 12.22 27.0312 12.184 27.0312 12.112C27.0312 12.04 27.1152 11.956 27.2832 11.86C29.2992 10.756 31.5552 9.088 34.0512 6.856C36.5712 4.624 37.8312 3.16 37.8312 2.464C37.8312 2.368 37.7592 2.32 37.6152 2.32C37.4952 2.32 37.3512 2.344 37.1832 2.392C37.0392 2.44 36.8712 2.488 36.6792 2.536C36.4872 2.584 36.0792 2.788 35.4552 3.148C34.8312 3.484 34.1712 3.916 33.4752 4.444C32.8032 4.948 31.9512 5.74 30.9192 6.82C29.9112 7.876 28.8912 9.1 27.8592 10.492C23.8992 16.036 21.3312 19.444 20.1552 20.716C19.9632 20.932 19.7232 21.196 19.4352 21.508C20.0352 21.58 20.9352 21.664 22.1352 21.76C23.3352 21.856 24.1392 21.94 24.5472 22.012C24.9792 22.06 25.6032 22.18 26.4192 22.372C27.2352 22.564 27.8832 22.804 28.3632 23.092C29.6112 23.86 30.8112 24.904 31.9632 26.224C32.2272 26.512 32.3592 26.704 32.3592 26.8C32.3592 26.896 32.3232 26.944 32.2512 26.944C32.1312 26.944 31.9752 26.896 31.7832 26.8C31.4232 26.704 30.8952 26.572 30.1992 26.404C29.5272 26.236 28.0632 26.02 25.8072 25.756C23.5512 25.492 21.4752 25.36 19.5792 25.36C17.7072 25.36 16.3392 25.372 15.4752 25.396C14.2032 26.596 12.4152 27.712 10.1112 28.744C7.80722 29.776 6.07922 30.292 4.92722 30.292C3.75122 30.292 2.64722 29.98 1.61522 29.356C0.583218 28.756 0.0672183 27.94 0.0672183 26.908C0.0672183 26.164 0.631218 25.348 1.75922 24.46C4.35122 22.42 8.59922 21.4 14.5032 21.4ZM2.04722 27.952C2.04722 28.192 2.33522 28.348 2.91122 28.42C3.65522 28.42 4.29122 28.372 4.81922 28.276C5.34722 28.204 6.12722 27.94 7.15922 27.484C8.16722 27.028 9.23522 26.356 10.3632 25.468C8.82722 25.468 7.06322 25.744 5.07122 26.296C3.05522 26.848 2.04722 27.4 2.04722 27.952ZM49.3414 2.14C51.0694 1.036 52.5334 0.483998 53.7334 0.483998C54.8374 0.483998 55.5334 0.903998 55.8214 1.744C55.9174 2.032 55.9654 2.26 55.9654 2.428C55.9654 3.34 55.4494 4.768 54.4174 6.712C53.3854 8.656 52.0174 10.768 50.3134 13.048C48.6094 15.304 46.7734 17.476 44.8054 19.564C42.8374 21.652 40.7854 23.392 38.6494 24.784C36.5134 26.176 34.6414 26.872 33.0334 26.872C31.9054 26.872 30.8614 26.392 29.9014 25.432C28.9414 24.472 28.4614 23.308 28.4614 21.94C28.4614 20.548 28.8454 19 29.6134 17.296C30.3814 15.568 31.4374 13.828 32.7814 12.076C34.1494 10.324 35.6494 8.692 37.2814 7.18C38.9134 5.644 40.6894 4.396 42.6094 3.436C44.5534 2.476 46.4014 1.996 48.1534 1.996C48.6334 1.996 49.0294 2.044 49.3414 2.14ZM32.0974 24.136C33.3214 24.136 35.7094 22.576 39.2614 19.456C42.8134 16.336 46.0894 13.084 49.0894 9.7C52.1134 6.292 53.6254 4.168 53.6254 3.328C53.6254 3.256 53.5774 3.22 53.4814 3.22C52.6654 3.22 51.5134 3.7 50.0254 4.66C48.5614 5.62 47.1574 6.7 45.8134 7.9C44.4694 9.1 43.3054 10.168 42.3214 11.104C41.3614 12.04 40.8094 12.616 40.6654 12.832C40.5214 13.048 40.4014 13.156 40.3054 13.156C40.2574 13.156 40.2334 13.096 40.2334 12.976L40.3054 12.436C40.5694 11.572 41.3734 10.168 42.7174 8.224L43.4014 7.216C43.5694 6.904 43.6534 6.724 43.6534 6.676C43.6534 6.604 43.6294 6.568 43.5814 6.568C43.3894 6.568 43.0654 6.772 42.6094 7.18C40.8094 8.812 39.2134 10.468 37.8214 12.148C36.4294 13.804 35.3614 15.244 34.6174 16.468C33.8974 17.668 33.3094 18.82 32.8534 19.924C32.1334 21.604 31.7734 22.732 31.7734 23.308C31.7734 23.86 31.8814 24.136 32.0974 24.136ZM76.0672 4.984C76.7872 5.224 77.1832 5.464 77.2552 5.704L77.2912 5.848C77.2912 6.352 76.7872 7.06 75.7792 7.972C71.6752 12.58 68.7592 16.144 67.0312 18.664C66.5272 19.384 65.8192 20.44 64.9072 21.832C63.9952 23.2 63.2512 24.292 62.6752 25.108C62.1232 25.948 61.3792 26.992 60.4432 28.24C59.5312 29.512 58.7152 30.556 57.9952 31.372C57.2992 32.188 56.4352 33.1 55.4032 34.108C54.3952 35.116 53.4232 35.956 52.4872 36.628C50.3752 38.14 48.1072 39.256 45.6832 39.976C45.0592 39.976 44.4712 39.82 43.9192 39.508C43.3432 39.22 43.0432 38.8 43.0192 38.248C43.0432 36.952 44.0512 35.344 46.0432 33.424C48.0352 31.528 50.7112 30.076 54.0712 29.068C54.5512 28.948 54.8872 28.768 55.0792 28.528L65.3752 16.252L65.9152 15.532C65.9632 15.436 65.9872 15.376 65.9872 15.352C65.9872 15.304 65.9632 15.28 65.9152 15.28C65.8912 15.28 65.3632 15.808 64.3312 16.864C63.2992 17.896 62.3992 18.82 61.6312 19.636C60.8872 20.452 59.9032 21.436 58.6792 22.588C57.4552 23.716 55.9552 24.832 54.1792 25.936C52.4272 27.064 50.9512 27.628 49.7512 27.628C48.1672 27.628 47.1832 26.584 46.7992 24.496C46.7272 24.016 46.6912 23.536 46.6912 23.056C46.6912 20.896 47.6272 18.58 49.4992 16.108C51.3472 13.612 53.6152 11.404 56.3032 9.484C59.0152 7.54 61.9312 5.92 65.0512 4.624C68.1712 3.304 70.9432 2.632 73.3672 2.608H73.4032C74.1712 2.608 74.8072 2.872 75.3112 3.4C75.8392 3.904 76.1032 4.348 76.1032 4.732C76.1032 4.852 76.0912 4.936 76.0672 4.984ZM44.8192 38.104C44.8192 38.248 44.8792 38.32 44.9992 38.32H45.0712C45.6712 38.32 47.1832 37.168 49.6072 34.864C52.0552 32.584 53.4952 30.892 53.9272 29.788C53.9272 29.74 53.9032 29.716 53.8552 29.716C52.2472 30.292 50.3392 31.684 48.1312 33.892C45.9232 36.124 44.8192 37.528 44.8192 38.104ZM74.7352 5.596C74.8792 5.452 74.9512 5.344 74.9512 5.272C74.9512 5.176 74.8432 5.128 74.6272 5.128C73.1632 5.128 71.2912 5.632 69.0112 6.64C66.7552 7.624 64.4392 8.932 62.0632 10.564C59.7112 12.196 57.3952 14.212 55.1152 16.612C52.8592 18.988 51.0712 21.424 49.7512 23.92C49.6792 24.016 49.6432 24.112 49.6432 24.208C49.6432 24.28 49.7032 24.316 49.8232 24.316C51.1672 24.316 54.3472 22.36 59.3632 18.448C64.4032 14.512 69.5272 10.228 74.7352 5.596ZM89.5953 2.14C91.3233 1.036 92.7873 0.483998 93.9873 0.483998C95.0913 0.483998 95.7873 0.903998 96.0753 1.744C96.1713 2.032 96.2193 2.26 96.2193 2.428C96.2193 3.34 95.7033 4.768 94.6713 6.712C93.6393 8.656 92.2713 10.768 90.5673 13.048C88.8633 15.304 87.0273 17.476 85.0593 19.564C83.0913 21.652 81.0393 23.392 78.9033 24.784C76.7673 26.176 74.8953 26.872 73.2873 26.872C72.1593 26.872 71.1153 26.392 70.1553 25.432C69.1953 24.472 68.7153 23.308 68.7153 21.94C68.7153 20.548 69.0993 19 69.8673 17.296C70.6353 15.568 71.6913 13.828 73.0353 12.076C74.4033 10.324 75.9033 8.692 77.5353 7.18C79.1673 5.644 80.9433 4.396 82.8633 3.436C84.8073 2.476 86.6553 1.996 88.4073 1.996C88.8873 1.996 89.2833 2.044 89.5953 2.14ZM72.3513 24.136C73.5753 24.136 75.9633 22.576 79.5153 19.456C83.0673 16.336 86.3433 13.084 89.3433 9.7C92.3673 6.292 93.8793 4.168 93.8793 3.328C93.8793 3.256 93.8313 3.22 93.7353 3.22C92.9193 3.22 91.7673 3.7 90.2793 4.66C88.8153 5.62 87.4113 6.7 86.0673 7.9C84.7233 9.1 83.5593 10.168 82.5753 11.104C81.6153 12.04 81.0633 12.616 80.9193 12.832C80.7753 13.048 80.6553 13.156 80.5593 13.156C80.5113 13.156 80.4873 13.096 80.4873 12.976L80.5593 12.436C80.8233 11.572 81.6273 10.168 82.9713 8.224L83.6553 7.216C83.8233 6.904 83.9073 6.724 83.9073 6.676C83.9073 6.604 83.8833 6.568 83.8353 6.568C83.6433 6.568 83.3193 6.772 82.8633 7.18C81.0633 8.812 79.4673 10.468 78.0753 12.148C76.6833 13.804 75.6153 15.244 74.8713 16.468C74.1513 17.668 73.5633 18.82 73.1073 19.924C72.3873 21.604 72.0273 22.732 72.0273 23.308C72.0273 23.86 72.1353 24.136 72.3513 24.136ZM97.7698 11.104C97.7938 9.832 98.4898 8.44 99.8578 6.928C101.25 5.416 103.086 4.108 105.366 3.004C107.67 1.9 109.95 1.348 112.206 1.348C113.574 1.348 114.786 1.528 115.842 1.888C116.922 2.224 117.75 2.644 118.326 3.148C118.926 3.652 119.418 4.228 119.802 4.876C120.402 5.932 120.702 7 120.702 8.08C120.702 9.88 119.502 11.908 117.102 14.164C114.726 16.396 111.498 18.64 107.418 20.896C106.842 21.232 106.554 21.472 106.554 21.616C106.554 21.688 106.95 21.724 107.742 21.724C108.558 21.724 109.626 21.856 110.946 22.12C112.29 22.384 113.682 22.912 115.122 23.704C116.562 24.496 117.738 25.504 118.65 26.728C118.722 26.8 118.758 26.872 118.758 26.944C118.758 27.016 118.71 27.052 118.614 27.052C118.542 27.052 117.858 26.908 116.562 26.62C115.29 26.356 113.55 26.08 111.342 25.792C109.134 25.528 107.046 25.396 105.078 25.396C103.134 25.396 100.902 25.684 98.3818 26.26C98.3098 26.284 98.2018 26.296 98.0578 26.296C96.3298 25.144 95.4658 24.244 95.4658 23.596C95.4658 22.852 96.6538 22.36 99.0298 22.12C99.2938 22.12 100.434 21.58 102.45 20.5C104.49 19.42 106.722 18.124 109.146 16.612C111.594 15.076 113.802 13.336 115.77 11.392C117.738 9.448 118.722 7.768 118.722 6.352C118.722 5.176 117.51 4.588 115.086 4.588C114.222 4.588 113.154 4.732 111.882 5.02C110.634 5.308 109.47 5.668 108.39 6.1C107.31 6.532 106.05 7.216 104.61 8.152C103.194 9.064 101.85 10.156 100.578 11.428C99.9298 12.1 99.6058 12.628 99.6058 13.012C99.6058 13.276 99.7978 13.408 100.182 13.408C101.094 13.384 102.594 12.916 104.682 12.004C106.794 11.068 108.438 9.928 109.614 8.584C110.046 8.056 110.334 7.792 110.478 7.792C110.622 7.888 110.694 7.984 110.694 8.08C110.694 9.616 109.554 11.272 107.274 13.048C104.994 14.824 103.026 15.712 101.37 15.712C101.082 15.712 100.698 15.604 100.218 15.388C99.7378 15.148 99.3418 14.884 99.0298 14.596C98.7178 14.308 98.4298 13.864 98.1658 13.264C97.9018 12.64 97.7698 11.92 97.7698 11.104Z" fill="#666276"/>
</svg>
