<svg width="123" height="28" viewBox="0 0 123 28" fill="none" xmlns="http://www.w3.org/2000/svg">
<path d="M0.324563 27V1.296H4.93256V23.112H15.6606V27H0.324563ZM42.3824 14.112C42.3824 16.776 41.9384 19.104 41.0504 21.096C40.1864 23.064 38.8544 24.6 37.0544 25.704C35.2544 26.808 32.9984 27.36 30.2864 27.36C27.5504 27.36 25.2824 26.808 23.4824 25.704C21.7064 24.6 20.3744 23.052 19.4864 21.06C18.6224 19.068 18.1904 16.74 18.1904 14.076C18.1904 11.436 18.6224 9.132 19.4864 7.164C20.3744 5.172 21.7064 3.636 23.4824 2.556C25.2824 1.452 27.5624 0.899999 30.3224 0.899999C33.0344 0.899999 35.2784 1.452 37.0544 2.556C38.8544 3.636 40.1864 5.172 41.0504 7.164C41.9384 9.132 42.3824 11.448 42.3824 14.112ZM23.0504 14.112C23.0504 17.016 23.6264 19.296 24.7784 20.952C25.9304 22.608 27.7664 23.436 30.2864 23.436C32.8304 23.436 34.6664 22.608 35.7944 20.952C36.9464 19.296 37.5224 17.016 37.5224 14.112C37.5224 11.208 36.9584 8.928 35.8304 7.272C34.7024 5.616 32.8664 4.788 30.3224 4.788C27.8024 4.788 25.9544 5.616 24.7784 7.272C23.6264 8.928 23.0504 11.208 23.0504 14.112ZM58.1158 12.888H67.8358V25.956C66.4678 26.388 65.0638 26.736 63.6238 27C62.1838 27.24 60.5518 27.36 58.7278 27.36C54.8398 27.36 51.8518 26.208 49.7638 23.904C47.6758 21.6 46.6318 18.336 46.6318 14.112C46.6318 11.448 47.1478 9.132 48.1798 7.164C49.2358 5.172 50.7598 3.636 52.7518 2.556C54.7438 1.476 57.1678 0.935999 60.0238 0.935999C61.4158 0.935999 62.7598 1.08 64.0558 1.368C65.3758 1.656 66.5758 2.028 67.6558 2.484L66.0718 6.264C65.2318 5.88 64.2838 5.544 63.2278 5.256C62.1718 4.968 61.0678 4.824 59.9158 4.824C58.1638 4.824 56.6518 5.208 55.3798 5.976C54.1078 6.744 53.1238 7.836 52.4278 9.252C51.7558 10.644 51.4198 12.288 51.4198 14.184C51.4198 16.008 51.6838 17.616 52.2118 19.008C52.7398 20.4 53.5798 21.492 54.7318 22.284C55.8838 23.076 57.3838 23.472 59.2318 23.472C60.1438 23.472 60.9118 23.424 61.5358 23.328C62.1598 23.232 62.7478 23.124 63.2998 23.004V16.812H58.1158V12.888ZM96.9449 14.112C96.9449 16.776 96.5009 19.104 95.6129 21.096C94.7489 23.064 93.4169 24.6 91.6169 25.704C89.8169 26.808 87.5609 27.36 84.8489 27.36C82.1129 27.36 79.8449 26.808 78.0449 25.704C76.2689 24.6 74.9369 23.052 74.0489 21.06C73.1849 19.068 72.7529 16.74 72.7529 14.076C72.7529 11.436 73.1849 9.132 74.0489 7.164C74.9369 5.172 76.2689 3.636 78.0449 2.556C79.8449 1.452 82.1249 0.899999 84.8849 0.899999C87.5969 0.899999 89.8409 1.452 91.6169 2.556C93.4169 3.636 94.7489 5.172 95.6129 7.164C96.5009 9.132 96.9449 11.448 96.9449 14.112ZM77.6129 14.112C77.6129 17.016 78.1889 19.296 79.3409 20.952C80.4929 22.608 82.3289 23.436 84.8489 23.436C87.3929 23.436 89.2289 22.608 90.3569 20.952C91.5089 19.296 92.0849 17.016 92.0849 14.112C92.0849 11.208 91.5209 8.928 90.3929 7.272C89.2649 5.616 87.4289 4.788 84.8849 4.788C82.3649 4.788 80.5169 5.616 79.3409 7.272C78.1889 8.928 77.6129 11.208 77.6129 14.112ZM122.498 27H117.962V10.98C117.962 10.212 117.974 9.396 117.998 8.532C118.022 7.668 118.058 6.864 118.106 6.12C117.866 6.36 117.566 6.648 117.206 6.984C116.846 7.296 116.474 7.62 116.09 7.956L113.21 10.26L110.942 7.452L118.718 1.296H122.498V27Z" fill="#666276"/>
</svg>
