<svg width="120" height="27" viewBox="0 0 120 27" fill="none" xmlns="http://www.w3.org/2000/svg">
<path d="M2.17866 26.36C1.72266 26.36 1.30266 26.18 0.918656 25.82C0.558656 25.46 0.306656 25.04 0.162656 24.56C0.0906563 24.344 0.0786563 24.188 0.126656 24.092C0.174656 23.996 0.282656 23.852 0.450656 23.66C0.666656 23.444 0.834656 23.216 0.954656 22.976C1.07466 22.736 1.13466 22.376 1.13466 21.896V0.799998H5.38266V22.328H16.2187V26H3.51066C3.17466 26.24 2.73066 26.36 2.17866 26.36ZM27.4166 26.36C25.1366 26.36 23.1686 25.832 21.5126 24.776C19.8806 23.696 18.6326 22.184 17.7686 20.24C16.9286 18.296 16.5086 16.016 16.5086 13.4C16.5086 10.784 16.9286 8.504 17.7686 6.56C18.6326 4.616 19.8806 3.116 21.5126 2.06C23.1686 0.979999 25.1366 0.439999 27.4166 0.439999C29.7206 0.439999 31.6886 0.979999 33.3206 2.06C34.9526 3.116 36.1886 4.616 37.0286 6.56C37.8926 8.504 38.3246 10.784 38.3246 13.4C38.3246 16.016 37.8926 18.296 37.0286 20.24C36.1886 22.184 34.9526 23.696 33.3206 24.776C31.6886 25.832 29.7206 26.36 27.4166 26.36ZM27.4166 22.868C29.6006 22.868 31.2446 22.028 32.3486 20.348C33.4526 18.668 34.0046 16.352 34.0046 13.4C34.0046 10.448 33.4526 8.132 32.3486 6.452C31.2446 4.772 29.6006 3.932 27.4166 3.932C25.2566 3.932 23.6126 4.772 22.4846 6.452C21.3806 8.132 20.8286 10.448 20.8286 13.4C20.8286 16.352 21.3806 18.668 22.4846 20.348C23.6126 22.028 25.2566 22.868 27.4166 22.868ZM52.7828 26.36C50.3588 26.36 48.2588 25.844 46.4828 24.812C44.7308 23.756 43.3868 22.256 42.4508 20.312C41.5388 18.344 41.0828 16.028 41.0828 13.364C41.0828 10.7 41.5388 8.396 42.4508 6.452C43.3868 4.508 44.7308 3.02 46.4828 1.988C48.2588 0.955998 50.3708 0.439999 52.8188 0.439999C54.4988 0.439999 56.0228 0.727998 57.3908 1.304C58.7588 1.856 59.8748 2.636 60.7388 3.644L59.0828 6.56C58.2428 5.648 57.3548 4.988 56.4188 4.58C55.4828 4.148 54.2828 3.932 52.8188 3.932C50.4668 3.932 48.6428 4.772 47.3468 6.452C46.0508 8.108 45.4028 10.412 45.4028 13.364C45.4028 16.34 46.0508 18.668 47.3468 20.348C48.6668 22.028 50.5028 22.868 52.8548 22.868C53.8148 22.868 54.6068 22.796 55.2308 22.652C55.8548 22.508 56.4668 22.256 57.0668 21.896V15.632H51.4148V12.104H58.9028C59.2628 11.696 59.6828 11.492 60.1628 11.492C60.6188 11.492 61.0508 11.72 61.4588 12.176C61.8668 12.608 62.1428 13.064 62.2868 13.544C62.3588 13.76 62.3708 13.916 62.3228 14.012C62.2748 14.108 62.1668 14.24 61.9988 14.408C61.7828 14.624 61.6148 14.852 61.4948 15.092C61.3748 15.332 61.3148 15.692 61.3148 16.172V23.732C59.8028 24.692 58.4108 25.376 57.1388 25.784C55.8668 26.168 54.4148 26.36 52.7828 26.36ZM75.9674 26.36C73.6874 26.36 71.7194 25.832 70.0634 24.776C68.4314 23.696 67.1834 22.184 66.3194 20.24C65.4794 18.296 65.0594 16.016 65.0594 13.4C65.0594 10.784 65.4794 8.504 66.3194 6.56C67.1834 4.616 68.4314 3.116 70.0634 2.06C71.7194 0.979999 73.6874 0.439999 75.9674 0.439999C78.2714 0.439999 80.2394 0.979999 81.8714 2.06C83.5034 3.116 84.7394 4.616 85.5794 6.56C86.4434 8.504 86.8754 10.784 86.8754 13.4C86.8754 16.016 86.4434 18.296 85.5794 20.24C84.7394 22.184 83.5034 23.696 81.8714 24.776C80.2394 25.832 78.2714 26.36 75.9674 26.36ZM75.9674 22.868C78.1514 22.868 79.7954 22.028 80.8994 20.348C82.0034 18.668 82.5554 16.352 82.5554 13.4C82.5554 10.448 82.0034 8.132 80.8994 6.452C79.7954 4.772 78.1514 3.932 75.9674 3.932C73.8074 3.932 72.1634 4.772 71.0354 6.452C69.9314 8.132 69.3794 10.448 69.3794 13.4C69.3794 16.352 69.9314 18.668 71.0354 20.348C72.1634 22.028 73.8074 22.868 75.9674 22.868ZM109.679 26.36C106.967 26.36 104.687 25.736 102.839 24.488C101.015 23.24 99.7069 21.392 98.9149 18.944L102.839 17.648C103.727 21.128 106.007 22.868 109.679 22.868C111.671 22.868 113.147 22.424 114.107 21.536C115.091 20.648 115.583 19.412 115.583 17.828C115.583 16.34 115.223 15.212 114.503 14.444C113.783 13.676 112.775 13.292 111.479 13.292C110.903 13.292 110.327 13.376 109.751 13.544L109.211 14.264C108.851 14.744 108.467 14.984 108.059 14.984C107.603 14.984 107.051 14.744 106.403 14.264C105.971 13.976 105.755 13.64 105.755 13.256C105.755 12.92 105.911 12.512 106.223 12.032L111.335 4.184H104.855L103.775 7.388L100.463 5.264L102.011 0.799998H116.771C117.395 0.799998 117.851 0.871999 118.139 1.016C118.427 1.16 118.571 1.436 118.571 1.844C118.571 2.06 118.511 2.372 118.391 2.78C118.199 3.356 117.959 3.74 117.671 3.932C117.407 4.1 116.987 4.184 116.411 4.184H115.655L111.659 10.304C112.235 10.112 112.835 10.016 113.459 10.016C114.659 10.016 115.739 10.316 116.699 10.916C117.683 11.516 118.463 12.404 119.039 13.58C119.615 14.756 119.903 16.172 119.903 17.828C119.903 19.532 119.495 21.032 118.679 22.328C117.887 23.6 116.723 24.596 115.187 25.316C113.651 26.012 111.815 26.36 109.679 26.36Z" fill="#666276"/>
</svg>
