<svg width="133" height="27" viewBox="0 0 133 27" fill="none" xmlns="http://www.w3.org/2000/svg">
<path d="M19.6051 26H0.309141V24.92H1.53314C2.25314 24.92 2.72114 24.788 2.93714 24.524C3.15314 24.26 3.26114 23.864 3.26114 23.336V3.464C3.26114 2.936 3.15314 2.54 2.93714 2.276C2.72114 2.012 2.25314 1.88 1.53314 1.88H0.309141V0.799998H9.45314V1.88H8.08514C7.36514 1.88 6.89714 2.012 6.68114 2.276C6.46514 2.54 6.35714 2.936 6.35714 3.464V22.832C6.35714 23.36 6.46514 23.768 6.68114 24.056C6.89714 24.344 7.36514 24.488 8.08514 24.488H14.9251C16.1971 24.488 17.3131 24.08 18.2731 23.264C19.2571 22.424 19.7491 21.608 19.7491 20.816L20.8291 21.032L19.6051 26ZM33.646 26.72C30.502 26.72 27.874 25.508 25.762 23.084C23.674 20.66 22.63 17.864 22.63 14.696C22.63 12.728 23.062 10.832 23.926 9.008C24.79 7.184 25.894 5.636 27.238 4.364C28.606 3.092 30.106 2.072 31.738 1.304C33.394 0.535998 34.99 0.151998 36.526 0.151998C39.646 0.151998 42.262 1.364 44.374 3.788C46.486 6.212 47.542 9.008 47.542 12.176C47.542 14.528 46.906 16.832 45.634 19.088C44.362 21.32 42.634 23.156 40.45 24.596C38.29 26.012 36.022 26.72 33.646 26.72ZM35.878 23.984C38.494 23.984 40.69 23.024 42.466 21.104C44.266 19.184 45.166 16.808 45.166 13.976C45.166 11.144 44.122 8.6 42.034 6.344C39.97 4.088 37.462 2.96 34.51 2.96C31.99 2.96 29.77 3.872 27.85 5.696C25.954 7.496 25.006 9.656 25.006 12.176C25.006 15.44 26.002 18.224 27.994 20.528C30.01 22.832 32.638 23.984 35.878 23.984ZM68.8422 21.896V17.432C68.8422 17.096 68.8182 16.832 68.7702 16.64C68.7222 16.448 68.5662 16.268 68.3022 16.1C68.0382 15.932 67.6422 15.848 67.1142 15.848H65.8182V14.84H74.2422V15.848H73.6662C72.9462 15.848 72.4782 15.992 72.2622 16.28C72.0462 16.544 71.9382 16.928 71.9382 17.432V21.104C68.4822 24.848 64.7142 26.72 60.6342 26.72C57.8982 26.72 55.4622 25.508 53.3262 23.084C51.1902 20.66 50.1222 17.936 50.1222 14.912C50.1222 11 51.5622 7.568 54.4422 4.616C57.3462 1.64 60.7302 0.151998 64.5942 0.151998C66.0342 0.151998 67.9782 0.559999 70.4262 1.376L70.6422 6.344H69.3462C69.3462 4.184 67.2342 3.104 63.0102 3.104C60.1062 3.104 57.6342 3.908 55.5942 5.516C53.5782 7.1 52.5702 9.368 52.5702 12.32C52.5702 13.976 52.8222 15.488 53.3262 16.856C53.8542 18.224 54.5142 19.34 55.3062 20.204C56.0982 21.068 56.9862 21.8 57.9702 22.4C59.7942 23.456 61.5582 23.984 63.2622 23.984C64.9662 23.984 66.8262 23.288 68.8422 21.896ZM87.7163 26.72C84.5723 26.72 81.9443 25.508 79.8323 23.084C77.7443 20.66 76.7003 17.864 76.7003 14.696C76.7003 12.728 77.1323 10.832 77.9963 9.008C78.8603 7.184 79.9643 5.636 81.3083 4.364C82.6763 3.092 84.1763 2.072 85.8083 1.304C87.4643 0.535998 89.0603 0.151998 90.5963 0.151998C93.7163 0.151998 96.3323 1.364 98.4443 3.788C100.556 6.212 101.612 9.008 101.612 12.176C101.612 14.528 100.976 16.832 99.7043 19.088C98.4323 21.32 96.7043 23.156 94.5203 24.596C92.3603 26.012 90.0923 26.72 87.7163 26.72ZM89.9483 23.984C92.5643 23.984 94.7603 23.024 96.5363 21.104C98.3363 19.184 99.2363 16.808 99.2363 13.976C99.2363 11.144 98.1923 8.6 96.1043 6.344C94.0403 4.088 91.5323 2.96 88.5803 2.96C86.0603 2.96 83.8403 3.872 81.9203 5.696C80.0243 7.496 79.0763 9.656 79.0763 12.176C79.0763 15.44 80.0723 18.224 82.0643 20.528C84.0803 22.832 86.7083 23.984 89.9483 23.984ZM123.92 16.064V3.968C120.008 9.68 117.368 13.676 116 15.956V16.1L123.92 16.064ZM130.112 26H120.968V24.992H122.192C122.912 24.992 123.38 24.848 123.596 24.56C123.812 24.272 123.92 23.864 123.92 23.336V18.368H112.436V17.684C113.9 15.308 115.976 12.368 118.664 8.864C121.352 5.336 123.104 3.008 123.92 1.88C125 1.88 125.84 1.352 126.44 0.295998L126.944 0.151998V16.064C129.656 16.064 131.132 15.392 131.372 14.048L132.056 14.192L131.048 18.368H126.944V23.336C126.944 23.864 127.064 24.272 127.304 24.56C127.544 24.848 128.024 24.992 128.744 24.992H130.112V26Z" fill="#666276"/>
</svg>
