<svg width="82" height="27" viewBox="0 0 82 27" fill="none" xmlns="http://www.w3.org/2000/svg">
<path d="M0.472719 26V0.943999H5.36872V21.284H11.9567V26H0.472719ZM21.6742 6.848C21.6742 6.296 21.5302 5.9 21.2422 5.66C20.9782 5.42 20.6422 5.3 20.2342 5.3C19.8262 5.3 19.4782 5.42 19.1902 5.66C18.9022 5.9 18.7582 6.296 18.7582 6.848V20.096C18.7582 20.672 18.9022 21.08 19.1902 21.32C19.4782 21.536 19.8262 21.644 20.2342 21.644C20.6422 21.644 20.9782 21.536 21.2422 21.32C21.5302 21.08 21.6742 20.672 21.6742 20.096V6.848ZM26.6422 19.88C26.6422 22.04 26.1022 23.636 25.0222 24.668C23.9422 25.7 22.3462 26.216 20.2342 26.216C15.9862 26.216 13.8622 24.104 13.8622 19.88V7.028C13.8622 4.868 14.4262 3.284 15.5542 2.276C16.6822 1.244 18.2422 0.727999 20.2342 0.727999C22.4182 0.727999 24.0262 1.244 25.0582 2.276C26.1142 3.284 26.6422 4.868 26.6422 7.028V19.88ZM36.6614 0.727999C37.7894 0.727999 38.7614 0.895999 39.5774 1.232C40.4174 1.544 41.1014 1.988 41.6294 2.564C42.1814 3.14 42.5654 3.824 42.7814 4.616C43.0214 5.408 43.1054 6.26 43.0334 7.172L38.3174 8C38.2934 7.256 38.1254 6.644 37.8134 6.164C37.5254 5.66 37.1294 5.408 36.6254 5.408C36.2894 5.408 36.0134 5.48 35.7974 5.624C35.6054 5.744 35.4494 5.9 35.3294 6.092C35.2094 6.284 35.1254 6.5 35.0774 6.74C35.0294 6.956 35.0054 7.148 35.0054 7.316V20.096C35.0054 20.432 35.0894 20.756 35.2574 21.068C35.4254 21.38 35.8214 21.536 36.4454 21.536C36.9254 21.536 37.3214 21.416 37.6334 21.176C37.9454 20.912 38.1014 20.576 38.1014 20.168V16.316H36.4094V12.032H42.9614V19.916C42.9614 21.98 42.4094 23.552 41.3054 24.632C40.2014 25.688 38.6414 26.216 36.6254 26.216C34.3694 26.216 32.7254 25.688 31.6934 24.632C30.6614 23.576 30.1454 21.992 30.1454 19.88V7.316C30.1454 5.324 30.6974 3.728 31.8014 2.528C32.9294 1.328 34.5494 0.727999 36.6614 0.727999ZM53.5609 6.848C53.5609 6.296 53.4169 5.9 53.1289 5.66C52.8649 5.42 52.5289 5.3 52.1209 5.3C51.7129 5.3 51.3649 5.42 51.0769 5.66C50.7889 5.9 50.6449 6.296 50.6449 6.848V20.096C50.6449 20.672 50.7889 21.08 51.0769 21.32C51.3649 21.536 51.7129 21.644 52.1209 21.644C52.5289 21.644 52.8649 21.536 53.1289 21.32C53.4169 21.08 53.5609 20.672 53.5609 20.096V6.848ZM58.5289 19.88C58.5289 22.04 57.9889 23.636 56.9089 24.668C55.8289 25.7 54.2329 26.216 52.1209 26.216C47.8729 26.216 45.7489 24.104 45.7489 19.88V7.028C45.7489 4.868 46.3129 3.284 47.4409 2.276C48.5689 1.244 50.1289 0.727999 52.1209 0.727999C54.3049 0.727999 55.9129 1.244 56.9449 2.276C58.0009 3.284 58.5289 4.868 58.5289 7.028V19.88ZM81.7185 19.412C81.7185 21.596 81.2025 23.276 80.1705 24.452C79.1625 25.628 77.6025 26.216 75.4905 26.216C73.5945 26.216 72.1305 25.64 71.0985 24.488C70.0665 23.312 69.6105 21.548 69.7305 19.196L74.3745 18.62C74.3025 19.268 74.2905 19.784 74.3385 20.168C74.4105 20.552 74.5065 20.852 74.6265 21.068C74.7705 21.26 74.9265 21.392 75.0945 21.464C75.2625 21.512 75.4185 21.536 75.5625 21.536C75.8265 21.536 76.0785 21.44 76.3185 21.248C76.5825 21.056 76.7145 20.636 76.7145 19.988V14.624C76.7145 13.952 76.3785 13.616 75.7065 13.616C75.5145 13.616 75.2625 13.7 74.9505 13.868C74.6385 14.012 74.3745 14.36 74.1585 14.912H70.1625V0.943999H81.3585V5.516H74.6985V10.052L74.8065 10.088C75.0705 9.8 75.4425 9.584 75.9225 9.44C76.4025 9.296 76.8105 9.224 77.1465 9.224C78.7785 9.224 79.9425 9.68 80.6385 10.592C81.3585 11.504 81.7185 12.68 81.7185 14.12V19.412Z" fill="#666276"/>
</svg>
