<svg width="109" height="37" viewBox="0 0 109 37" fill="none" xmlns="http://www.w3.org/2000/svg">
<path d="M20.0537 37C18.9737 37 17.9057 36.688 16.8497 36.064C15.8177 35.464 14.4977 34.528 12.8897 33.256C11.6897 32.296 10.6577 31.516 9.79369 30.916C8.95369 30.34 8.02969 29.848 7.02169 29.44C6.03769 29.032 5.02969 28.828 3.99769 28.828C3.63769 28.828 3.36169 28.84 3.16969 28.864L8.53369 3.916C6.92569 4.564 5.67769 5.56 4.78969 6.904C3.92569 8.224 3.49369 9.844 3.49369 11.764C3.49369 12.652 3.57769 13.276 3.74569 13.636C3.91369 13.972 3.99769 14.164 3.99769 14.212C2.70169 14.212 1.72969 13.948 1.08169 13.42C0.457688 12.868 0.145688 11.968 0.145688 10.72C0.145688 9.184 0.769688 7.696 2.01769 6.256C3.28969 4.792 4.90969 3.616 6.87769 2.728C8.84569 1.816 10.8137 1.36 12.7817 1.36C13.1177 1.36 13.5977 1.384 14.2217 1.432L8.67769 27.28C9.34969 27.448 10.0337 27.688 10.7297 28C11.4497 28.336 12.3137 28.78 13.3217 29.332C14.8817 30.172 16.2137 30.808 17.3177 31.24C18.4217 31.696 19.5737 31.924 20.7737 31.924C21.8537 31.924 22.8617 31.732 23.7977 31.348C23.6057 33.1 23.1737 34.48 22.5017 35.488C21.8537 36.496 21.0377 37 20.0537 37ZM23.9023 28.216C21.8863 28.216 20.3023 27.64 19.1503 26.488C18.0223 25.336 17.4583 23.5 17.4583 20.98C17.4583 18.844 17.8423 16.444 18.6103 13.78C19.3783 11.116 20.4943 8.836 21.9583 6.94C23.4463 5.044 25.1983 4.096 27.2143 4.096C27.9343 4.096 28.5583 4.192 29.0863 4.384C28.0303 5.008 27.0103 6.292 26.0263 8.236C25.0663 10.18 24.2863 12.352 23.6863 14.752C23.0863 17.152 22.7863 19.276 22.7863 21.124C22.7863 22.42 22.9543 23.44 23.2903 24.184C23.6263 24.928 24.1543 25.3 24.8743 25.3C26.0503 25.3 27.2143 24.46 28.3663 22.78C29.5423 21.076 30.5023 18.94 31.2463 16.372C32.0143 13.804 32.3983 11.332 32.3983 8.956C32.3983 7.468 32.2663 6.28 32.0023 5.392C31.7623 4.48 31.3063 3.796 30.6343 3.34C29.9623 2.884 29.0143 2.656 27.7903 2.656C25.9423 2.656 24.2263 3.04 22.6423 3.808C21.0583 4.552 19.7863 5.632 18.8263 7.048C17.8903 8.44 17.4223 10.06 17.4223 11.908C17.4223 12.556 17.4823 13.036 17.6023 13.348C17.7223 13.636 17.7823 13.804 17.7823 13.852C16.5823 13.852 15.6703 13.612 15.0463 13.132C14.4463 12.652 14.1463 11.884 14.1463 10.828C14.1463 9.172 14.8183 7.588 16.1623 6.076C17.5303 4.564 19.3303 3.34 21.5623 2.404C23.8183 1.468 26.1823 0.999998 28.6543 0.999998C31.6543 0.999998 33.8263 1.816 35.1703 3.448C36.5143 5.08 37.1863 7.336 37.1863 10.216C37.1863 12.784 36.7063 15.46 35.7463 18.244C34.7863 21.028 33.2983 23.392 31.2823 25.336C29.2903 27.256 26.8303 28.216 23.9023 28.216ZM45.8277 35.452C44.0757 35.452 42.6597 34.996 41.5797 34.084C40.5237 33.196 39.9957 32.02 39.9957 30.556C39.9957 29.644 40.2117 28.804 40.6437 28.036C41.0757 27.268 41.6637 26.668 42.4077 26.236C43.1517 25.78 43.9677 25.552 44.8557 25.552C45.7677 25.552 46.4997 25.78 47.0517 26.236C47.6277 26.692 47.9157 27.292 47.9157 28.036C47.9157 28.612 47.7837 29.068 47.5197 29.404C47.3037 29.116 47.0037 28.888 46.6197 28.72C46.2597 28.552 45.8757 28.468 45.4677 28.468C44.7477 28.468 44.1597 28.708 43.7037 29.188C43.2477 29.668 43.0197 30.292 43.0197 31.06C43.0197 31.828 43.2357 32.452 43.6677 32.932C44.1237 33.412 44.6877 33.652 45.3597 33.652C46.1997 33.652 46.9197 33.28 47.5197 32.536C48.1197 31.792 48.5757 30.688 48.8877 29.224L50.6877 21.268H50.5437C49.8957 22.18 49.1037 22.876 48.1677 23.356C47.2557 23.836 46.2477 24.076 45.1437 24.076C43.7517 24.076 42.5277 23.704 41.4717 22.96C40.4157 22.216 39.5997 21.16 39.0237 19.792C38.4717 18.4 38.1957 16.792 38.1957 14.968C38.1957 12.328 38.7717 9.928 39.9237 7.768C41.0757 5.584 42.6597 3.868 44.6757 2.62C46.6917 1.372 48.9117 0.747999 51.3357 0.747999C53.3757 0.747999 54.9837 1.192 56.1597 2.08C57.3597 2.968 57.9597 4.18 57.9597 5.716C57.9597 6.748 57.7077 7.576 57.2037 8.2C56.6997 8.824 56.0397 9.136 55.2237 9.136C54.7677 9.136 54.3357 9.04 53.9277 8.848C53.5437 8.656 53.2197 8.38 52.9557 8.02C53.3877 7.732 53.7477 7.276 54.0357 6.652C54.3477 6.004 54.5037 5.356 54.5037 4.708C54.5037 3.988 54.2877 3.436 53.8557 3.052C53.4477 2.644 52.8597 2.44 52.0917 2.44C50.6997 2.44 49.3557 3.064 48.0597 4.312C46.7637 5.536 45.7197 7.144 44.9277 9.136C44.1357 11.128 43.7397 13.216 43.7397 15.4C43.7397 17.2 44.0277 18.58 44.6037 19.54C45.1797 20.476 46.0077 20.944 47.0877 20.944C48.3837 20.944 49.5237 20.26 50.5077 18.892C51.5157 17.524 52.3197 15.532 52.9197 12.916L57.1677 12.952L54.5397 25.048C53.7717 28.624 52.6797 31.252 51.2637 32.932C49.8717 34.612 48.0597 35.452 45.8277 35.452ZM68.6562 28.216C66.6402 28.216 65.0562 27.64 63.9042 26.488C62.7762 25.336 62.2122 23.5 62.2122 20.98C62.2122 18.844 62.5962 16.444 63.3642 13.78C64.1322 11.116 65.2482 8.836 66.7122 6.94C68.2002 5.044 69.9522 4.096 71.9682 4.096C72.6882 4.096 73.3122 4.192 73.8402 4.384C72.7842 5.008 71.7642 6.292 70.7802 8.236C69.8202 10.18 69.0402 12.352 68.4402 14.752C67.8402 17.152 67.5402 19.276 67.5402 21.124C67.5402 22.42 67.7082 23.44 68.0442 24.184C68.3802 24.928 68.9082 25.3 69.6282 25.3C70.8042 25.3 71.9682 24.46 73.1202 22.78C74.2962 21.076 75.2562 18.94 76.0002 16.372C76.7682 13.804 77.1522 11.332 77.1522 8.956C77.1522 7.468 77.0202 6.28 76.7562 5.392C76.5162 4.48 76.0602 3.796 75.3882 3.34C74.7162 2.884 73.7682 2.656 72.5442 2.656C70.6962 2.656 68.9802 3.04 67.3962 3.808C65.8122 4.552 64.5402 5.632 63.5802 7.048C62.6442 8.44 62.1762 10.06 62.1762 11.908C62.1762 12.556 62.2362 13.036 62.3562 13.348C62.4762 13.636 62.5362 13.804 62.5362 13.852C61.3362 13.852 60.4242 13.612 59.8002 13.132C59.2002 12.652 58.9002 11.884 58.9002 10.828C58.9002 9.172 59.5722 7.588 60.9162 6.076C62.2842 4.564 64.0842 3.34 66.3162 2.404C68.5722 1.468 70.9362 0.999998 73.4082 0.999998C76.4082 0.999998 78.5802 1.816 79.9242 3.448C81.2682 5.08 81.9402 7.336 81.9402 10.216C81.9402 12.784 81.4602 15.46 80.5002 18.244C79.5402 21.028 78.0522 23.392 76.0362 25.336C74.0442 27.256 71.5842 28.216 68.6562 28.216ZM97.9903 28.18C95.4703 28.18 93.6103 27.436 92.4103 25.948C91.2343 24.436 90.6463 22.012 90.6463 18.676C90.6463 15.46 91.1983 12.508 92.3023 9.82C93.4303 7.108 94.9543 4.972 96.8743 3.412C98.7943 1.828 100.906 1.036 103.21 1.036C104.794 1.036 106.054 1.408 106.99 2.152C107.95 2.896 108.43 3.88 108.43 5.104C108.43 6.04 108.178 6.832 107.674 7.48C107.17 8.104 106.546 8.416 105.802 8.416C105.394 8.416 105.022 8.308 104.686 8.092C104.35 7.876 104.11 7.6 103.966 7.264C104.35 7.072 104.638 6.784 104.83 6.4C105.046 6.016 105.154 5.608 105.154 5.176C105.154 4.624 104.986 4.156 104.65 3.772C104.338 3.364 103.882 3.16 103.282 3.16C102.298 3.16 101.326 3.676 100.366 4.708C99.4303 5.74 98.5903 7.168 97.8463 8.992C97.1023 10.792 96.5623 12.808 96.2263 15.04L96.3343 15.004C96.7663 13.9 97.4743 13.06 98.4583 12.484C99.4423 11.908 100.606 11.62 101.95 11.62C103.606 11.62 104.938 12.184 105.946 13.312C106.954 14.416 107.458 15.928 107.458 17.848C107.458 19.624 107.026 21.304 106.162 22.888C105.298 24.472 104.134 25.756 102.67 26.74C101.23 27.7 99.6703 28.18 97.9903 28.18ZM98.7463 25.372C99.4183 25.372 100.066 25.048 100.69 24.4C101.338 23.728 101.866 22.828 102.274 21.7C102.682 20.548 102.886 19.3 102.886 17.956C102.886 16.66 102.622 15.712 102.094 15.112C101.59 14.488 100.894 14.176 100.006 14.176C97.2703 14.176 95.9023 16.156 95.9023 20.116C95.9023 23.62 96.8503 25.372 98.7463 25.372Z" fill="#666276"/>
</svg>
